<?xml version="1.0" encoding="utf-8"?>
<!-- Generator: Adobe Illustrator 23.0.1, SVG Export Plug-In . SVG Version: 6.00 Build 0)  -->
<svg version="1.1" id="Layer_1" xmlns="http://www.w3.org/2000/svg" xmlns:xlink="http://www.w3.org/1999/xlink" x="0px" y="0px"
	 viewBox="0 0 432 283.5" style="enable-background:new 0 0 432 283.5;" xml:space="preserve">
<style type="text/css">
	.st0{fill:#574745;}
	.st1{fill:#DD3E26;}
	.st2{fill:#F47C48;}
	.st3{fill:#F26422;}
	.st4{fill:#F26322;}
	.st5{fill:#FFFFFF;}
	.st6{fill:#F47C35;}
	.st7{fill:#E76C24;}
	.st8{fill:#F4752B;}
	.st9{fill:#F36B32;}
	.st10{opacity:0.42;}
	.st11{fill:#FCD0B6;}
</style>
<g>
	<g>
		<g>
			
				<rect x="186.4" y="110.3" transform="matrix(0.9999 1.417079e-02 -1.417079e-02 0.9999 1.6604 -2.6437)" class="st0" width="1.9" height="11.2"/>
		</g>
	</g>
	<g>
		<g>
			<path class="st1" d="M107.9,219.2c0,0-9.3-20.5,1.2-29.7l8.5,7.5L107.9,219.2z"/>
		</g>
	</g>
	<g>
		<g>
			<path class="st1" d="M143.7,175.3c0,0-12-0.6-18,0.2c-5.9,0.8-16.7,13.9-16.7,13.9l8.5,7.5c0,0,13-12,18.1-11.9
				c5.1,0.1,8.4-3,8.4-3L143.7,175.3z"/>
		</g>
	</g>
	<g>
		<g>
			<path class="st1" d="M163.5,172.7c0,0-17.5-1.9-19.8,2.6c-2.3,4.5,0.3,6.8,0.3,6.8s16.5-2.2,19.9-3.1
				C167.4,178.1,163.5,172.7,163.5,172.7z"/>
		</g>
	</g>
	<g>
		<g>
			<path class="st1" d="M71,123.4c0,0-5.4,20.5,4.9,28.9l6.3-7.8L71,123.4z"/>
		</g>
	</g>
	<g>
		<g>
			<path class="st1" d="M108.1,165.1c0,0-10.4,1.2-15.7,0.7c-5.3-0.6-16.6-13.4-16.6-13.4l6.3-8.1c0,0,13.1,11.6,17.5,11.2
				c4.4-0.3,7.8,2.7,7.8,2.7L108.1,165.1z"/>
		</g>
	</g>
	<g>
		<g>
			<path class="st1" d="M125.8,166.7c0,0-15,2.8-17.7-1.7c-2.7-4.4-0.7-6.9-0.7-6.9s14.8,1.5,17.9,2.2
				C128.4,161.1,125.8,166.7,125.8,166.7z"/>
		</g>
	</g>
	<g>
		<g>
			<path class="st1" d="M149.1,168.2c0,0-18,0.8-23.3-1.5c0,0-4.6-5-0.5-6.4c4.1-1.4,31.6-2.5,31.6-2.5L149.1,168.2z"/>
		</g>
	</g>
	<g>
		<g>
			<path class="st1" d="M107.8,124.6c0,0-10.2-4-14.8-7.2c-4.6-3.2-8.7-20.9-8.7-20.9l9.8-4.6c0,0,6.4,17.5,10.6,19.4
				c4.3,1.9,5.8,6.4,5.8,6.4L107.8,124.6z"/>
		</g>
	</g>
	<g>
		<g>
			<path class="st1" d="M123.3,135c0,0-15.2-4.8-15.5-10.4c-0.3-5.5,2.8-6.9,2.8-6.9s12.9,8.7,15.4,11
				C128.5,130.9,123.3,135,123.3,135z"/>
		</g>
	</g>
	<g>
		<g>
			<path class="st1" d="M144,148c0,0-16.9-8.2-20.7-13c0,0-1.7-7,2.7-6.3c4.4,0.7,30.4,13.3,30.4,13.3L144,148z"/>
		</g>
	</g>
	<g>
		<g>
			<path class="st1" d="M194.9,23.4c0,0-35.5,2.9-43.4,25.7c0,0,2.7,6.9,9,6.4c0,0,6.8-14.7,15.7-20.2
				C185.1,29.9,194.9,23.4,194.9,23.4z"/>
		</g>
	</g>
	<g>
		<g>
			<path class="st2" d="M159.4,137.5c0,0-23.4-21.3-23.1-41.2c0,0,5.5-6,11.7-2.1l-0.5,3.3l6.7,1l-2.1,5.9l7.3,0.6l-1.4,5.5l7.9,0.7
				l-2.6,5.9l7.9,0.7l-3.7,5.7l8.2,2.4L159.4,137.5z"/>
		</g>
	</g>
	<g>
		<g>
			<path class="st1" d="M170.2,121.2l3.7-5.7l-7.9-0.7l2.6-5.9l-7.9-0.7l1.4-5.5l-7.3-0.6l2.1-5.9l-6.7-1l1.1-5
				c-5.7-3.5-11.3,2.8-12.1,3.6c2.2-1.2,3.4-2.3,6,0.8l1.4,3.6l7.4,0l-2.1,5.9l7.3,0.6l-1.4,5.5l7.9,0.7l-2.6,5.9l7.9,0.7l-3.7,5.7
				l8.2,2.4l2.9-2.1L170.2,121.2z"/>
		</g>
	</g>
	<g>
		<g>
			<path class="st3" d="M136.2,96.3c0.4-2.8-7.9-11.5,2.2-17.9l12.2,9.3c0,0-2.6,5.9-5.3,8.3L136.2,96.3z"/>
		</g>
	</g>
	<g>
		<g>
			<path class="st1" d="M136.6,96.3c0.4-2.8-8.8-11.6,2.2-17.9l13.5,9.5c0,0-2.8,5.8-5.7,8.2L136.6,96.3z"/>
		</g>
	</g>
	<g>
		<g>
			<path class="st3" d="M136.2,96.3c0.4-2.8-7.9-11.5,2.2-17.9l12.2,9.3c0,0-2.8,6.7-5.4,9.1L136.2,96.3z"/>
		</g>
	</g>
	<g>
		<g>
			<path class="st2" d="M135.8,80.8c0,0,10.4-8.4,8-16.5c-2.4-8.1,3.3-14.5,7.1-17.4c0,0,6.1,8.4,12.3,3.9c4.8-3.5,5.6-7,5.6-7
				l3.8,3l2.8-5.3l5.3,2.8l2.2-6.5l5.3,1.9l0.8-7.3l6,0.5l-0.2-4.6l6.7,2.7c0,0-2.3,11.9-17.4,20.5c-15,8.6-16.4,13.7-19.2,22.2
				c-2.7,8.5-14,10.1-14,10.1L135.8,80.8z"/>
		</g>
	</g>
	<g>
		<g>
			<path class="st1" d="M201,32.6c-1.1,3.4-5,12.2-17,19.1c-15,8.6-16.4,13.7-19.2,22.2c-2.7,8.5-14,10.1-14,10.1l-15-3.1
				c0,0,2.5,1.6,4.6,2.7c2.6,1.4,10.3,3.1,10.3,3.1s12.8-2,15.7-10.3c2.9-8.3,3.6-14.7,19.1-23.3c15.5-8.7,15.8-21.8,15.8-21.8
				L201,32.6z"/>
		</g>
	</g>
	<g>
		<g>
			<path class="st4" d="M194.9,23.2c0,0-35.2,4.1-44,23.8c0,0,2.3,5.8,8.6,5.1c0,0,7.3-12.8,16.4-17.8
				C184.9,29.1,194.9,23.2,194.9,23.2z"/>
		</g>
	</g>
	<g>
		<g>
			<path class="st0" d="M182.3,107.7c0.4-2.7,3-4.6,5.7-4.1c2.7,0.4,4.6,3,4.1,5.7c-0.4,2.7-3,4.6-5.7,4.1
				C183.7,112.9,181.8,110.4,182.3,107.7z"/>
		</g>
	</g>
	<g>
		<g>
			<path class="st5" d="M188.4,108.1c-0.7,0.5-1.8,0.4-2.3-0.4c-0.5-0.7-0.4-1.8,0.4-2.3c0.7-0.5,1.8-0.4,2.3,0.4
				C189.3,106.5,189.1,107.6,188.4,108.1z"/>
		</g>
	</g>
	<g>
		<g>
			<path class="st2" d="M94.1,66.9c0,0-15.1,16.4-9.7,29.2l9.8-4.2L94.1,66.9z"/>
		</g>
	</g>
	<g>
		<g>
			<path class="st6" d="M108.1,122.6c0,0-10.2-3.9-14.9-6.9c-4.7-3-8.9-19.6-8.9-19.6l9.8-4.2c0,0,6.5,16.4,10.8,18.2
				c4.3,1.8,5.9,6.1,5.9,6.1L108.1,122.6z"/>
		</g>
	</g>
	<g>
		<g>
			<path class="st4" d="M123.7,132.5c0,0-15.2-4.7-15.5-9.8c-0.3-5.2,2.7-6.4,2.7-6.4s12.9,8.3,15.5,10.4
				C128.8,128.7,123.7,132.5,123.7,132.5z"/>
		</g>
	</g>
	<g>
		<g>
			<path class="st7" d="M144.5,144.8c0,0-17-7.8-20.8-12.4c0,0-1.8-6.6,2.6-5.9c4.4,0.7,30.5,12.8,30.5,12.8L144.5,144.8z"/>
		</g>
	</g>
	<g>
		<g>
			<path class="st2" d="M71,121.8c0,0-5.4,20.5,4.9,28.9l6.4-7.8L71,121.8z"/>
		</g>
	</g>
	<g>
		<g>
			<path class="st4" d="M107.6,162.4c0,0-10.3,1.3-15.6,0.8c-5.2-0.5-16.2-12.5-16.2-12.5l6.4-7.8c0,0,12.8,10.9,17.2,10.5
				c4.4-0.4,7.6,2.5,7.6,2.5L107.6,162.4z"/>
		</g>
	</g>
	<g>
		<g>
			<path class="st4" d="M125,163.8c0,0-14.9,2.9-17.4-1.4c-2.6-4.2-0.6-6.6-0.6-6.6s14.6,1.2,17.6,1.9
				C127.7,158.3,125,163.8,125,163.8z"/>
		</g>
	</g>
	<g>
		<g>
			<path class="st7" d="M148,164.9c0,0-17.8,1-23-1.1c0,0-4.4-4.7-0.4-6.1c4-1.4,31.3-2.8,31.3-2.8L148,164.9z"/>
		</g>
	</g>
	<g>
		<g>
			<path class="st4" d="M106.9,218.3c0,0-7.4-19.9,1.9-29.2l7.1,7.2L106.9,218.3z"/>
		</g>
	</g>
	<g>
		<g>
			<path class="st7" d="M139.2,174.2c0,0-10.4-0.2-15.6,0.8c-5.2,1-14.8,14.1-14.8,14.1l7.1,7.2c0,0,11.6-12.1,16-12.2
				c4.4-0.1,7.3-3.2,7.3-3.2L139.2,174.2z"/>
		</g>
	</g>
	<g>
		<g>
			<path class="st1" d="M156.4,171.1c0,0-15.1-1.3-17.2,3.1c-2.1,4.4,0.1,6.6,0.1,6.6s14.4-2.7,17.3-3.6
				C159.6,176.2,156.4,171.1,156.4,171.1z"/>
		</g>
	</g>
	<g>
		<g>
			<path class="st1" d="M163.4,191.7c-2.9,0.1-25.6-4-33.9,8.9c-8.3,12.9-7.5,22.2-7.5,22.2s17.1-3.6,17.6-14.3
				c0,0,18.8,0.1,20.9-5.8c0,0,8.3,5.3,12-0.4C176.3,196.5,163.4,191.7,163.4,191.7z"/>
		</g>
	</g>
	<g>
		<g>
			<path class="st2" d="M144.9,247.4c0,0-12.2,1.5-16.1-6.5c-3.9-8-3-10.1-3-10.1s-3.9-0.6-3.9-8c0-7.4,14.9-7.9,14.9-7.9
				s4.3,12.6,1.3,17.3C138.2,232.1,148.8,237.2,144.9,247.4z"/>
		</g>
	</g>
	<g>
		<g>
			<path class="st1" d="M296.9,248.9c0,0,15.1-16.7,8-28.7l-10.4,4.6L296.9,248.9z"/>
		</g>
	</g>
	<g>
		<g>
			<path class="st1" d="M276.2,196.1c0,0,11.6,3.1,17,5.7c5.4,2.6,11.6,18.3,11.6,18.3l-10.4,4.6c0,0-8.7-15.4-13.6-16.9
				c-4.9-1.5-7-5.5-7-5.5L276.2,196.1z"/>
		</g>
	</g>
	<g>
		<g>
			<path class="st1" d="M258.1,187.6c0,0,17.2,3.6,18,8.5c0.8,5-2.4,6.3-2.4,6.3s-15-7.2-18-9.1
				C252.8,191.5,258.1,187.6,258.1,187.6z"/>
		</g>
	</g>
	<g>
		<g>
			<path class="st1" d="M361.3,169c0,0-1.2,21.2-13.5,26l-3.6-9.4L361.3,169z"/>
		</g>
	</g>
	<g>
		<g>
			<path class="st1" d="M313.2,197.3c0,0,9.5,4.3,14.8,5.4c5.2,1.1,19.9-7.6,19.9-7.6l-3.5-9.7c0,0-16,7-20.1,5.3
				c-4.1-1.7-8.2,0.2-8.2,0.2L313.2,197.3z"/>
		</g>
	</g>
	<g>
		<g>
			<path class="st1" d="M295.9,193.4c0,0,13.4,7.2,17.3,3.8c3.9-3.4,2.8-6.4,2.8-6.4s-14.5-3.1-17.7-3.4
				C295.2,187.2,295.9,193.4,295.9,193.4z"/>
		</g>
	</g>
	<g>
		<g>
			<path class="st1" d="M273.3,187.7c0,0,16.8,6.3,22.7,5.7c0,0,5.9-3.3,2.4-5.9c-3.5-2.6-29.3-12.1-29.3-12.1L273.3,187.7z"/>
		</g>
	</g>
	<g>
		<g>
			<path class="st1" d="M325.9,158.9c0,0,10.9-0.7,16.3-2.3c5.4-1.6,14.7-17.3,14.7-17.3l-8-7.4c0,0-11.4,14.7-16.1,15.2
				c-4.6,0.5-7.5,4.3-7.5,4.3L325.9,158.9z"/>
		</g>
	</g>
	<g>
		<g>
			<path class="st1" d="M308,164c0,0,15.9,0.1,17.9-5.1c2-5.2-0.5-7.4-0.5-7.4s-14.9,4.4-18,5.7C304.3,158.5,308,164,308,164z"/>
		</g>
	</g>
	<g>
		<g>
			<path class="st1" d="M284.3,170.1c0,0,18.6-2.6,23.7-6.1c0,0,3.8-6.1-0.6-6.8c-4.4-0.7-33,3.4-33,3.4L284.3,170.1z"/>
		</g>
	</g>
	<g>
		<g>
			<path class="st1" d="M244.5,56.5c0,0,35.6-1.9,46.5,19.6c0,0-1.7,7.2-8,7.6c0,0-8.7-13.6-18.3-17.9
				C255.1,61.6,244.5,56.5,244.5,56.5z"/>
		</g>
	</g>
	<g>
		<g>
			<path class="st8" d="M272.9,155.3c0,0,28.8-13.1,34.7-32.2c0,0-3.4-7.4-10.5-5.6l-0.5,3.3l-6.7-1l0.2,6.3l-7.1-1.7l-0.3,5.6
				l-7.7-1.8l0.7,6.4l-7.7-1.8l1.8,6.6l-8.5-0.2L272.9,155.3z"/>
		</g>
	</g>
	<g>
		<g>
			<path class="st2" d="M267.6,136.5l-1.8-6.6l7.7,1.8l-0.7-6.4l7.7,1.8l0.3-5.6l7.1,1.7l-0.2-6.3l6.7,1l0.5-5
				c6.5-1.6,9.9,6.1,10.4,7.2c-1.7-1.8-2.5-3.2-6-1.1l-2.5,3l-7.1-2.2l0.2,6.3l-7.1-1.7l-0.3,5.6l-7.7-1.8l0.7,6.4l-7.7-1.8l1.8,6.6
				l-8.5-0.2l-2.1-2.9L267.6,136.5z"/>
		</g>
	</g>
	<g>
		<g>
			<path class="st3" d="M307.6,123.2c0.4-2.8,11-8.5,3.3-17.7l-14.5,5.1c0,0,0.7,6.4,2.5,9.5L307.6,123.2z"/>
		</g>
	</g>
	<g>
		<g>
			<path class="st1" d="M307.1,123.1c0.4-2.8,11.9-8.4,3.4-17.7l-15.8,4.9c0,0,0.9,6.4,2.9,9.6L307.1,123.1z"/>
		</g>
	</g>
	<g>
		<g>
			<path class="st3" d="M307.6,123.2c0.4-2.8,11-8.5,3.3-17.7l-14.5,5.1c0,0,0.6,7.2,2.4,10.3L307.6,123.2z"/>
		</g>
	</g>
	<g>
		<g>
			<path class="st2" d="M310.9,105.5c0,0-11.4-6.9-10.1-15.3c1.3-8.3-5.2-13.9-9.4-16.3c0,0-5,9.2-11.7,5.6
				c-5.3-2.8-6.4-6.1-6.4-6.1l-3.4,3.5l-3.5-4.8l-4.8,3.5l-3-6.2l-5,2.6l-1.7-7.1l-5.9,1.4l-0.4-4.6l-6.3,3.6c0,0,3.9,11.4,20,17.9
				c16.1,6.5,18.1,11.4,22,19.4c3.9,8,15.2,8.1,15.2,8.1L310.9,105.5z"/>
		</g>
	</g>
	<g>
		<g>
			<path class="st1" d="M239.8,66.5c1.6,3.2,6.6,11.4,19.4,16.6c16.1,6.5,18.1,11.4,22,19.4c3.9,8,15.2,8.1,15.2,8.1l14.5-5.1
				c0,0-2.3,1.9-4.2,3.3c-2.4,1.7-9.8,4.4-9.8,4.4s-12.9-0.2-17-8.1c-4-7.9-5.5-14-22.1-20.5c-16.6-6.5-18.6-19.4-18.6-19.4
				L239.8,66.5z"/>
		</g>
	</g>
	<g>
		<g>
			<path class="st4" d="M244.6,56.3c0,0,35.4-0.7,46.8,17.6c0,0-1.5,6-7.8,6.2c0,0-9-11.7-18.6-15.5
				C255.3,60.8,244.6,56.3,244.6,56.3z"/>
		</g>
	</g>
	<g>
		<g>
			<path class="st2" d="M356.6,108.1c0,0,9.3,20.3,0.3,30.8l-8-7L356.6,108.1z"/>
		</g>
	</g>
	<g>
		<g>
			<path class="st6" d="M326.2,156.9c0,0,10.9-0.6,16.3-2c5.4-1.4,14.5-16,14.5-16l-8-7c0,0-11.3,13.6-15.9,14c-4.6,0.4-7.5,4-7.5,4
				L326.2,156.9z"/>
		</g>
	</g>
	<g>
		<g>
			<path class="st4" d="M308.4,161.5c0,0,15.9,0.2,17.8-4.6c1.9-4.8-0.6-6.9-0.6-6.9s-14.9,3.9-17.9,5.2
				C304.6,156.3,308.4,161.5,308.4,161.5z"/>
		</g>
	</g>
	<g>
		<g>
			<path class="st7" d="M284.8,166.9c0,0,18.6-2.2,23.6-5.4c0,0,3.7-5.7-0.7-6.4c-4.4-0.7-32.9,2.8-32.9,2.8L284.8,166.9z"/>
		</g>
	</g>
	<g>
		<g>
			<path class="st2" d="M361.8,167.5c0,0-1.2,21.2-13.5,26l-3.6-9.4L361.8,167.5z"/>
		</g>
	</g>
	<g>
		<g>
			<path class="st4" d="M314.5,194.9c0,0,9.4,4.4,14.6,5.6c5.1,1.2,19.3-7,19.3-7l-3.6-9.4c0,0-15.5,6.4-19.6,4.7c-4.1-1.7-8,0-8,0
				L314.5,194.9z"/>
		</g>
	</g>
	<g>
		<g>
			<path class="st4" d="M297.5,190.9c0,0,13.3,7.3,17,4.1c3.7-3.2,2.6-6.1,2.6-6.1s-14.2-3.3-17.3-3.6
				C296.7,184.9,297.5,190.9,297.5,190.9z"/>
		</g>
	</g>
	<g>
		<g>
			<path class="st7" d="M275.3,184.9c0,0,16.6,6.4,22.3,6c0,0,5.7-3.1,2.2-5.7c-3.4-2.6-28.9-12.3-28.9-12.3L275.3,184.9z"/>
		</g>
	</g>
	<g>
		<g>
			<path class="st4" d="M298.1,248.3c0,0,13.2-16.6,7.1-28.4l-9,4.6L298.1,248.3z"/>
		</g>
	</g>
	<g>
		<g>
			<path class="st7" d="M280.8,196.4c0,0,10,3,14.6,5.5c4.6,2.5,9.8,18,9.8,18l-9,4.6c0,0-7.4-15.1-11.5-16.5c-4.2-1.4-6-5.3-6-5.3
				L280.8,196.4z"/>
		</g>
	</g>
	<g>
		<g>
			<path class="st1" d="M265.4,188.2c0,0,14.8,3.4,15.4,8.2c0.7,4.9-2.1,6.3-2.1,6.3s-12.9-7-15.4-8.8
				C260.8,192.1,265.4,188.2,265.4,188.2z"/>
		</g>
	</g>
	<g>
		<g>
			<path class="st1" d="M252.5,205.7c2.7,1,25.6,4,29.5,18.9c3.9,14.9,0.3,23.4,0.3,23.4s-15.2-8.6-12.4-19c0,0-17.9-5.7-18.1-11.9
				c0,0-9.5,2.5-11.3-4.1C238.7,206.3,252.5,205.7,252.5,205.7z"/>
		</g>
	</g>
	<g>
		<g>
			<path class="st2" d="M252.9,264.4c0,0,11.2,5.2,17.3-1.3c6.1-6.4,5.9-8.8,5.9-8.8s3.9,0.6,6.1-6.4c2.2-7.1-11.8-12.1-11.8-12.1
				s-7.9,10.7-6.5,16.1C264,251.9,252.4,253.5,252.9,264.4z"/>
		</g>
	</g>
	<g>
		<g>
			<path class="st0" d="M257,120.3c0.4-2.7-1.4-5.3-4.1-5.7c-2.7-0.4-5.3,1.4-5.7,4.1c-0.4,2.7,1.4,5.3,4.1,5.7
				C254.1,124.8,256.6,123,257,120.3z"/>
		</g>
	</g>
	<g>
		<g>
			
				<rect x="248.6" y="121.7" transform="matrix(-0.9562 -0.2928 0.2928 -0.9562 450.8771 322.0795)" class="st0" width="1.9" height="11.2"/>
		</g>
	</g>
	<g>
		<g>
			<path class="st2" d="M280.8,159.2c0.4-3.1,0.5-10.6-7-11c-0.4,0-0.8-0.3-0.9-0.7c-0.8-3.1-4.5-16.2-13.2-9.7
				c-0.6,0.4-1.4,0.1-1.5-0.6c-0.3-3.8-1.9-12-11.4-6.7c-0.5,0.3-1.1,0.1-1.3-0.4c-1.1-2.8-4.9-10.2-12.6-3.8
				c-0.5,0.4-1.1,0.2-1.4-0.3c-0.9-2-3.3-5.6-9.8-4.7c-2.4,0.3-3.9,0.8-5,1.4c-0.4,0.2-0.8,0.1-1.1-0.2c-0.8-0.9-2.2-1.8-4.3-2.9
				c-5.9-2.8-9.3-0.1-10.7,1.5c-0.4,0.4-1.1,0.4-1.4-0.1c-5.3-8.4-11.2-2.6-13.1-0.3c-0.4,0.4-1,0.4-1.4,0c-7.5-8-11.5-0.7-12.9,2.8
				c-0.3,0.7-1.2,0.7-1.6,0.2c-6.3-8.9-13.9,2.4-15.6,5.2c-0.2,0.3-0.6,0.5-1,0.4c-7.2-1.9-9.4,5.2-10,8.3c-0.1,0.6-0.7,0.9-1.3,0.6
				c-3.7-1.6-7.1,3.1-8.5,5.5c-0.3,0.5,0,1.3,0.6,1.4c3.2,0.5,11.3,4,16,25.7c5.9,27.4,12.5,31.8,22.3,35.7
				c13.9,5.5,26.1,4.7,29.5,4.3c0.2,0,0.3,0,0.4,0.1c3.1,1.4,14.5,5.9,29.4,4.9c10.5-0.7,18.1-2.9,32.2-27.1
				c11.1-19.2,19.9-20.1,23.1-19.6c0.6,0.1,1.1-0.5,1-1.1c-0.6-2.7-2.4-8.2-6.4-7.8C281.2,160.3,280.7,159.8,280.8,159.2z"/>
		</g>
	</g>
	<g>
		<g>
			<path class="st1" d="M133.7,144.4c3.3,0.5,9.3,4.8,14.2,27.6c6.1,28.8,12.9,33.5,23,37.5c14.4,5.7,27.1,4.9,30.6,4.5
				c0.2,0,0.3,0,0.4,0.1c3.2,1.4,15,6.2,30.5,5.1c10.9-0.7,17.3-3.9,33.4-28.6c11.2-17.2,14.5-17.5,18.6-19.2
				c1.1-0.5,3.6-1.4,3.8-3.4l0,0c0,0-40.9-14.5-58.2-0.2c-5.9,4.9-10.7,9.4-14.5,13.3c-5.1,5.2-13.6,3.8-16.7-2.7
				c-2.3-4.8-5.5-11-10-18.8c-15.3-26.7-54.3-16.6-54.3-16.6L133.7,144.4z"/>
		</g>
	</g>
	<g>
		<g>
			<path class="st9" d="M288.3,168c0,0-42-14.6-58.6-1c-5.7,4.6-10.3,8.9-13.9,12.6c-4.9,4.9-13.1,3.6-16.1-2.6
				c-2.2-4.6-4.5-11-9.7-17.9c-20.3-26.8-55.3-16.1-55.3-16.1l-0.8,1.4c0.1,0.3,0.3,0.6,0.7,0.7c3.2,0.5,11.3,4,16,25.7
				c5.9,27.4,12.5,31.8,22.3,35.7c13.9,5.5,26.1,4.7,29.5,4.3c0.2,0,0.3,0,0.4,0.1c3.1,1.4,14.4,5.9,29.4,4.9
				c10.5-0.7,18.1-2.9,32.2-27.1c11.1-19.2,19.9-20.1,23.1-19.6L288.3,168z"/>
		</g>
	</g>
	<g>
		<g>
			<path class="st5" d="M253.4,118.9c-0.7,0.5-1.8,0.4-2.3-0.4c-0.5-0.7-0.4-1.8,0.4-2.3c0.7-0.5,1.8-0.4,2.3,0.4
				C254.3,117.3,254.2,118.4,253.4,118.9z"/>
		</g>
	</g>
	<g class="st10">
		<g>
			<path class="st11" d="M188.3,134c-2-2.7,14.5-6,28.5-3.8c14,2.2,25.9,7.8,24.6,11.4C240.2,145.2,195.2,143.4,188.3,134z"/>
		</g>
	</g>
</g>
</svg>
