<?xml version="1.0" encoding="utf-8"?>
<!-- Generator: Adobe Illustrator 23.0.1, SVG Export Plug-In . SVG Version: 6.00 Build 0)  -->
<svg version="1.1" id="Layer_1" xmlns="http://www.w3.org/2000/svg" xmlns:xlink="http://www.w3.org/1999/xlink" x="0px" y="0px"
	 viewBox="0 0 141.7 141.7" style="enable-background:new 0 0 141.7 141.7;" xml:space="preserve">
<style type="text/css">
	.st0{fill:#FFFFFF;}
	.st1{fill-rule:evenodd;clip-rule:evenodd;fill:#344FA1;}
</style>
<g>
	<path class="st0" d="M120.8,117.3L120.8,117.3c-4.5-0.1-8.2,3.4-8.5,7.8l0,0c-0.4,5.7-6.2,9.4-11.5,7.2l0,0
		c-4.1-1.7-8.9,0.2-10.7,4.2l0,0c-2.4,5.2-9.2,6.5-13.3,2.6l0,0c-3.2-3.1-8.3-3.1-11.5,0l0,0c-4.1,4-10.9,2.7-13.3-2.4l0,0
		c-1.9-4-6.7-5.9-10.8-4.1l0,0c-5.3,2.2-11.1-1.4-11.6-7.1l0,0c-0.3-4.5-4.1-7.9-8.6-7.8l0,0c-5.7,0.2-9.9-5.3-8.2-10.8l0,0
		c1.3-4.3-1-8.8-5.2-10.3l0,0C2.2,94.7,0.3,88,3.8,83.5l0,0C6.6,80,6.1,75,2.7,72l0,0C-1.6,68.3-1,61.4,3.9,58.5l0,0
		c3.8-2.3,5.2-7.2,3.1-11.1l0,0c-2.7-5.1,0.4-11.3,6-12.2l0,0c4.4-0.7,7.4-4.8,6.9-9.3l0,0c-0.7-5.7,4.4-10.4,10-9.2l0,0
		c4.4,0.9,8.7-1.8,9.8-6.1l0,0c1.4-5.5,7.8-8.1,12.6-5l0,0C56,8,61,7.1,63.6,3.4l0,0c3.4-4.6,10.3-4.7,13.6,0l0,0
		c2.6,3.6,7.6,4.5,11.3,2.1l0,0c4.8-3.1,11.2-0.7,12.7,4.9l0,0c1.1,4.3,5.5,7,9.8,6l0,0c5.6-1.2,10.7,3.4,10.1,9.1l0,0
		c-0.5,4.4,2.6,8.5,7,9.2l0,0c5.6,0.9,8.7,7.1,6.1,12.1l0,0c-2.1,4-0.7,8.9,3.2,11.1l0,0c4.9,2.9,5.6,9.8,1.3,13.5l0,0
		c-3.4,3-3.8,8-1,11.5l0,0c3.6,4.5,1.7,11.1-3.7,13.1l0,0c-4.2,1.5-6.4,6.1-5.1,10.4l0,0C130.7,111.9,126.5,117.4,120.8,117.3z"/>
	<g>
		<path class="st1" d="M60.3,69.5L60,106.6c0,0.5,0.4,1,1,1l13.7,0.1c0.5,0,1-0.4,1-1L76,69l10,0.1c0.5,0,0.9-0.4,1-0.9l1-11.4
			c0.1-0.6-0.4-1.1-1-1.1l-10.9-0.1l0.1-8.1c0-1.9,1.6-3.4,3.4-3.4l7.7,0.1c0.5,0,1-0.4,1-1l0-11.2c0-0.5-0.4-1-1-1l-13-0.1
			c-7.6-0.1-13.8,6.1-13.9,13.7l-0.1,11h-6.9c-0.5,0-1,0.4-1,1L52.3,68c0,0.5,0.4,1,1,1h6.9L60.3,69.5z"/>
	</g>
</g>
</svg>
