<?xml version="1.0" encoding="utf-8"?>
<!-- Generator: Adobe Illustrator 23.0.1, SVG Export Plug-In . SVG Version: 6.00 Build 0)  -->
<svg version="1.1" id="Layer_1" xmlns="http://www.w3.org/2000/svg" xmlns:xlink="http://www.w3.org/1999/xlink" x="0px" y="0px"
	 viewBox="0 0 566.9 283.5" style="enable-background:new 0 0 566.9 283.5;" xml:space="preserve">
<style type="text/css">
	.st0{fill:#8C93C9;}
	.st1{fill:#3D437B;}
	.st2{fill:#F8B31A;}
	.st3{fill:#D6DAE5;}
	.st4{fill:#B0C2E4;}
	.st5{fill:#F8ED41;}
	.st6{fill:#525283;}
	.st7{fill:#BFC5D0;}
	.st8{fill:#FFFFFF;}
	.st9{fill:#62658D;}
</style>
<g>
	<g>
		<g>
			<path class="st0" d="M408.1,148c3,0,44.1-9,61.9-30.4c7.7-9.2,18.1,6.2,10.9,39.3c-7.2,33-18,56.2-21.9,66.7
				c-3.9,10.5-13,23.6-25,3.3c-12-20.2-13.5-39.5-29.1-45C389.4,176.4,408.1,148,408.1,148z"/>
		</g>
	</g>
	<g>
		<g>
			<path class="st1" d="M462,221.3c8.7-14.6,17.3-29.8,22.2-70c4-33.6-4.8-41.4-14.1-33.7c0,0,3.1,29.1-4.9,60.2
				c-8,31.1-26.9,51.7-26.9,51.7s-0.3,1-0.6,2.5C447.8,244.4,456.9,229.9,462,221.3z"/>
		</g>
	</g>
	<g>
		<g>
			<path class="st2" d="M223,24.9c0,0,60.4-19.6,128,1C417.1,46,444.3,65.5,450.5,97c6.2,31.5-46.8,47.1-46.8,47.1L317.4,55
				L223,24.9z"/>
		</g>
	</g>
	<g>
		<g>
			<path class="st2" d="M396.2,182.5c0,0,31.9,17.7,26,47.4c-5.9,29.7-97,42.9-144.3,34.7c-47.3-8.2-68.2-30.9-68.2-30.9
				L396.2,182.5z"/>
		</g>
	</g>
	<g>
		<g>
			<path class="st0" d="M75.9,130.5c0,0-5.6-7.7,0.8-9.9s32.6-5.4,40.2-19.9c7.7-14.5,10.8-33.5,32.2-48.3
				c21.4-14.8,74.4-42.2,145.7-27.4c71.3,14.8,110.5,60.1,115.8,95.6c5.4,35.5-11.9,74.3-23.5,88c-11.7,13.7-56.2,41.1-111.4,34.8
				c-55.2-6.3-127-25.3-151.5-54.6c-24.5-29.3-38.9-28.6-48.4-43.5C66.5,130.4,75.9,130.5,75.9,130.5z"/>
		</g>
	</g>
	<g>
		<g>
			<path class="st3" d="M333.6,37.2c1.7,0.7,3.3,1.5,4.9,2.2C336.9,38.6,335.3,37.9,333.6,37.2z"/>
		</g>
	</g>
	<g>
		<g>
			<path class="st3" d="M339.1,39.7c1.6,0.7,3.1,1.5,4.6,2.3C342.2,41.1,340.7,40.4,339.1,39.7z"/>
		</g>
	</g>
	<g>
		<g>
			<path class="st3" d="M375.2,63c0.9,0.8,1.7,1.5,2.6,2.3C376.9,64.5,376,63.7,375.2,63z"/>
		</g>
	</g>
	<g>
		<g>
			<path class="st3" d="M371.1,59.6c1,0.8,1.9,1.6,2.9,2.4C373,61.1,372.1,60.3,371.1,59.6z"/>
		</g>
	</g>
	<g>
		<g>
			<path class="st3" d="M366.8,56.2c1.1,0.9,2.2,1.7,3.3,2.6C369.1,58,368,57.1,366.8,56.2z"/>
		</g>
	</g>
	<g>
		<g>
			<path class="st3" d="M349.1,44.8c6.4,3.5,12.3,7.4,17.7,11.4C361.4,52.2,355.5,48.4,349.1,44.8z"/>
		</g>
	</g>
	<g>
		<g>
			<path class="st3" d="M379,66.4c0.8,0.7,1.6,1.5,2.4,2.2C380.6,67.9,379.8,67.2,379,66.4z"/>
		</g>
	</g>
	<g>
		<g>
			<path class="st3" d="M298.2,25.7c12.8,2.9,24.5,6.7,35.1,11.3C322.7,32.4,311,28.6,298.2,25.7z"/>
		</g>
	</g>
	<g>
		<g>
			<path class="st4" d="M318.4,104c-37.4-29.7-21.1-76.9-20.6-78.3c-0.9-0.2-1.9-0.4-2.8-0.6c-71.3-14.8-124.4,12.6-145.7,27.4
				c-21.4,14.8-24.6,33.7-32.2,48.3c-7.7,14.5-33.8,17.6-40.2,19.9c-6.4,2.3-0.8,9.9-0.8,9.9s-1.9,0-3.1,1.3
				c4.8,3.3,11.1,7.2,19.5,12.1c33,19.2,89.2,67.8,174.8,73.6c55.4,3.7,88.5-12.7,100.7-32.5c2.1-3.3,4.3-8.6,6.6-15.1
				C367.7,150.4,349.9,129,318.4,104z"/>
		</g>
	</g>
	<g>
		<g>
			<path class="st3" d="M384.3,71.6c-0.5-0.6-1.1-1.1-1.6-1.6C383.2,70.5,383.7,71.1,384.3,71.6C384.3,71.6,384.3,71.6,384.3,71.6z"
				/>
		</g>
	</g>
	<g>
		<g>
			<path class="st3" d="M344.3,42.2c1.5,0.8,3,1.6,4.5,2.4C347.4,43.8,345.9,43,344.3,42.2z"/>
		</g>
	</g>
	<g>
		<g>
			<path class="st5" d="M343.7,41.9c0.2,0.1,0.4,0.2,0.6,0.3C344.1,42.1,343.9,42,343.7,41.9z"/>
		</g>
	</g>
	<g>
		<g>
			<path class="st5" d="M297.7,25.6L297.7,25.6c0.2,0,0.3,0.1,0.5,0.1C298,25.7,297.9,25.7,297.7,25.6z"/>
		</g>
	</g>
	<g>
		<g>
			<path class="st5" d="M338.5,39.4c0.2,0.1,0.4,0.2,0.6,0.3C338.9,39.6,338.7,39.5,338.5,39.4z"/>
		</g>
	</g>
	<g>
		<g>
			<path class="st5" d="M333.3,37c0.1,0,0.2,0.1,0.3,0.1C333.5,37.1,333.4,37.1,333.3,37z"/>
		</g>
	</g>
	<g>
		<g>
			<path class="st5" d="M366.8,56.2C366.8,56.2,366.8,56.2,366.8,56.2C366.8,56.2,366.8,56.2,366.8,56.2z"/>
		</g>
	</g>
	<g>
		<g>
			<path class="st5" d="M377.7,65.2c0.4,0.4,0.9,0.8,1.3,1.2C378.6,66,378.2,65.6,377.7,65.2z"/>
		</g>
	</g>
	<g>
		<g>
			<path class="st2" d="M410.7,120.6c-2.4-15.6-11.2-33-26.5-49c0.6,2.4,1.2,4.8,1.5,7.2c4.2,27.8-3.4,67.7-11.4,91.1
				c1.4,4,2.3,7.9,2.8,11.8c2.6,22.5-1.7,38.3-1.7,38.3s0.9-0.4,2.3-1c4-4,7.2-7.6,9.5-10.3C398.9,194.9,416.1,156.2,410.7,120.6z"
				/>
		</g>
	</g>
	<g>
		<g>
			<path class="st5" d="M348.8,44.6c0.1,0.1,0.2,0.1,0.3,0.2C349,44.7,348.9,44.7,348.8,44.6z"/>
		</g>
	</g>
	<g>
		<g>
			<path class="st5" d="M381.4,68.7c0.4,0.4,0.8,0.8,1.3,1.3C382.2,69.5,381.8,69.1,381.4,68.7z"/>
		</g>
	</g>
	<g>
		<g>
			<path class="st5" d="M374,61.9c0.4,0.3,0.8,0.7,1.2,1C374.8,62.6,374.4,62.3,374,61.9z"/>
		</g>
	</g>
	<g>
		<g>
			<path class="st5" d="M370.2,58.8c0.3,0.2,0.6,0.5,0.9,0.7C370.8,59.3,370.5,59.1,370.2,58.8z"/>
		</g>
	</g>
	<g>
		<g>
			<path class="st5" d="M385.8,78.8c-0.4-2.3-0.9-4.7-1.5-7.2c-0.5-0.6-1.1-1.1-1.6-1.7c-0.4-0.4-0.8-0.9-1.3-1.3
				c-0.8-0.8-1.6-1.5-2.4-2.2c-0.4-0.4-0.8-0.8-1.3-1.2c-0.8-0.8-1.7-1.5-2.6-2.3c-0.4-0.3-0.8-0.7-1.2-1c-0.9-0.8-1.9-1.6-2.9-2.4
				c-0.3-0.2-0.6-0.5-0.9-0.7c-1.1-0.9-2.2-1.7-3.3-2.6c0,0,0,0,0,0c-5.4-4-11.3-7.9-17.7-11.4c-0.1-0.1-0.2-0.1-0.3-0.2
				c-1.5-0.8-3-1.6-4.5-2.4c-0.2-0.1-0.4-0.2-0.6-0.3c-1.5-0.8-3-1.5-4.6-2.3c-0.2-0.1-0.4-0.2-0.6-0.3c-1.6-0.8-3.2-1.5-4.9-2.2
				c-0.1,0-0.2-0.1-0.3-0.1c-10.6-4.6-22.3-8.4-35.1-11.3c-0.2,0-0.3-0.1-0.5-0.1c-0.5,1.4-16.7,48.6,20.6,78.3
				c31.5,25,49.3,46.5,56,65.9C382.4,146.5,390,106.6,385.8,78.8z"/>
		</g>
	</g>
	<g>
		<g>
			<path class="st0" d="M408.3,162.1c3.1-13.2,4.5-27.6,2.4-41.5c-4.5-29.4-32-65.4-81.8-85.4c-1.9,16.7-0.2,43.3,24,62.6
				C383.5,122.1,401.2,143.1,408.3,162.1z"/>
		</g>
	</g>
	<g>
		<g>
			<path class="st6" d="M190.2,65c0,1,1.1,1.4,1.4,0.3c2.9-9.2,3.5-19,9.1-27.2c3.1-4.5,8.1-8,11-12.6c-3,0.7-6,1.4-8.8,2.2
				C194.3,38.1,189.7,50.5,190.2,65z"/>
		</g>
	</g>
	<g>
		<g>
			<path class="st6" d="M191.9,93.9c0.1,1.5,1.4,1.3,1.7,0c4.2-16.1,4.7-30.8,14.5-45.1c5.8-8.5,12.5-15.8,15.3-25.6
				c-2.3,0.4-4.6,0.8-6.9,1.3c-5.4,11.7-13.9,21.3-19,33.2C192.7,68.9,191,81.8,191.9,93.9z"/>
		</g>
	</g>
	<g>
		<g>
			<path class="st6" d="M192,129.4c0,1.3,1.2,1,1.4,0c5.9-23.9,7.9-47.1,22-68.3c8.5-12.7,20.8-24.3,22.5-39.7
				c-2.4,0.2-4.8,0.5-7.2,0.7c-7.7,18.9-21.6,33.3-29.4,52.3C194.3,91.4,191.9,111.2,192,129.4z"/>
		</g>
	</g>
	<g>
		<g>
			<path class="st6" d="M212.4,85c-8.9,19.4-11.9,43.7-10.7,64.9c0.1,1.1,1.1,1,1.3,0c6.3-27.3,6.7-52,23.5-76.1
				c11.2-16,24.2-33.1,24.2-53.1c-2.8,0-5.5,0.2-8.2,0.3c-2.7,10.8-4.8,21.3-10.4,31.6C226.2,63.9,217.8,73.4,212.4,85z"/>
		</g>
	</g>
	<g>
		<g>
			<path class="st6" d="M251.6,47.1c-5,15.2-14.6,27.3-22,41.2c-11.1,20.8-17.2,44.5-13.7,68.1c0.2,1.1,1.3,0.5,1.4-0.3
				c4.4-30.8,12-54.8,29-81.2c10.5-16.2,18.2-34.6,19.4-53.8c-3-0.2-6.1-0.3-9-0.4C255.5,29.6,254.5,38.4,251.6,47.1z"/>
		</g>
	</g>
	<g>
		<g>
			<path class="st1" d="M266.3,62.6c-3.3,9.4-9.8,16.6-15.1,24.7c-15.7,23.7-25.4,53.8-20.5,82.4c0.2,1.1,1.3,0.6,1.5-0.3
				c4.7-30.1,9.8-56.1,28-81.7c6.8-9.5,13.5-18.3,16.2-29.9c2.9-12.9,3-23.6,8-34.7c-3.1-0.5-6.2-0.9-9.2-1.2
				c-2.4,4-3.7,8.8-4.8,14.3C268.6,45,269.2,54.1,266.3,62.6z"/>
		</g>
	</g>
	<g>
		<g>
			<path class="st1" d="M286.4,55.2c-1.1,18.8-2.3,31-13.7,46.7c-16.7,22.9-33.4,43-25.8,73.2c0.3,1.1,1.2,0.3,1.2-0.5
				c0.8-18,4.2-33.3,14.8-48.4c8.3-11.8,19.1-21.9,25.7-34.8c6.9-13.5,4.1-26.5,6.4-40.8c1.4-8.6,6-15.8,9-23.4
				c-2.7-0.7-5.5-1.4-8.4-2C292.1,34.9,287.1,44.1,286.4,55.2z"/>
		</g>
	</g>
	<g>
		<g>
			<path class="st1" d="M310.7,54.5c-1,19.7-2.2,35.5-13.2,52.7c-15.4,23.8-40.2,46.1-32.5,77.2c0.3,1.4,1.6,0.4,1.6-0.6
				c0.7-34.2,26.8-53.5,42.5-81c12.3-21.4,9-46.2,15.2-69.3c-2.8-1-5.6-2-8.5-2.9C312,37.6,311.1,45.9,310.7,54.5z"/>
		</g>
	</g>
	<g>
		<g>
			<path class="st1" d="M323.2,109.9c-7.4,24.4-50.3,48.6-30.1,76.4c0.7,1,1.7-0.8,1.5-1.5c-8.6-32.1,25.3-44,34.8-70.5
				c4.9-13.8,3.4-28.7,5.5-42.9c1.6-11.1,5.6-19.7,11.6-28.2c-2.1-1.1-4.3-2.2-6.5-3.3C322,56.2,329.6,88.7,323.2,109.9z"/>
		</g>
	</g>
	<g>
		<g>
			<path class="st1" d="M345.2,112.8c-7.6,24.4-28.3,38.8-28.8,65.9c0,1,1.1,1.3,1.4,0.3c4.2-13.5,9-26,17.2-37.5
				c5.7-8.1,11.7-15.3,15.5-24.5c9.2-22.5,3.2-45.1,5.1-68.4c-1.4-0.9-2.9-1.8-4.4-2.6C342.5,66.8,352,90.9,345.2,112.8z"/>
		</g>
	</g>
	<g>
		<g>
			<path class="st6" d="M371.1,108.9c-5.9,22.6-28.8,38.2-27.8,62.5c0,1.2,1.1,1,1.3,0c6-25.7,29.6-40.8,34.8-66.7
				c2.3-11.2,2.7-23.4,2.5-35.6c-3.1-3-6.4-6-9.9-8.9C372.6,76.5,375.2,93.1,371.1,108.9z"/>
		</g>
	</g>
	<g>
		<g>
			<path class="st3" d="M149.2,52.4c0.8-0.6,1.7-1.2,2.7-1.8C150.9,51.2,150,51.8,149.2,52.4z"/>
		</g>
	</g>
	<g>
		<g>
			<path class="st3" d="M152.4,50.2c0.9-0.6,1.9-1.2,2.9-1.9C154.3,49,153.4,49.6,152.4,50.2z"/>
		</g>
	</g>
	<g>
		<g>
			<path class="st7" d="M72.8,131.8c-1.6,1.6-2.2,5.3,3.1,13.6c8.6,13.5,21.2,14.3,41.5,35.8c5.2-3.6,14-7.5,28.6-8.8
				c0.7-0.1,1.2-0.2,1.9-0.3c-23-10.4-43-20.9-55.6-28.2C83.9,139,77.6,135.1,72.8,131.8z"/>
		</g>
	</g>
	<g>
		<g>
			<path class="st7" d="M155.4,48.3C155.4,48.3,155.4,48.3,155.4,48.3C155.4,48.3,155.4,48.3,155.4,48.3z"/>
		</g>
	</g>
	<g>
		<g>
			<path class="st7" d="M151.8,50.6c0.2-0.1,0.4-0.3,0.6-0.4C152.2,50.3,152,50.5,151.8,50.6z"/>
		</g>
	</g>
	<g>
		<g>
			<path class="st7" d="M164.1,105.9c-14.9-26.7-0.7-62-0.7-62s-0.2,0-0.4,0c-2.7,1.5-5.3,3-7.6,4.4c0,0,0,0,0,0
				c-1,0.6-2,1.2-2.9,1.9c-0.2,0.1-0.4,0.3-0.6,0.4c-0.9,0.6-1.8,1.2-2.7,1.8c-21.4,14.8-24.6,33.7-32.2,48.3
				c-7.7,14.5-33.8,17.6-40.2,19.9c-6.4,2.3-0.8,9.9-0.8,9.9s-0.1,0-0.3,0c0,0,0,0,0,0c-0.2,0-0.4,0.1-0.7,0.1c0,0,0,0-0.1,0
				c-0.3,0.1-0.6,0.2-1,0.4c0,0,0,0-0.1,0c-0.3,0.2-0.7,0.4-1,0.7l0,0c4.8,3.3,11.1,7.2,19.5,12.1c12.6,7.3,32.7,17.8,55.6,28.2
				C175.2,168.1,178.6,132,164.1,105.9z"/>
		</g>
	</g>
	<g>
		<g>
			<path class="st8" d="M125.3,108.6c-7.1,9.7,4.4,28.8,19.8,14C160.5,107.9,136.7,93,125.3,108.6z"/>
		</g>
	</g>
	<g>
		<g>
			<path class="st6" d="M164,43.6c-15.2,27.7-5.8,49.1,1.4,77.2c5.7,22.4,1,46-24.1,52.1c-9.5,2.3-17.9,1.8-23.9,8.3
				c-0.9,1,1.1,2.7,1.9,2c10.1-8.7,30.7-5.8,40.9-15.2c7.9-7.2,11.6-17.7,11.9-28.2c0.5-15.4-6.7-28.9-10.7-43.3
				c-5-17.8-2.8-35,3.3-52.1C164.9,43.8,164.5,42.8,164,43.6L164,43.6z"/>
		</g>
	</g>
	<g>
		<g>
			<path class="st6" d="M142.7,114.6c0,3.9-3.2,7-7,7c-3.9,0-7-3.2-7-7c0-3.9,3.2-7,7-7C139.5,107.6,142.7,110.8,142.7,114.6z"/>
		</g>
	</g>
	<g>
		<g>
			<circle class="st8" cx="137.8" cy="119.5" r="3.5"/>
		</g>
	</g>
	<g>
		<g>
			<g>
				<path class="st9" d="M69.9,134.8c0.9,14,16.6,20.3,25.9,28.4c13.2,11.4,23.6,25.8,37.5,36.5c28.1,21.6,65.8,34,100.3,40.4
					c36.7,6.8,79.6,9.2,115.3-3.8c26.5-9.7,47.2-31.8,57.5-57.8c11.3-28.6,9.5-62.6-7.9-88.6c-0.4-0.6-3.7-1.9-3-0.6
					c12.3,23.4,15.7,48.7,8.6,74.4c-6.6,24-21.5,45.9-42.7,59.5c-28.2,18-65.9,19.2-98.3,16.8c-37.6-2.7-74.9-12.5-108.2-30.4
					c-17.1-9.2-30.3-21.6-43.7-35.4c-5.6-5.8-11.4-11.5-17.8-16.4c-8.3-6.3-18-11.3-21-22C72.4,135.1,69.8,133.8,69.9,134.8
					L69.9,134.8z"/>
			</g>
		</g>
	</g>
	<g>
		<g>
			<path class="st6" d="M378.8,131.2c-7.9,13-17.4,24.8-17.8,40.6c0,1.4,1.4,1.7,1.9,0.4c10.4-27.3,36.8-50.8,37.2-80
				c-2.5-4.2-5.5-8.5-8.8-12.7C392,98.6,389.2,113.9,378.8,131.2z"/>
		</g>
	</g>
	<g>
		<g>
			<g>
				<path class="st6" d="M82,121.4c-1.5-3.2-4.6-6.2-8.4-5.1c-4.7,1.4-3.2,7.7-1.5,11c0.2,0.4,0.4,0.7,0.7,1.1
					c-2-0.5-4.1-0.4-5.8,0.8c-3.7,2.7-0.3,6.6,2.5,8.2c5.2,3,10.5,3.5,16.2,5c0.1,0,0.2,0,0.3,0c0.7,0.2,1.6,0.1,1.6-0.7
					C87.2,135.2,84.6,127.2,82,121.4z M75.6,119.9C75.6,119.9,75.6,119.9,75.6,119.9C75.6,119.9,75.6,119.9,75.6,119.9z"/>
			</g>
		</g>
	</g>
	<g>
		<g>
			<g>
				<path class="st5" d="M373,46c1.1-0.7,2.2-1.4,3.3-2.1c1-0.6,2.1-1,2.9-1.8c0.5-0.5-0.6-0.9-0.9-0.8c-2.4,0.5-4.7,2.4-6.4,4.1
					C371.4,46,372.7,46.3,373,46L373,46z"/>
			</g>
		</g>
	</g>
	<g>
		<g>
			<g>
				<path class="st5" d="M378.4,53.7c4-3.6,8.6-5.4,13.1-8.1c0.6-0.4-0.3-0.8-0.6-0.7c-5,0.9-9.2,4.1-13,7.4
					C377.4,52.8,377.8,54.3,378.4,53.7L378.4,53.7z"/>
			</g>
		</g>
	</g>
	<g>
		<g>
			<g>
				<path class="st5" d="M389.5,64.2c4.6-4.2,10-6.1,15.3-9.1c1-0.6-0.4-1.2-1-1.1c-5.7,1-10.9,4.9-14.8,8.9
					C388.6,63.3,388.9,64.8,389.5,64.2L389.5,64.2z"/>
			</g>
		</g>
	</g>
	<g>
		<g>
			<g>
				<path class="st5" d="M402.2,77c4.5-4.5,9.5-6.8,15.4-8.9c1.1-0.4,0.3-1.4-0.6-1.4c-3.1,0.2-6.1,1.4-8.9,3
					c-2.2,1.3-5.5,3.4-6.7,5.8C401.2,76,401.4,77.8,402.2,77L402.2,77z"/>
			</g>
		</g>
	</g>
	<g>
		<g>
			<g>
				<path class="st5" d="M410.4,90.6c7.1-5.5,15-7.6,23.4-10.2c1.2-0.4,0.3-1.5-0.6-1.5c-8.8,0.3-16.7,4.9-23.4,10.2
					C409.4,89.6,409.7,91.2,410.4,90.6L410.4,90.6z"/>
			</g>
		</g>
	</g>
	<g>
		<g>
			<g>
				<path class="st5" d="M417.6,105.4c3.2-2.2,6.8-4,10.3-5.7c2.7-1.3,5.7-2.1,8.4-3.5c1.1-0.6-0.5-1.3-1.1-1.2
					c-6.7,1-12.5,5.4-18,8.8C416.5,104.3,416.8,106,417.6,105.4L417.6,105.4z"/>
			</g>
		</g>
	</g>
	<g>
		<g>
			<g>
				<path class="st5" d="M366.6,40.1c0.7-0.5,1.4-0.9,1.5-1.8c0.1-0.6-1-0.6-1.3-0.5c-0.8,0.3-1.2,0.8-1.8,1.5
					C364.3,40.1,366,40.5,366.6,40.1L366.6,40.1z"/>
			</g>
		</g>
	</g>
	<g>
		<g>
			<g>
				<path class="st5" d="M401.2,200.4c1.6,3.6,3.5,6.9,4.9,10.6c1.4,3.8,2.3,7.7,3.5,11.6c0.2,0.6,1.8,0.6,1.7-0.2
					c-0.6-8-4.7-16.4-9.4-22.8C401.4,198.9,401,199.9,401.2,200.4L401.2,200.4z"/>
			</g>
		</g>
	</g>
	<g>
		<g>
			<g>
				<path class="st5" d="M393.3,213.1c-0.4,7.3,3.2,17.5,7.9,23c0.3,0.4,1.4,0.3,1.3-0.4c-1-3.8-3.1-7.4-4.5-11.2
					c-1.4-3.9-2.2-8-3.7-11.9C394,212,393.4,212.6,393.3,213.1L393.3,213.1z"/>
			</g>
		</g>
	</g>
	<g>
		<g>
			<g>
				<path class="st5" d="M377.7,226.3c-2.1,5.7,1.8,15.7,5.9,19.8c0.4,0.4,1.9,0.4,1.6-0.4c-1-3.2-2.9-6-3.9-9.2
					c-1.1-3.3-1.2-7-2.7-10.1C378.4,225.8,377.9,225.7,377.7,226.3L377.7,226.3z"/>
			</g>
		</g>
	</g>
	<g>
		<g>
			<g>
				<path class="st5" d="M364,234.2c-2.5,4.5-1.9,12.6,1.5,16.6c0.3,0.4,1.6,0.4,1.5-0.3c-0.2-2.8-1.4-5.5-1.6-8.3
					c-0.3-2.6,0.2-5.2-0.4-7.7C364.8,234.2,364.3,233.6,364,234.2L364,234.2z"/>
			</g>
		</g>
	</g>
	<g>
		<g>
			<g>
				<path class="st5" d="M345.7,242.3c-2.4,3.9-2.4,10.3,1,13.8c0.4,0.4,1.9,0.4,1.7-0.5c-0.6-2.2-1.7-4.2-1.9-6.5
					c-0.2-2.2,0.5-4.3,0.2-6.4C346.6,242.2,346,241.7,345.7,242.3L345.7,242.3z"/>
			</g>
		</g>
	</g>
	<g>
		<g>
			<g>
				<path class="st5" d="M329.1,245.6c-2.7,3.8-2.9,9-0.3,12.9c0.4,0.6,2.3,0.4,2-0.5c-0.7-2-1.3-4-1.3-6.2
					c-0.1-1.9,0.7-3.7,0.7-5.6C330.1,245.7,329.6,245,329.1,245.6L329.1,245.6z"/>
			</g>
		</g>
	</g>
	<g>
		<g>
			<g>
				<path class="st5" d="M313.1,250.6c-1.9,2.4-2.8,6.5-0.3,8.9c0.3,0.3,1.9,0.5,1.7-0.3c-0.5-2.9-1.3-5.3,0.4-8.1
					C315.4,250.3,313.5,250.1,313.1,250.6L313.1,250.6z"/>
			</g>
		</g>
	</g>
	<g>
		<g>
			<g>
				<path class="st5" d="M294.5,251.8C294.6,251.6,294.6,251.6,294.5,251.8c-0.1,0.3-0.2,0.6-0.2,0.8c-0.1,0.6-0.3,1.1-0.3,1.7
					c-0.1,1.2,0,2.3,0.5,3.4c0.3,0.7,1.7,0.6,1.8-0.2c0.3-1.8,0.2-3.7,0.6-5.5C297,251.1,294.8,251,294.5,251.8L294.5,251.8z"/>
			</g>
		</g>
	</g>
	<g>
		<g>
			<g>
				<path class="st5" d="M279.9,250.6C280,250.4,280,250.4,279.9,250.6c-0.1,0.2-0.2,0.5-0.3,0.7c-0.2,0.5-0.3,1-0.3,1.5
					c-0.1,1,0.1,1.9,0.6,2.8c0.3,0.4,1.4,0.4,1.6-0.1c0.5-1.4,0.4-3,0.7-4.5C282.5,249.9,280.3,249.7,279.9,250.6L279.9,250.6z"/>
			</g>
		</g>
	</g>
</g>
</svg>
