<?xml version="1.0" encoding="utf-8"?>
<!-- Generator: Adobe Illustrator 23.0.1, SVG Export Plug-In . SVG Version: 6.00 Build 0)  -->
<svg version="1.1" id="Layer_1" xmlns="http://www.w3.org/2000/svg" xmlns:xlink="http://www.w3.org/1999/xlink" x="0px" y="0px"
	 viewBox="0 0 141.7 141.7" style="enable-background:new 0 0 141.7 141.7;" xml:space="preserve">
<style type="text/css">
	.st0{fill:#3550A1;}
	.st1{fill:#FFFFFF;}
</style>
<g>
	
		<ellipse transform="matrix(1 -1.129937e-03 1.129937e-03 1 -7.996000e-02 8.168378e-02)" class="st0" cx="72.3" cy="70.8" rx="55.7" ry="55.5"/>
	<path class="st1" d="M117,20.3L117,20.3c0,4.5,3.4,8.2,7.9,8.4l0,0c5.7,0.3,9.4,6.1,7.3,11.4l0,0c-1.7,4.1,0.2,8.9,4.3,10.7l0,0
		c5.2,2.4,6.6,9.1,2.7,13.3l0,0c-3,3.3-3,8.3,0.1,11.5l0,0c4,4.1,2.8,10.9-2.3,13.4l0,0c-4,1.9-5.8,6.7-4,10.8l0,0
		c2.3,5.2-1.3,11.2-7,11.6l0,0c-4.5,0.4-7.8,4.2-7.7,8.6l0,0c0.2,5.7-5.3,9.9-10.7,8.3l0,0c-4.3-1.3-8.8,1.1-10.3,5.3l0,0
		c-1.9,5.4-8.5,7.4-13,3.9l0,0c-3.5-2.7-8.6-2.2-11.5,1.2l0,0c-3.7,4.4-10.6,3.8-13.6-1.1l0,0c-2.3-3.8-7.2-5.1-11.2-3v0
		c-5,2.7-11.3-0.3-12.2-5.9l0,0c-0.8-4.4-4.9-7.4-9.3-6.8l0,0c-5.7,0.7-10.4-4.3-9.3-9.9h0c0.9-4.4-1.9-8.7-6.2-9.7l0,0
		c-5.6-1.4-8.1-7.8-5.1-12.6h0C8.2,86,7.2,81,3.6,78.4h0c-4.7-3.3-4.8-10.2-0.2-13.6l0,0c3.6-2.7,4.5-7.7,2-11.4l0,0
		c-3.2-4.7-0.8-11.2,4.8-12.7l0,0c4.3-1.2,6.9-5.5,6-9.9l0,0c-1.3-5.6,3.3-10.7,9-10.1l0,0c4.5,0.5,8.5-2.7,9.1-7.1l0,0
		c0.9-5.6,7-8.8,12.1-6.2l0,0c4,2,8.9,0.6,11.1-3.3l0,0c2.8-5,9.7-5.7,13.5-1.4l0,0c3,3.3,8.1,3.7,11.5,0.9l0,0
		C87,0.1,93.6,1.9,95.6,7.3l0,0c1.6,4.2,6.2,6.4,10.4,5l0,0C111.5,10.5,117.1,14.6,117,20.3z M44.7,49.4c0,2.6,2.1,4.7,4.7,4.7
		s4.7-2.1,4.7-4.7c0-2.6-2.1-4.7-4.7-4.7C46.8,44.7,44.7,46.8,44.7,49.4z M50.8,70.3c0,10.9,8.9,19.7,19.8,19.7
		c10.9,0,19.8-8.9,19.7-19.7c0-10.9-8.9-19.7-19.8-19.7C59.6,50.5,50.8,59.4,50.8,70.3z M83.2,70.2c0,7-5.7,12.6-12.6,12.6
		s-12.7-5.7-12.7-12.6c0-7,5.7-12.6,12.6-12.6S83.2,63.3,83.2,70.2z M54.1,30.5C40.8,30.5,30,41.3,30,54.6l0,31.7
		c0,13.3,10.8,24,24.1,24l31.8,0c13.3,0,24.1-10.8,24.1-24.1l0-31.7c0-13.3-10.8-24-24.1-24L54.1,30.5z M85.9,38
		c9.1,0,16.6,7.4,16.6,16.5l0,31.7c0,9.1-7.4,16.5-16.5,16.5l-31.8,0c-9.1,0-16.6-7.4-16.6-16.5l0-31.7C37.5,45.4,45,38,54.1,38
		L85.9,38z"/>
</g>
</svg>
