<?xml version="1.0" encoding="utf-8"?>
<!-- Generator: Adobe Illustrator 23.0.1, SVG Export Plug-In . SVG Version: 6.00 Build 0)  -->
<svg version="1.1" id="Layer_1" xmlns="http://www.w3.org/2000/svg" xmlns:xlink="http://www.w3.org/1999/xlink" x="0px" y="0px"
	 viewBox="0 0 235 62.4" style="enable-background:new 0 0 235 62.4;" xml:space="preserve">
<style type="text/css">
	.st0{fill:#FFCE45;}
	.st1{font-family:'Impact';}
	.st2{font-size:50.52px;}
	.st3{fill:#FFFFFF;}
	.st4{font-size:38.1px;}
	.st5{fill:none;stroke:#FFFFFF;stroke-width:4.25;stroke-miterlimit:10;}
</style>
<title>logo</title>
<text transform="matrix(1.16 0 0 1 -4.882813e-04 45.6701)" class="st0 st1 st2">Travel</text>
<text transform="matrix(1 0 0 1 172.05 39.66)" class="st3 st1 st4">me</text>
<path class="st3" d="M158.6,35.6L158.6,35.6c2.9,0,5.3,2.4,5.3,5.3l0,0c0,2.9-2.4,5.3-5.3,5.3h0c-2.9,0-5.3-2.4-5.3-5.3l0,0
	C153.2,38,155.6,35.6,158.6,35.6z"/>
<path class="st5" d="M158.6,31.3V14.7c0-7,5.7-12.6,12.6-12.6h49c7,0,12.6,5.7,12.6,12.6v22.4c0,7-5.7,12.6-12.6,12.6h-49
	c-2.3,0-4.5-0.6-6.5-1.8"/>
</svg>
