<?xml version="1.0" encoding="utf-8"?>
<!-- Generator: Adobe Illustrator 23.0.1, SVG Export Plug-In . SVG Version: 6.00 Build 0)  -->
<svg version="1.1" id="Layer_1" xmlns="http://www.w3.org/2000/svg" xmlns:xlink="http://www.w3.org/1999/xlink" x="0px" y="0px"
	 viewBox="0 0 251.6 81.6" style="enable-background:new 0 0 251.6 81.6;" xml:space="preserve">
<style type="text/css">
	.st0{display:none;fill:#AAAAAA;}
	.st1{fill:#FFFFFF;}
	.st2{font-family:'Impact';}
	.st3{font-size:13.3742px;}
	.st4{fill:none;stroke:#FFFFFF;stroke-width:5.6693;stroke-miterlimit:10;}
	.st5{enable-background:new    ;}
	.st6{fill:#FFCE45;stroke:#FFFFFF;stroke-width:1.4173;stroke-miterlimit:10;}
	.st7{font-size:37.4019px;}
	.st8{fill:none;stroke:#FFFFFF;stroke-width:2.8346;stroke-miterlimit:10;}
</style>
<rect class="st0" width="251.6" height="81.6"/>
<title>logo</title>
<text transform="matrix(1.16 0 0 1 72.9712 76.4225)" class="st1 st2 st3">{ Your best choice }</text>
<g>
	
		<image style="overflow:visible;" width="131" height="104" xlink:href="5F78FDD2.png"  transform="matrix(1 0 0 1 151.0836 -16.1118)">
	</image>
	<g>
		<path class="st4" d="M174.3,35.3V19c0-6.9,5.6-12.4,12.4-12.4h48.1c6.9,0,12.4,5.6,12.4,12.4v22c0,6.9-5.6,12.4-12.4,12.4h-63.1"
			/>
	</g>
</g>
<g class="st5">
	
		<image style="overflow:visible;" width="191" height="103" xlink:href="5F78FDD3.png"  transform="matrix(1 0 0 1 -9.9164 -16.1118)">
	</image>
	<g>
		<g>
			<path class="st6" d="M24.3,53.8c-0.9,0-3,2.3-3-14.4c0-12.8,2.1-21,2.1-23.1c0-1.7,0.2-2.8-1-2.8c-3.4,0-9.5,6.6-10.3,6.6
				c-0.4,0-0.7,0.2-0.7-1.4c0-1.8,1.3-8.9,2-10.5c0.5-1.1,7-3.2,13.5-3.2c7.8,0,14.7,2.5,14.7,5.2c0,2.5-2.4,8-2.9,8
				c-0.8,0-2.8-4.8-6.3-4.8c-2.9,0-3.4,11-3.4,16.3c0,14.8,2.7,22,2.7,23.1c0,1.3-1.7,1-2.4,1H24.3z"/>
			<path class="st6" d="M46.2,53.8c-1.8,0-2.7,1.8-2.7-17.3c0-15.9-0.4-19.5,1-19.6h4c0.7,0,1.6-0.3,1.6,0.8c0.1,0.9,0.2,2,1.2,2
				c0.7,0,1.5-0.9,2.6-1.8c1-0.9,2.2-1.8,3.5-1.8c2.5,0,4.5,2.5,4.5,5.6c0,4-2.8,6.4-4.2,6.4c-0.6,0,0.1-3.9-3.2-3.9
				c-4.1,0-4.3,7.8-4.3,11.2c0,11.4,1.6,16.3,1.6,17.3c0,0.9-1.1,0.9-1.6,0.9H46.2z"/>
			<path class="st6" d="M74.8,29.9c1.4-0.3,2.5-0.6,2.5-2.5c0-2.9-2.6-4.5-4.7-4.5c-4.9,0-4.2,4.9-5.3,4.9c-1.5,0-3.2-2.2-3.2-4.7
				c0-4.3,4-7,8.4-7c1.5,0,8.2-0.1,10.6,8c1,3.3,1.1,20.4,1.1,22.4c0,2.5,0.4,4,0.4,6c0,1.2-4.5,1.3-8.8,1.3
				c-11.6,0-12.5-7.1-12.5-10.6C63.4,36,69.4,31,74.8,29.9z M77.8,39.9c0-2,0.3-4.4-2-4.4c-2.8,0-5.8,2.9-5.8,6.4
				c0,3.2,2.4,5.1,4.9,5.1c2.8,0,2.9-1.7,2.9-4.5V39.9z"/>
			<path class="st6" d="M108.8,17c1.7,0,2,0,2,3.3c0,24.2-10.5,34.4-12.1,34.4c-1.1,0-10.8-9.7-10.8-35.9c0-1.7,0.2-1.8,1.5-1.8h3.7
				c0.7,0,2.1-0.3,2.1,0.9c0,1.3-0.2,2.5-0.2,5.1c0,14.2,3.5,19.7,4.6,19.7c1.7,0,4.8-7.9,4.8-19.1c0-2-0.3-3.6-0.3-5.4
				c0-1.3,0.5-1.2,1.4-1.2H108.8z"/>
			<path class="st6" d="M112.8,36.9c0-13.9,6.5-20.8,12.9-20.8c5.3,0,9.8,3.6,9.8,10.4c0,12.4-15.5,9.8-15.5,15.8
				c0,2.7,3.7,4.7,6.1,4.7c7.9,0,7.9-7.2,8.6-7.2c0.7,0,0.9,3,0.9,3.5c0,7.3-4.7,11.5-10.5,11.5C116.4,54.7,112.8,46.1,112.8,36.9z
				 M119.3,31.2c0,0.6,0.2,1.3,0.9,1.3c0.6,0,9.4-2.3,9.4-5.2c0-2.8-2.2-4.4-4.1-4.4C121.6,22.9,119.3,27.9,119.3,31.2z"/>
			<path class="st6" d="M141.3,53.8c-1.7,0-1.5-19.3-1.5-20.6c0-2.7-0.2-28.5,2-28.5h4.6c0.5,0,2-0.2,2,1.1c0,0.3-2,8.6-2,23
				c0,15.8,1.8,23.6,1.8,24.3c0,1-1.3,0.7-1.8,0.7H141.3z"/>
		</g>
	</g>
</g>
<g>
	
		<image style="overflow:visible;" width="100" height="98" xlink:href="5F78FDD6.png"  transform="matrix(1 0 0 1 167.0836 -10.1118)">
	</image>
	<g>
		<text transform="matrix(1 0 0 1 187.4929 43.5085)" class="st1 st2 st7">me</text>
	</g>
</g>
<g>
	
		<image style="overflow:visible;" width="66" height="65" xlink:href="5F78FDD7.png"  transform="matrix(1 0 0 1 139.0836 25.8882)">
	</image>
	<g>
		<path class="st8" d="M166.5,47.7L166.5,47.7c2.8,0,5.2,2.4,5.2,5.2l0,0c0,2.8-2.4,5.2-5.2,5.2l0,0c-2.8,0-5.2-2.4-5.2-5.2l0,0
			C161.2,50.1,163.5,47.7,166.5,47.7z"/>
	</g>
</g>
</svg>
