<?xml version="1.0" encoding="utf-8"?>
<!-- Generator: Adobe Illustrator 23.0.1, SVG Export Plug-In . SVG Version: 6.00 Build 0)  -->
<svg version="1.1" id="Layer_1" xmlns="http://www.w3.org/2000/svg" xmlns:xlink="http://www.w3.org/1999/xlink" x="0px" y="0px"
	 viewBox="0 0 251.6 81.6" style="enable-background:new 0 0 251.6 81.6;" xml:space="preserve">
<style type="text/css">
	.st0{display:none;fill:#AAAAAA;}
	.st1{fill:#FFFFFF;}
	.st2{font-family:'Impact';}
	.st3{font-size:13.3742px;}
	.st4{fill:none;stroke:#FFFFFF;stroke-width:4.252;stroke-miterlimit:10;}
	.st5{enable-background:new    ;}
	.st6{fill:#FFCE45;stroke:#FFFFFF;stroke-width:1.4173;stroke-miterlimit:10;}
	.st7{font-size:31.7526px;}
	.st8{fill:none;stroke:#FFFFFF;stroke-width:2.8346;stroke-miterlimit:10;}
</style>
<rect class="st0" width="251.6" height="81.6"/>
<title>logo</title>
<text transform="matrix(1.16 0 0 1 72.9712 76.4225)" class="st1 st2 st3">{ Your best choice }</text>
<path class="st4" d="M179.9,37.2V22.6c0-6.2,4.7-11.1,10.3-11.1h40.2c5.7,0,10.3,5,10.3,11.1v19.7c0,6.2-4.7,11.1-10.3,11.1h-52.7"
	/>
<g class="st5">
	<path class="st6" d="M17.9,53.8c-1,0-3.4,2.3-3.4-14.4c0-12.8,2.4-21,2.4-23.1c0-1.7,0.3-2.8-1.1-2.8c-3.9,0-10.7,6.6-11.7,6.6
		c-0.5,0-0.8,0.2-0.8-1.4c0-1.8,1.5-8.9,2.3-10.5c0.5-1.1,7.9-3.2,15.3-3.2c8.8,0,16.6,2.5,16.6,5.2c0,2.5-2.7,8-3.3,8
		c-0.9,0-3.2-4.8-7.1-4.8c-3.3,0-3.9,11-3.9,16.3c0,14.8,3,22,3,23.1c0,1.3-2,1-2.7,1H17.9z"/>
	<path class="st6" d="M42.7,53.8c-2,0-3,1.8-3-17.3c0-15.9-0.4-19.5,1.1-19.6h4.5c0.8,0,1.8-0.3,1.9,0.8c0.1,0.9,0.2,2,1.3,2
		c0.8,0,1.8-0.9,2.9-1.8c1.1-0.9,2.5-1.8,3.9-1.8c2.8,0,5.1,2.5,5.1,5.6c0,4-3.1,6.4-4.8,6.4c-0.7,0,0.1-3.9-3.7-3.9
		c-4.6,0-4.9,7.8-4.9,11.2c0,11.4,1.9,16.3,1.9,17.3c-0.1,0.9-1.3,0.9-1.9,0.9H42.7z"/>
	<path class="st6" d="M75.2,29.9c1.6-0.3,2.8-0.6,2.8-2.5c0-2.9-2.9-4.5-5.3-4.5c-5.6,0-4.8,4.9-6,4.9c-1.8,0-3.7-2.2-3.7-4.7
		c0-4.3,4.5-7,9.6-7c1.8,0,9.2-0.1,12,8c1.1,3.3,1.3,20.4,1.3,22.4c0,2.5,0.4,4,0.4,6c0,1.2-5.1,1.3-10,1.3
		c-13.2,0-14.1-7.1-14.1-10.6C62.2,36,69,31,75.2,29.9z M78.5,39.9c0-2,0.3-4.4-2.3-4.4c-3.2,0-6.6,2.9-6.6,6.4
		c0,3.2,2.7,5.1,5.6,5.1c3.2,0,3.3-1.7,3.3-4.5V39.9z"/>
	<path class="st6" d="M113.7,17c1.9,0,2.3,0,2.3,3.3c0,24.2-11.9,34.4-13.7,34.4C101,54.7,90,45,90,18.8c0-1.7,0.2-1.8,1.7-1.8H96
		c0.8,0,2.4-0.3,2.4,0.9c0,1.3-0.3,2.5-0.3,5.1c0,14.2,4,19.7,5.3,19.7c1.9,0,5.5-7.9,5.5-19.1c0-2-0.3-3.6-0.3-5.4
		c0-1.3,0.5-1.2,1.6-1.2H113.7z"/>
	<path class="st6" d="M118.3,36.9c0-13.9,7.3-20.8,14.7-20.8c6,0,11.1,3.6,11.1,10.4c0,12.4-17.6,9.8-17.6,15.8
		c0,2.7,4.2,4.7,6.9,4.7c9,0,9-7.2,9.7-7.2c0.8,0,1,3,1,3.5c0,7.3-5.4,11.5-11.9,11.5C122.3,54.7,118.3,46.1,118.3,36.9z
		 M125.7,31.2c0,0.6,0.3,1.3,1,1.3c0.7,0,10.6-2.3,10.6-5.2c0-2.8-2.5-4.4-4.6-4.4C128.2,22.9,125.7,27.9,125.7,31.2z"/>
	<path class="st6" d="M150.6,53.8c-1.9,0-1.7-19.3-1.7-20.6c0-2.7-0.2-28.5,2.2-28.5h5.2c0.6,0,2.2-0.2,2.2,1.1
		c0,0.3-2.3,8.6-2.3,23c0,15.8,2.1,23.6,2.1,24.3c0,1-1.4,0.7-2,0.7H150.6z"/>
</g>
<text transform="matrix(1.098 0 0 1 188.4734 43.2146)" class="st1 st2 st7">me</text>
<path class="st8" d="M172.5,47.7L172.5,47.7c2.8,0,5.2,2.4,5.2,5.2l0,0c0,2.8-2.4,5.2-5.2,5.2l0,0c-2.8,0-5.2-2.4-5.2-5.2l0,0
	C167.2,50.1,169.5,47.7,172.5,47.7z"/>
<path class="st1" d="M179.9,34.6L179.9,34.6c1.2,0,2.2,1,2.2,2.3l0,0c0,1.2-1,2.3-2.2,2.3l0,0c-1.2,0-2.2-1-2.2-2.3l0,0
	C177.7,35.6,178.6,34.6,179.9,34.6z"/>
</svg>
