<?xml version="1.0" encoding="utf-8"?>
<!-- Generator: Adobe Illustrator 23.0.1, SVG Export Plug-In . SVG Version: 6.00 Build 0)  -->
<svg version="1.1" id="Layer_1" xmlns="http://www.w3.org/2000/svg" xmlns:xlink="http://www.w3.org/1999/xlink" x="0px" y="0px"
	 viewBox="0 0 141.7 141.7" style="enable-background:new 0 0 141.7 141.7;" xml:space="preserve">
<style type="text/css">
	.st0{fill:#FFFFFF;}
	.st1{fill:#344FA1;}
</style>
<g>
	<path class="st0" d="M120.8,117.7L120.8,117.7c-4.5-0.1-8.2,3.3-8.5,7.8l0,0c-0.4,5.7-6.3,9.3-11.5,7.1l0,0
		c-4.1-1.7-8.9,0.1-10.8,4.2l0,0c-2.4,5.2-9.2,6.4-13.3,2.5l0,0c-3.2-3.1-8.3-3.1-11.5,0l0,0c-4.1,3.9-10.9,2.7-13.3-2.5l0,0
		c-1.9-4.1-6.6-5.9-10.8-4.2l0,0c-5.3,2.2-11.1-1.5-11.5-7.2l0,0c-0.3-4.5-4.1-7.9-8.5-7.8l0,0c-5.7,0.1-9.9-5.4-8.2-10.9l0,0
		c1.3-4.3-0.9-8.8-5.1-10.4l0,0c-5.5-1.9-7.3-8.5-3.8-13l0,0c2.8-3.5,2.3-8.6-1.1-11.5l0,0C-1.3,68-0.7,61.1,4.2,58.2l0,0
		C8,55.9,9.4,51,7.4,47.1l0,0c-2.7-5.1,0.4-11.3,6-12.2l0,0c4.4-0.7,7.5-4.8,7-9.2l0,0c-0.7-5.7,4.4-10.3,10-9.2l0,0
		c4.4,0.9,8.7-1.8,9.8-6.1l0,0c1.4-5.5,7.9-8,12.6-4.9l0,0c3.7,2.4,8.7,1.5,11.3-2.1l0,0c3.3-4.6,10.2-4.6,13.6,0l0,0
		C80.3,7,85.3,8,89,5.5l0,0c4.8-3.1,11.2-0.6,12.6,4.9l0,0c1.1,4.3,5.4,7,9.8,6.1l0,0c5.6-1.2,10.7,3.5,10,9.2l0,0
		c-0.5,4.4,2.5,8.5,6.9,9.2l0,0c5.6,0.9,8.7,7.1,6,12.2l0,0c-2.1,4-0.7,8.9,3.1,11.1l0,0c4.9,2.9,5.5,9.8,1.2,13.5l0,0
		c-3.4,2.9-3.8,8-1.1,11.5l0,0c3.5,4.5,1.6,11.1-3.7,13.1l0,0c-4.2,1.5-6.5,6.1-5.2,10.4l0,0C130.7,112.3,126.5,117.8,120.8,117.7z"
		/>
	<g>
		<g>
			<path class="st1" d="M29,91.1c0-0.4,0-0.9,0-1.3c0.5-0.6,1.1-1.1,2-1.3c6.9-1.3,11.5-5.6,15.1-11.3c3-4.8,2.5-5.9-2.8-7.9
				c-0.3-0.1-0.6-0.2-0.9-0.3c-1.2-0.5-2.3-1-3.2-1.9C36.7,65,38.1,62,41,61.3c2.1-0.5,3.9,0.9,5.9,1.2c1.3,0.2,1.9-0.3,1.7-1.7
				c-0.4-3.7-0.3-7.4-0.1-11.1c0.4-7.1,4-12.4,9.9-15.9c8.7-5,17.6-5,26.2,0.2c5.4,3.2,8.8,8.1,9.5,14.6c0.4,4.2,0.2,8.4-0.2,12.6
				c-0.2,1.8,0.2,2.2,2,1.8c2.2-0.5,4.1-1.6,6.4-0.6c1.2,0.6,2.3,1.8,2.3,3.1c0,0.9-0.6,1.8-1.3,2.4c-1.1,0.9-2.5,1.4-3.8,1.9
				c-1,0.4-2.1,0.7-3.1,1.2c-2,0.9-2.6,2.2-1.7,4.2c3.2,7,8,12.4,15.8,14.3c1,0.2,1.7,0.6,2.3,1.4c0,0.4,0,0.9,0,1.3
				c-0.8,1.5-2.1,2.3-3.6,2.9s-3.1,1.2-4.7,1.3c-2.3,0.1-3.5,1.1-3.8,3.5c-0.4,2.2-1,2.6-3.3,2.3c-0.5-0.1-1.1-0.2-1.6-0.3
				c-4.5-0.9-8.7-0.5-12.4,2.5c-0.7,0.6-1.5,1-2.3,1.5c-6.3,4-12.8,4.4-19.3,0.5c-1.8-1.1-3.5-2.3-5.2-3.4c-1.4-1-3-1.5-4.7-1.8
				c-2.7-0.4-5.3,0.1-8,0.4c-1.4,0.1-2.7-0.3-2.7-1.7c-0.1-3.4-2.2-4.3-5.1-4.6c-1.3-0.2-2.6-0.7-3.9-1.3
				C30.8,93.4,29.6,92.6,29,91.1z"/>
		</g>
	</g>
</g>
</svg>
