<?xml version="1.0" encoding="utf-8"?>
<!-- Generator: Adobe Illustrator 23.0.1, SVG Export Plug-In . SVG Version: 6.00 Build 0)  -->
<svg version="1.1" id="Layer_1" xmlns="http://www.w3.org/2000/svg" xmlns:xlink="http://www.w3.org/1999/xlink" x="0px" y="0px"
	 viewBox="0 0 566.9 283.5" style="enable-background:new 0 0 566.9 283.5;" xml:space="preserve">
<style type="text/css">
	.st0{fill:#68A78E;}
	.st1{fill:#A0C2AC;}
	.st2{fill:#F7ADBC;}
	.st3{fill:#DDDDDD;}
	.st4{fill:#A16D76;}
	.st5{fill:#AB847A;}
	.st6{fill:#AAB997;}
	.st7{fill:#CADBB3;}
	.st8{fill:#507E6A;}
	.st9{fill:#AC6451;}
	.st10{fill:#FAAA74;}
	.st11{fill:#FEEBA6;}
</style>
<g>
	<g>
		<g>
			<path class="st0" d="M121.1,90.6c-1.5,0-30.9-6.9-31.4,20.1c-0.5,27,14.7,48.6,19.1,65.7s11.8,36.8,21.1,49.5
				c9.3,12.8,10.3,33.8,19.6,33.4c9.3-0.5-3.9-23.5-4.4-38.8c-0.5-15.2,4.4-29.9-0.5-43.2c-4.9-13.2,1.5-31.9,1.5-31.9
				S154.5,91.1,121.1,90.6z"/>
		</g>
	</g>
	<g>
		<g>
			<path class="st1" d="M407.6,170.5c0,0,42.2,44.2,55.9,54.9c13.7,10.8,42.2,2,45.1-3.9c2.9-5.9-5.9-12.8,1-18.6
				c6.9-5.9-7.8-19.6-4.9-23.5c2.9-3.9-28.5-17.7-36.3-17.7c-7.8,0-18.6-13.7-18.6-13.7L407.6,170.5z"/>
		</g>
	</g>
	<g>
		<g>
			<path class="st2" d="M91.7,28.3c0,0,7.4-15.2,20.1-9.8c12.8,5.4,10.3,18.2,4.9,22.1c-5.4,3.9-11.3,7.4-20.1,2.9
				C87.7,39.1,91.7,28.3,91.7,28.3z"/>
		</g>
	</g>
	<g>
		<g>
			<path class="st3" d="M103.9,41c-3.2-2.7,9.8-15.7,14.2-12.3c4.4,3.4-2,9.3-4.9,11.3C110.3,42,107.4,44,103.9,41z"/>
		</g>
	</g>
	<g>
		<g>
			<path class="st3" d="M79,29.7c0-0.1,0-0.2,0-0.2c-0.1,0.2-0.1,0.4-0.2,0.7c0.3-0.5,0.3-1.1,0.5-1.6c-0.3,0.2-0.6,0.4-1,0.6
				c1.2,0.4,1.9-0.8,1.8-1.9c0-1-1.1-2.9-2.2-1.5c-0.7,0.8-0.4,1.9-0.4,2.7c0,0.3,0,0.7,0.1,1c0,0.2,0.1,0.3,0.2,0.5
				c0,0.1,0.1,0.1,0.1,0.2c0.1,0.1,0.1,0.1,0,0C78.3,31,79,30.3,79,29.7L79,29.7z"/>
		</g>
	</g>
	<g>
		<g>
			<path class="st3" d="M73.9,28.7c0-0.3,0.5-0.7,0.6-0.9c0.4-0.7,0.3-3-1-2.5c-0.7,0.3-1.1,1.2-1.2,1.9c-0.2,0.7-0.1,1.4,0.2,2.1
				c0.1,0.3,0.5,0.7,0.9,0.5C73.7,29.7,73.8,29.1,73.9,28.7L73.9,28.7z"/>
		</g>
	</g>
	<g>
		<g>
			<path class="st4" d="M113.5,31.5c-0.5,0.2-1,0.3-1.5,0.6c-0.6,0.3-1,0.8-1.4,1.3c-0.9,1.1-1.3,2.3-1.6,3.7
				c-0.2,0.8,0.2,2.6,1.4,2.6c3-0.1,5.2-2.6,5.6-5.4c0.1-1-0.2-2.5-1.4-2.6c-1.5-0.2-2.4,1.2-2.3,2.6c0,0.6,0.3,1.3,0.9,1.5
				c0.5,0.2,1,0,1.5,0c-0.5-0.9-0.9-1.7-1.4-2.6c-0.2,1.4-1.7,2.3-3,2.4c0.5,0.9,0.9,1.7,1.4,2.6c0.4-1.5,1.5-3.3,2.5-4.3
				C114.8,33.2,114.7,31.1,113.5,31.5L113.5,31.5z"/>
		</g>
	</g>
	<g>
		<g>
			<path class="st4" d="M67,50.3c1.6,0.5,3.2,0.3,4.7,1c1.7,0.8,2.4,2.5,4.3,3.4c3.5,1.6,6.9,0.7,10.7,3c2.5,1.4,4.5,2.8,7.1,4
				c6.4,2.7,11.9,6.5,18.2,9.4c4.6,2.1,9.3,2.7,13.3-0.7c0.6-0.5,0.2-2.7-0.6-2.1c-9.3,6-18.6-4.8-27.1-8.3c-4.4-1.8-8-4.4-12.1-6.5
				c-4.4-2.2-9.7,0.3-12.9-4.8c-0.1-0.2-0.4-0.3-0.7-0.2c-1.6,0-3.1,0-4.7,0C66.4,48.1,66.2,50,67,50.3L67,50.3z"/>
		</g>
	</g>
	<g>
		<g>
			<path class="st4" d="M115.1,49.1c-0.4-1.3-1.7-1.7-3-1.5c-1.4,0.2-2.4,1.5-2.9,2.8c-1.2,3.3,0.7,8.3,3.7,10.2
				c2.9,1.9,5.6-1.2,6.1-3.9c0.7-4-2.1-6.8-5.2-8.8c-1-0.6-1.9-0.1-2.3,1c-1.1,3.6,0.1,7.9,3.6,9.6c1.1,0.5,1.9-1,2-1.9
				c0.5-2.6-0.6-8.6-4.4-7.5c-1,0.3-1,2.1-0.7,2.8c0.4,0.7,0.7,1.3,1.2,2c0.4,0.5,0.6,0.8,0.5,1.4c0.7-0.6,1.4-1.2,2-1.9
				c-0.7-0.3-1.7-1.1-1.4-2.1c-0.8,0.3-1.5,0.6-2.3,1c1.1,0.7,2.7,1.5,3.3,2.6c0.4,0.8-0.3,1.5-1.2,1.2c-1-0.4-2.7-2.8-2.4-3.8
				c0.4-1.4,2-1,2.8-1.5C115.3,50.4,115.3,49.6,115.1,49.1L115.1,49.1z"/>
		</g>
	</g>
	<g>
		<g>
			<path class="st4" d="M124.1,40.8c-2.7,0.2-3.9,3.7-4,6c-0.1,2.7,0.8,5.8,3.1,7.5c2.7,2,5.8,0.2,7.1-2.6c1.4-3.2,0.5-7.2-1.4-10
				c-1.6-2.4-4.9-3.6-6.2-0.2c-1.1,2.6-0.6,6.9,1,9.2c2,2.9,5.2,2,5.6-1.4c0.4-2.9-0.2-6.3-2.8-7.9c-0.4-0.2-1.1,0-1.4,0.3
				c-0.1,0.1-0.2,0.2-0.3,0.3c-0.7,0.8-0.8,1.9-0.4,3c0.3,0.9,1,1.3,1.3,2.1c0.1,0.2-0.1,1,0.1,1.1c1.1,1,0.1-2.1,0.1-2
				c-0.1-0.4,0-0.9-0.1-1.3c0-0.3,0-0.5,0-0.8c-0.1,0.2-0.2,0.4-0.3,0.6c0.3,0.5,0.9,0.7,1.2,1.2c0.3,0.5,0.6,1.1,0.7,1.7
				c0.5,2.7-3.1,3-3.8,0.6c-0.6-1.8,0.8-3.7,1.5-5.2C125.3,42.3,125.1,40.7,124.1,40.8L124.1,40.8z"/>
		</g>
	</g>
	<g>
		<g>
			<path class="st4" d="M126.5,30.4c-0.3,1.2-0.4,2.5-0.4,3.7c0,1.3,0.2,2.5,1.4,3.3c1.4,0.9,3.3,0.7,4.6-0.4
				c1.7-1.5,1.8-4.2,0.8-6.1c-0.9-1.7-2.9-2.9-4.8-1.9c-1.1,0.6-1.3,2.1-1.1,3.2c0.2,0.9,1,2.3,2.1,1.7c0.4-0.2,0.7-0.2,1,0
				c0,0,0.4,0.3,0.3,0.2c0,0,0,0.2,0,0c0-0.3-0.1-0.6-0.1-0.9c0,0.3,0.1,0.1,0-0.1c0-0.2,0.2,0,0-0.1c0,0-0.2,0.1-0.2,0.1
				c-0.2,0.1-0.4,0.2-0.6,0.2c-0.6,0-0.9-0.1-1.2-0.5c0.3,0.6,0.5,1.3,0.8,1.9c-0.1-1.5-0.2-3.1-0.7-4.6
				C128,29.4,126.8,29.3,126.5,30.4L126.5,30.4z"/>
		</g>
	</g>
	<g>
		<g>
			<path class="st4" d="M136.2,38c-3.1,2.4-4.5,7.5-2.5,11c0.8,1.4,2.1,2.5,3.7,2.7c2.1,0.3,3.1-1.1,3.6-3c0.7-3,1.7-9.5-1.9-11.2
				c-4.9-2.2-4.1,6.6-4.1,8.9c0,1.1,0.6,2.7,1.9,2.7c1.3,0,1.7-1.8,1.7-2.8c0-1,0-2,0-3c0-0.4,0.1-1,0-1.3c0-0.5,0-0.5-0.2,0.2
				c-0.1,0.5-0.2,0.7-0.3,0.4c-0.1,0.7,0.1,1.5,0,2.2c-0.1,1.1-0.3,2.2-0.6,3.3c0.4-0.6,0.8-1.3,1.2-1.9c-0.8,0.5-2.3,0.3-2.5-0.8
				c-0.2-1.3,1.5-3.4,2-4.5C138.6,39.7,137.8,36.7,136.2,38L136.2,38z"/>
		</g>
	</g>
	<g>
		<g>
			<path class="st4" d="M134.8,55.2c-2.1,0-3.7,0.8-5.3,2.1c-1.1,0.8-0.9,3.1-0.2,4.1c2.2,3.3,7,3.7,9-0.1c1-1.9,1-4.7-0.6-6.3
				c-1.2-1.2-3.2-1.4-4.1,0.3c-0.5,0.9-0.6,2.1-0.2,3.1c0.3,0.7,1.1,1.5,1.9,1.1c0.5-0.2,0.5,0.4,0.3-0.5c-0.2-0.4-0.2-0.8-0.1-1.2
				c0,0,0,0.1-0.1,0.1c-0.2,0.1-0.5,0.5-0.7,0.6c-1.1,0.6-2.5,0.1-3.2-0.9c-0.1,1.4-0.2,2.7-0.2,4.1c1.4-1.1,2.8-2.2,4.1-3.5
				C136.1,57.5,136.2,55.2,134.8,55.2L134.8,55.2z"/>
		</g>
	</g>
	<g>
		<g>
			<path class="st4" d="M121.6,62c0.5,1,1.2,1.9,2.1,2.5c0.8,0.5,1.7,0.1,2-0.9c0.6-1.9,0.2-4.5-1.6-5.7c-0.6-0.4-1.1-0.4-1.7,0
				c-1.3,0.9-1.3,3.4-0.7,4.7c0.5,1.2,1.3,2,2.6,2.2c0.7,0.1,1.3-0.8,1.4-1.3c0.2-0.9,0.2-1.7-0.1-2.6c-0.2-0.7-0.8-1.2-1.5-1.3
				c0.2,0,0.2,0,0,0c0.2,0.1,0.3,0.2,0.4,0.4c0.1,0.3,0.1,0.6,0.1,0.9c0.1,0.3,0,0.6-0.1,0.8c-0.2,0.4-0.2,0.5,0,0.2
				c-0.5,0.2-1.1,0.5-1.6,0.7c0.2,0.1,0.2,0.1,0.1,0.1c-0.2-0.2-0.1-0.1,0.3,0.3c-0.2-0.2-0.3-0.3-0.3-0.6c0-0.1,0-0.3,0-0.4
				c0.6-0.5,1.2-1.1,1.8-1.6c-0.5-0.1-1-0.3-1.3-0.7C122.1,58.1,121,60.8,121.6,62L121.6,62z"/>
		</g>
	</g>
	<g>
		<g>
			<path class="st4" d="M145,52.3c0.2,0.4-1.6,1.9-1.9,2.2c-0.7,0.9-1.3,1.8-1.5,2.9c-0.4,1.9,0.2,4.4,1.9,5.5
				c4.3,2.8,5.5-8.2,5.5-10.5c0-1.1-0.6-2.8-1.9-2.8c-1.3,0-1.9,1.9-1.8,2.9c0.1,2.3-0.3,4.4-1.4,6.4c0.4-0.3,0.8-0.5,1.2-0.8
				c-0.2,0-0.4,0.9,0.1,0.6c0.3-0.2,0.6-0.8,0.8-1.1c0.5-0.8,1-1.5,1.3-2.4c0.6-1.6,0.4-3.4-0.6-4.8C145.4,48.8,144.6,51.3,145,52.3
				L145,52.3z"/>
		</g>
	</g>
	<g>
		<g>
			<path class="st4" d="M158.3,130c-2.1-2.9-7.2-1.7-10-0.4c-3,1.4-6.2,4.4-5.8,8c0.4,3.9,4,4.8,7.2,3.3c3.6-1.7,7.1-4.2,8.5-8.1
				c0.4-1.2,0.2-3.3-1.1-3.9c-4.6-1.9-8.1,1.9-10.5,5.4c-1.4,2,0.9,6.8,2.7,3.9c1.6-2.4,3.7-5.4,7-4.1c-0.4-1.3-0.8-2.6-1.1-3.9
				c-0.8,2.4-3,3.7-5,5c-1,0.6-2,1.3-3.2,1.6c-1.7,0.5-1-0.2-0.1-1.1c1.4-1.5,3.4-2.7,5.4-3.2c1.9-0.5,4.4,0.2,6-0.9
				C158.6,131.3,158.6,130.5,158.3,130L158.3,130z"/>
		</g>
	</g>
	<g>
		<g>
			<path class="st4" d="M145.8,126.7c0.8-0.9,1.4-1.8,2.5-2.4c1.2-0.6,2.4-0.7,3.7-0.3c-0.2-1.4-0.3-2.8-0.5-4.1
				c-1.6,1.8-3.6,3-6.1,3.2c-2.2,0.3-2,5.3,0.1,4.9c3.2-0.5,5.8-2.1,7.8-4.7c0.7-0.9,0.6-3.5-0.7-3.8c-3.9-0.9-8.2,1.7-8.3,5.9
				C144.4,126.1,145.1,127.5,145.8,126.7L145.8,126.7z"/>
		</g>
	</g>
	<g>
		<g>
			<path class="st4" d="M165,122c-1-0.6-2.1-0.9-3.3-0.7c-2.1,0.3-1.8,3.5-0.7,4.7c2.5,2.6,6,4,9.6,3.9c1.9-0.1,2-3.4,1.1-4.5
				c-1.8-2.2-7.5-6.5-9.8-2.8c-0.5,0.8-0.5,2.1,0.1,2.8c1.1,1.4,2.2,1.1,3.8,1.6c1.4,0.4,2.7,1.1,3.6,2.2c0.4-1.5,0.7-3,1.1-4.5
				c-3,0.2-5.7-0.8-7.9-2.9c0,1.4,0.1,2.9,0.1,4.3c0.7-0.5,1.3-0.9,2.1-1C166.1,124.8,166,122.6,165,122L165,122z"/>
		</g>
	</g>
	<g>
		<g>
			<path class="st4" d="M169,134.3c-0.9-2.3-4.5-3.4-6.1-1.1c-1.9,2.8,0.2,5.7,2.6,7.1c2.5,1.5,5.3,0.4,5.8-2.6
				c0.5-2.9-1.7-5.3-4.6-5.2c-0.8,0-1.2,0.7-1.5,1.4c-0.5,1.3-0.2,3.6,1.4,4c0.4,0.1,0.8,0.1,1.2,0.2c0.8,0.2,0.2,0.2,0.1-0.4
				c0-0.5,0-1,0-1.4c0.1-0.7,0.6-0.4-0.1-0.3c-0.3,0-0.6,0-0.9-0.1c-0.6-0.2-1.2-0.8-1.8-1c-0.6-0.3-0.6,0.3-0.1,1.8
				c0.1-0.1,0.3-0.3,0.5-0.4c0.3-0.1,0.5-0.2,0.8-0.2c0.8,0.1,1.4,0.5,2.2,0.2C169.2,135.9,169.3,134.9,169,134.3L169,134.3z"/>
		</g>
	</g>
	<g>
		<g>
			<path class="st4" d="M156.8,139.4c-1.3,1-2.3,2.4-3.4,3.6c-1,1.1-1.2,3.4,0.1,4.4c1.5,1.2,3.4,1.8,5.3,1.8c1,0,1.5-1.2,1.6-2
				c0.4-2.6-0.2-5.3-1.8-7.4c-0.6-0.8-1.4-1-2.3-0.4c-1.3,0.9-1.5,2.7-1.2,4.1c0.3,1.4,1.8,2.7,2.9,1.1c0.2-0.3,0-0.1,0.3-0.4
				c-0.8-0.1-1.5-0.3-2.3-0.4c0.5,0.6,1,1.2,0.9,1.9c0.5-0.7,1.1-1.3,1.6-2c-1.3,0.1-2.5-0.2-3.6-0.9c0.1,1.3,0.3,2.6,0.4,4
				c0.9-1.8,1.9-3.7,2.6-5.6C158.4,140.5,157.9,138.5,156.8,139.4L156.8,139.4z"/>
		</g>
	</g>
	<g>
		<g>
			<path class="st4" d="M151.9,150c-0.7-2.1-3-3.8-5.2-3.6c-1.9,0.2-1.9,2.8-1.4,4.1c1.1,3.3,2.6,6.6,4.7,9.4
				c1.9,2.6,4.2,3.4,6.5,0.7c1.9-2.2,4.4-5.4,2.1-8.3c-1-1.3-2.9-2-4.2-2.8c-1.7-1-3.4-2-5.1-3c-1-0.6-1.9,0.7-2.2,1.4
				c-0.4,1.1-0.3,2.6,0.4,3.6c1.5,2.1,3.7,6.1,6.4,6.4c1.8,0.2,1.6-2.9,1.3-3.8c-0.8-2.6-3.5-4.8-5-7c-0.6,1.7-1.2,3.4-1.8,5.1
				c1.3,0.8,2.7,1.5,4,2.3c1,0.6,3.3,1.4,3.8,2.3c-0.2-1-0.4-1.9-0.6-2.9c0.1-0.7-0.4,0.3-0.5,0.5c-0.3,0.4-0.6,1.1-1.1,1.4
				c-0.6,0.4-0.6,0.6-1.3,0c-0.4-0.3-0.8-1.1-1.1-1.5c-1.4-2.1-2.5-4.4-3.4-6.9c-0.3,1.3-0.6,2.7-1,4c1.6-0.4,2.3-0.2,3.8,0.2
				C152,152.1,152.1,150.6,151.9,150L151.9,150z"/>
		</g>
	</g>
	<g>
		<g>
			<path class="st4" d="M170.4,143.5c-4.7-1.5-6.9,4.5-6.8,8.2c0.2,4.2,2,10.5,7.4,8.9c4-1.2,7.8-7,7.4-11.2
				c-0.5-5.6-5.7-6.7-10.3-6.1c-1.4,0.2-1.9,1.8-1.9,3c0,2.4,0,4.8,0,7.2c0,1.3,0.9,3.4,2.5,2.8c1.2-0.4,1.8-1.3,2.4-2.4
				c0.2-0.4,1.1-2.7,0.9-2.9c-0.3-1.4-0.5-2.7-0.8-4.1c-0.5,1.1-1,2.2-1.5,3.3c-0.6,1.2,0.2,5.5,2.3,4.3c1.6-0.9,2.9-2,4-3.5
				c1.5-2-0.7-7-2.9-4.1c-0.6,0.8-1.4,1.4-2.3,1.9c0.8,1.4,1.5,2.9,2.3,4.3c0.5-1.1,1-2.2,1.5-3.3c0.5-1.1,0.3-3.3-0.8-4.1
				c-1.4-1-2.8-0.8-4,0.4c-0.6,0.6-1,1.3-1.3,2.1c-0.2,0.6-0.2,1.9-0.9,2.2c0.8,0.9,1.7,1.9,2.5,2.8c0-2.4,0-4.8,0-7.2
				c-0.6,1-1.3,2-1.9,3c1.2-0.2,5.5-1,6.2,0.6c0.5,1.1-2.6,4.3-3.6,4.8c-2.5,1.5-3.4-0.8-3.7-3c-0.2-2.4,1.2-3.8,3.3-4.7
				C171.6,146.4,171.7,143.8,170.4,143.5L170.4,143.5z"/>
		</g>
	</g>
	<g>
		<g>
			<path class="st4" d="M179.1,133.4c-0.9-0.7-2-0.9-3.1-0.9c-0.8,0-1.2,0.8-1.5,1.4c-0.9,1.9-0.3,4.4,1.1,5.9
				c1.2,1.2,3.2,1.5,4.8,1.3c2.4-0.3,3.1-3,2.7-5.1c-0.5-2.1-2.1-3.4-4.3-3.1c-2.6,0.3-2.5,5.9,0.1,5.9c0.3,0,0.8,0.1,1,0.1
				c0.1-1.2,0.2-2.4,0.3-3.6c-0.2,0-0.3,0-0.5,0c-0.3,0-0.6,0-0.8,0c-0.4,0-0.9-0.1-1.3-0.3c-0.4-0.2,0,0-0.1,0
				c0-0.1-0.1-0.1-0.1-0.2c0.3,0.5,0.4,1.1,0.2,1.8c-0.5,0.5-1,0.9-1.5,1.4c1.1-0.1,2.2-0.3,3-1.1
				C180.1,136.1,180,134.2,179.1,133.4L179.1,133.4z"/>
		</g>
	</g>
	<g>
		<g>
			<path class="st4" d="M211.5,139.4c-4.5-3.1-9.5-3.6-14.9-3.3c-4.6,0.2-5.6,3.3-5.3,7.6c0.2,3.5,2,7.9,6.2,7.7
				c4.8-0.2,10.2-4.2,13.9-7c1.5-1.1,1.3-5-0.6-5.6c-4.1-1.5-8.7-1.9-13-0.4c-3.4,1.2-5.2,4.6-3.6,7.9c0.5,0.9,1.2,1.8,2.3,1.4
				c3.1-1.1,6.7-1.9,9.4-3.8c1.4-1,2-5.6-0.6-5.4c-3.4,0.3-6.8,2-10,3.2c0.8,0.5,1.6,0.9,2.3,1.4c0.8,1.7,1.1,1.2,2.8,0.9
				c1.1-0.2,2.1-0.3,3.2-0.3c2.2,0,4.2,0.4,6.2,1.2c-0.2-1.9-0.4-3.8-0.6-5.6c-2.4,1.8-5,3.4-7.7,4.7c-1.4,0.6-3.5,1.9-5,1.1
				c-0.6-0.3-2.1-2.2-1.1-3.1c-0.7,0.6,2.3,0.3,2.6,0.3c1.6-0.1,3.3-0.2,4.9-0.2c2.7,0,5.5,0.1,8.2,0.6
				C212.3,142.7,212.2,139.9,211.5,139.4L211.5,139.4z"/>
		</g>
	</g>
	<g>
		<g>
			<path class="st4" d="M218.3,151.9c-3.5-2.8-7.1-2.9-11.4-2c-3,0.6-7.9,1.5-10.1,4c-3.9,4.6,1.7,13.8,7.4,12.7
				c3.5-0.7,7.1-4,9.7-6.3c2.3-2.1,4.7-4.3,4.1-7.6c-1.5-8-14.8,0.6-18.1,3c-1.6,1.1-1.2,5,0.6,5.7c4,1.5,10.1-1.4,13-4.3
				c1.1-1.1,1.2-4.8-1-4.8c-3.7,0.1-7.3,4.5-11.1,3c0.2,1.9,0.4,3.8,0.6,5.7c1.9-1.4,10.6-7.4,13-5.2c-0.3-0.9-0.7-1.7-1-2.6
				c0,0.4-4.7,4.1-5.7,4.9c-1.1,0.8-2.5,1.9-3.8,2.4c-2,0.7-5.4-1.2-4.8-2.5c0.2-0.4,6.6-2.2,7.8-2.5c3.3-0.9,6.9-0.9,10.3-0.7
				C219.1,154.7,218.9,152.4,218.3,151.9L218.3,151.9z"/>
		</g>
	</g>
	<g>
		<g>
			<path class="st4" d="M225.6,169c-0.2-2.6-1.8-5-4.4-5.9c-3.8-1.4-7.3,1.6-10.2,3.7c-2.8,2.1-6.8,4.1-7,8
				c-0.2,3.4,2.4,5.7,5.6,6.4c6.5,1.4,16.2-5.4,15.5-12.5c-0.3-2.9-2.6-5.1-5.5-4c-1.9,0.7-3.3,2.4-4.8,3.6c-2.2,1.7-4.5,3.1-7,4.3
				c-1.8,0.8-2.1,5.5,0.1,6c4.4,0.9,8.3-1.1,11.2-4.5c0.9-1.1,1-6.1-1.5-4.8c-2.8,1.4-5.4,4-8.8,3.3c0,2,0.1,4,0.1,6
				c3.7-1.8,6.7-4.1,9.8-6.6c0.5-0.4,1.6-0.9,2-1.4c0.3-1.4,0.2-1.6-0.4-0.6c-0.3,0.4-0.6,0.8-0.9,1.1c-1.6,1.7-3.5,3.3-5.7,3.9
				c-1,0.3-1.9,0.4-3,0.3c-0.9-0.1-2.2-1.2-2.9-1.1c-0.2,1.5,0,1.8,0.6,1.1c0.3-0.3,0.6-0.5,0.9-0.7c0.9-0.7,1.8-1.4,2.7-2
				c1.8-1.4,10.4-8.5,11.9-3.2C224.4,170.7,225.7,170.4,225.6,169L225.6,169z"/>
		</g>
	</g>
	<g>
		<g>
			<path class="st4" d="M234.8,187.3c-0.5-2.8-1.4-5.7-3.9-7.4c-3-2-5-0.7-7.5,1.3c-2.3,1.9-6.4,4-7,7.2c-0.5,2.6,0.8,4.9,3.4,5.3
				c3.5,0.5,8.3-0.7,11.6-2c2.6-1,4-3.4,3.3-6.2c-1.7-6.8-10.4-5.7-12.2,0.3c-0.4,1.2-0.3,4.9,1.8,4.6c2.3-0.4,3.8-0.4,5.1-2.4
				c0.5-0.9,0.4-2.1-0.3-2.9c-1.5-1.5-2.8-1.1-4.9-0.8c0.6,1.5,1.2,3,1.8,4.6c0.3-1.1,0.9-1.9,2.1-2.1c0.8-0.2,2.7,0,2.9,1.2
				c0-0.8,0.1-1.5,0.1-2.3c-0.4,1-11,3-11.6,2.2c0.2,0.7,0.4,1.4,0.6,2.1c0-0.2,0-0.5,0-0.7c-0.2,0.7-0.3,1.4-0.5,2.1
				c0.7-1.2,2.1-2.1,3.2-3c1.2-1.1,2.4-2.3,3.7-3.2c3.4-2.6,5.5,0.5,7.1,3.4C234.2,189.4,234.9,187.8,234.8,187.3L234.8,187.3z"/>
		</g>
	</g>
	<g>
		<g>
			<path class="st4" d="M236.1,195.5c-3.6-1.1-7.5-1.2-8.6,3.3c-0.8,3.8,2.1,7,4.9,9c4,2.9,18.2,7.2,15-2.8c-1.3-3.9-5.7-7.3-9-9.5
				c-2.5-1.7-6.3-4-8.6-0.7c-2.2,3.2,0.2,6.9,2.5,9.2c1.6,1.6,3.4,2.9,5.3,4c1.9,1,3.1,1.8,5,0.5c1-0.7,0.7-2.6,0.2-3.5
				c-1-1.9-2.4-2-4.2-3c-1-0.6-2-1.2-2.9-2c-0.5-0.4-3-3.5-2.5-1.6c-0.3,0.9,0,1.3,1.1,1.2c0.5,0.3,1,0.5,1.5,0.9c1,0.6,2,1.3,2.9,2
				c0.6,0.5,5,4.1,5,4.4c0.3-0.6,0.6-1.2,0.9-1.8c-1.6,1.9-7.5-0.8-9.2-1.7c-1.4-0.8-2.7-1.8-3.8-3c-0.4-0.7-0.6-0.6-0.4,0.2
				c0.3-0.3,0.7-0.5,1-0.8c1.3-0.4,2.3-0.7,3.7-0.8C237.3,198.8,237.3,195.9,236.1,195.5L236.1,195.5z"/>
		</g>
	</g>
	<g>
		<g>
			<path class="st4" d="M161.7,162.7c-3.9-0.1-7.8,3.6-7.5,7.5c0.1,1.7,1.1,3.9,3.1,4c2,0.2,4.4-2,6-3c1.7-1.1,3-2.6,3.1-4.8
				c0.1-2-0.9-4.1-2.8-4.8c-3.8-1.4-7.7,3.3-8.5,6.5c-0.3,1.3,1.1,4.8,2.7,3c1.1-1.2,1.7-2.6,3.1-3.6c0.3-0.2,0.8-0.5,1.2-0.6
				c0.1,0,0.9,0.1,0.9,0.1c0-0.6-0.1-1.2-0.1-1.8c-0.2,0.2-0.4,0.3-0.6,0.5c-0.4,0.3-0.9,0.6-1.3,0.9c-0.8,0.5-1.6,1.1-2.5,1.6
				c-0.3,0.2-0.6,0.3-0.8,0.5c0.1,0.4,0.1,0.9,0.2,1.3c0.1-0.1,0.2-0.3,0.3-0.4c0.8-0.5,1.4-1.4,2.1-1.9c0.7-0.6,1.6-1.2,2.3-1.8
				C163.2,165.3,163.2,162.8,161.7,162.7L161.7,162.7z"/>
		</g>
	</g>
	<g>
		<g>
			<path class="st4" d="M175.6,162.7c-2-1.3-4.6,0.5-5.6,2.3c-0.8,1.5-0.9,3.7,0.4,5c0.8,0.8,2.2,0.9,3.3,0.8
				c1.2-0.2,2.4-0.6,3.4-1.4c1.5-1.1,1.8-2.6,1.3-4.3c-0.3-1.2-1.2-2.6-2.6-2.6c-1.6,0-2.3,1.9-2.2,3.2c0.1,1,0.5,2.6,1.8,2.6
				c0.5,0,0.9-0.1,1.3-0.5c0.9-0.9,1.1-3.1-0.1-3.9c-0.1-0.1-0.2-0.1,0,0c0.2,0.4,0.3,0.7,0.5,1.1c0,0.1,0,0.2,0,0.4
				c-0.1,0.4-0.1,0.9-0.2,1.3c0-0.1,0.1-0.1,0.1-0.2c-0.2,0.3-0.4,0.6-0.6,1c-0.4-0.1-0.5,0-0.6,0.2c-0.2-0.3-0.4-0.6-0.6-0.9
				c0.2,0.1,0.2,0.2,0.1,0.3c0.2-1,0.5-2,0.7-3c-0.6,0.6-1.2,1-2.1,1.3c-0.4,0.1-1.6,0.4-2,0c0.2,0.3,0.4,0.6,0.6,0.9
				c0-0.1-0.1-0.2-0.1-0.3c0.1,0.4,0.2,0.9,0.3,1.3c0-0.1,0-0.2,0-0.4c-0.1,0.4-0.1,0.9-0.2,1.3c0.5-1.6,1.9-1.8,3.1-2.8
				C176.3,164.9,176.4,163.2,175.6,162.7L175.6,162.7z"/>
		</g>
	</g>
	<g>
		<g>
			<path class="st4" d="M168.4,173c-6.2,1.5-9.5,9.9-4.9,14.9c5.2,5.5,12.4,1.1,15.6-4.1c0.7-1.2,0.6-2.9-0.1-4
				c-2.2-3.4-5.1-7.3-9.7-6.7c-4.4,0.5-5.7,5.3-5.4,9.1c0.1,1,0.9,3.6,2.5,2.8c0.7-0.4,4.3-2.7,4.8-2.5c-0.4-0.4-0.8-0.9-1.2-1.3
				c-0.7-1.3,0.9-3.1-0.9-1.5c-0.5,0.5-0.9,1.1-1.2,1.7c-0.7,1.4-0.8,2.9-0.7,4.5c0.1,1.4,0.8,3.2,2.5,2.8c3-0.8,5.4-2.2,6.7-5.1
				c0.5-1.2-0.1-4.2-1.9-3.6c-2.1,0.8-3.7,2.4-6,3c0.8,0.9,1.7,1.8,2.5,2.8c-0.1-1.4,1.8-2.1,2.3-3.4c0.6-1.3,0.5-2.9,0-4.1
				c-1.7-3.7-5.8-0.2-8.2,1c0.8,0.9,1.7,1.9,2.5,2.8c-0.3-2.7,1.5-4,4.1-3c2.1,0.8,3.4,2.9,4.6,4.8c0-1.3-0.1-2.7-0.1-4
				c-1.9,3.2-5.4,6.3-9.3,4.6c-4.9-2,0.5-6.5,2.4-8.9C170.1,174.8,169.7,172.7,168.4,173L168.4,173z"/>
		</g>
	</g>
	<g>
		<g>
			<path class="st4" d="M180.8,174.6c1.5,4.4,7,8.3,11.5,5.8c1.7-0.9,1.4-3.5,0.3-4.7c-2.2-2.4-7.5-6-10.6-3.7
				c-1.4,1-0.8,4.7,1.3,4.2c0.2,0,0.3-0.1,0.5-0.1c1-0.2,0.9-2,0.6-2.7c-0.1-0.2-0.2-0.4-0.3-0.6c-0.7,1.1-1.3,2.2-2,3.2
				c1.4,1,3.1,0.8,4.7,1.3c1.7,0.6,3,1.5,4.3,2.8c0.1-1.6,0.2-3.1,0.3-4.7c-1.7,1-3.5,0.8-5.2-0.2c-1.5-0.9-2.5-2.5-4.1-3.1
				C180.7,171.8,180.6,173.9,180.8,174.6L180.8,174.6z"/>
		</g>
	</g>
	<g>
		<g>
			<path class="st4" d="M182.8,184.9c-0.6,2.9-3.1,8.3,0,10.5c2.6,1.8,7.6,0.1,10.2-1c1.6-0.7,1.5-3.7,0.3-4.7
				c-2.5-2.1-5.4-3.8-8.5-4.9c-1.1-0.4-2,0.9-2.1,1.9c-0.2,1.9-0.3,4,0.6,5.7c1.1,2.2,2.9,0.6,2.9-1.3c0-1-0.2-2.1-0.1-3.1
				c-0.7,0.6-1.4,1.3-2.1,1.9c2.8,1,5.4,2.4,7.7,4.3c0.1-1.6,0.2-3.1,0.3-4.7c-2.3,1-4.7,1.6-7.2,1.6c-0.3,0-0.7-0.3-0.5,0
				c-0.2-0.3,0-1.5,0.1-1.8c0-1.3,0-2.7,0-4C184.4,184,183.1,183.6,182.8,184.9L182.8,184.9z"/>
		</g>
	</g>
	<g>
		<g>
			<path class="st4" d="M175.8,192.4c-1-1.2-2.6-1-3.4,0.4c-1.1,1.8-0.3,4.3,1.3,5.6c1.3,1,3.3,2.1,4.6,0.5c1.3-1.6,0.8-4.3,0.8-6.3
				c0-0.9-0.5-2.3-1.6-2.3c-1.4,0-2.6,0.4-3.7,1.2c-1.7,1.3-0.3,6.1,1.8,4.3c0.6-0.5,1.3-0.8,2-0.8c-0.5-0.8-1.1-1.6-1.6-2.3
				c0,0.9,0,1.9,0.1,2.8c0,0.2,0,0.3,0,0.5c0,0.5,0.1,0.2,0.4-0.9c0-0.1-0.6-0.2-0.7-0.3c-0.3-0.2-0.7-0.6-1-0.6
				c0.3,0.7,0.2,1.3-0.2,1.6c0.2-0.1,0.2-0.1,0.1-0.1c0.2-0.1,0.4-0.2,0.4-0.2C176.3,195.3,176.5,193.2,175.8,192.4L175.8,192.4z"/>
		</g>
	</g>
	<g>
		<g>
			<path class="st4" d="M194.4,186c0.8,1,1.8,1.9,2.8,2.7c0.7,0.6,1.5,1.2,2.5,1.1c2-0.1,3-2.4,3.1-4.1c0.1-2-0.9-4.1-2.9-4.7
				c-2.1-0.6-4.5,0.6-4.8,2.8c-0.1,0.8,0.1,2.6,1.1,2.8c1.1,0.3,1.6-0.6,2.6-0.8c0.3-0.1,0.7,0.1,1,0c0,0,0.2,0.1,0.2,0.1
				c-0.1,0-0.3-1.1-0.2-0.9c-0.1-0.1,0,0.2-0.1,0.1c0,0-0.2,0.1-0.3,0.1c-0.2,0-0.4-0.2-0.6-0.3c-1.2-0.7-2.1-1.6-3.3-2.2
				C194,182.2,193.8,185.2,194.4,186L194.4,186z"/>
		</g>
	</g>
	<g>
		<g>
			<path class="st4" d="M180.5,204.1c2.7-0.4,5.4-0.9,8.1-1.1c2.1-0.1,2.3-0.2,2.8,1.8c0.4,1.5,0.8,3,1.1,4.6
				c0.1,0.6,0.4,1.5,0.3,2.1c-0.1,0.9-0.2-0.1-0.7-0.6c-0.9-1.1-2.2-1.9-3.2-2.9c-2.1-2.1-4-4.5-5.6-7.1c-0.2,1.5-0.4,3-0.7,4.5
				c0.9-0.3,2.9-1.3,3.9-1.1c0.2,0,0.5-0.1,0.7-0.1c0.3,0.6,0.6,1.3,0.9,1.9c1,2.3,2.1,4.5,3.2,6.8c0.8-1.3,1.6-2.6,2.4-3.9
				c-2.7-2.3-5.1-5.4-8-7.3c-2.3-1.6-3.2,3.4-1.1,4.6c0.2,0.1,0.5,0.3,0.7,0.4c1.9,1.2,2.1-2.1,1.5-3.2c-0.2-0.3-0.3-0.6-0.5-0.9
				c-0.8,1-1.7,2-2.5,3.1c2,3.2,5.4,5.8,8.2,8.2c2.1,1.8,3-2.5,2.4-3.9c-0.9-1.9-1.8-3.9-2.7-5.8c-0.6-1.4-1.2-3.1-2.2-4.3
				c-2-2.4-5.5-0.5-7.9,0.3c-1.7,0.5-1.4,3.5-0.7,4.5c2.7,4,6,8.2,9.9,11c3.5,2.6,5.8-0.2,5.6-3.9c-0.2-2.5-0.7-5.1-1.4-7.5
				c-0.5-1.8-0.9-4.5-2.4-5.7c-1.5-1.2-3.9-0.7-5.5-0.5c-2.5,0.4-4.8,1.2-6.9,2.6C179.2,201.3,178.9,204.3,180.5,204.1L180.5,204.1z
				"/>
		</g>
	</g>
	<g>
		<g>
			<path class="st4" d="M201.8,194.8c-1.1-1.4-2.8-1.2-4,0c-1.3,1.3-1.7,3.5-1.3,5.3c0.5,2.1,1.9,3.7,3.6,5c0.7,0.5,1.6,1.2,2.5,1.1
				c1.1-0.1,1.7-1.2,1.9-2.2c0.6-2,0.9-4.7,0.5-6.7c-0.3-1.9-1.8-4.2-4-3.8c-1.9,0.3-2.7,2.4-2.9,4.1c-0.2,2.1,0.7,4.2,1,6.3
				c0.1,0.9,1.3,2.4,2.3,1.3c1.7-2,1-4.3,0.3-6.6c-0.1-0.2-0.1,0.2-0.2,0.2c0.4,0.2,0.2-0.6,0.2,0.1c0,0.5-0.1,1-0.2,1.5
				c0,0.3-0.1,0.7-0.1,1c-0.1,0.8-0.1,0.7,0.2-0.2c0.3-0.1,0.6-0.3,0.9-0.4c-1,0-2.4-1.7-2.9-2.5c0.3,0.5-0.2,0.4,0.3-0.1
				c0.4-0.4,0.9-0.5,1.4-0.8C202.3,197.1,202.4,195.6,201.8,194.8L201.8,194.8z"/>
		</g>
	</g>
	<g>
		<g>
			<path class="st4" d="M207.2,211.7c-1.1-0.6-2.4-0.5-3.6-0.8c-0.4-0.1-0.9-0.1-1.3,0.3c-1.9,2.2-1.5,5.5,0.5,7.5
				c2.2,2.1,5.2,0.9,7.4-0.6c1.3-0.9,1.8-3.3,0.7-4.6c-1.5-1.7-6-4.4-7-0.7c-0.3,1.3,0.1,3.1,1.5,3.6c0.6,0.2,1.3,0.1,1.9,0.3
				c0.6,0.2,1,0.6,1.4,1.1c0-1.6-0.1-3.1-0.1-4.7c-0.9,0.7-2.2,1.5-3.4,1.4c-0.4,0-0.6-0.2-0.9-0.4c-0.3-0.2,0-0.3-0.2-0.1
				c0.1,0.2,0.1,0.5,0,0.7c-0.2,0.6-0.1,0.7,0.1,0.3c-0.2,0.2-0.5,0.4-0.7,0.7c1.2-0.4,2.5-0.3,3.6-1.1
				C208.2,214,208.2,212.3,207.2,211.7L207.2,211.7z"/>
		</g>
	</g>
	<g>
		<g>
			<path class="st4" d="M202.1,226.1c-0.1,2.8,1.7,5.1,4,6.4c2.1,1.2,5.8,2.9,8.3,2.2c2.7-0.7,3.3-4.3,1.6-6.4
				c-2.2-2.6-7.4-3.6-10.6-4.2c-2.9-0.5-3.1,5.1-0.4,5.5c1.7,0.3,3.4,0.6,5,1.2c0.7,0.2,1.4,0.5,2,0.8c0.3,0.1,0.5,0.2,0.8,0.4
				c0.9,0.7,1.1,0.5,0.5-0.6c0.2-0.6,0.3-1.3,0.5-1.9c0.2-0.3-0.3,0.1-0.7,0c-0.5,0-1-0.1-1.6-0.3c-1-0.2-2.1-0.5-3.1-0.9
				c-2-0.8-3.2-2-4.6-3.6C203,223.5,202.1,225,202.1,226.1L202.1,226.1z"/>
		</g>
	</g>
	<g>
		<g>
			<path class="st4" d="M217.8,217.8c-1.8,2.5-0.4,6.3,1.8,8.1c0.9,0.8,2.4,1.5,3.6,1.3c2.1-0.3,2.1-3,1.8-4.6
				c-0.3-1.6-1-3.2-2.2-4.4c-0.9-1-2.5-2.1-3.9-1.6c-1.6,0.6-2,2.7-1.7,4.2c0.1,0.7,0.4,1.2,0.7,1.8c0.3,0.6,0.4,1.2,0.8,1.8
				c0.4,0.6,1.1,0.8,1.6,0.3c0.9-0.8,0.9-2.3,0.7-3.3c-0.1-0.5-0.3-0.9-0.5-1.4c-0.1-0.2-0.1-0.4-0.2-0.5c-0.1-0.2,0,0,0,0.2
				c-0.1,0.4-0.1,0.9-0.2,1.3c-0.6,0.4-0.7,0.6-0.2,0.6c0.2,0.1,0.4,0.1,0.5,0.2c0.3,0.2,0.6,0.5,0.9,0.8c0.2,0.2,0.4,0.5,0.5,0.8
				c0.3,0.7,0,0.6,0.4-0.2c0.2-0.2,0.4-0.4,0.7-0.6c-0.8,0.4-2.1-0.5-2.5-1.1c-0.6-0.7-0.8-1.6-0.8-2.5
				C219.5,217.9,218.6,216.7,217.8,217.8L217.8,217.8z"/>
		</g>
	</g>
	<g>
		<g>
			<path class="st4" d="M223.9,231.9c-1.8,2-0.3,5.3,1.1,7c1.6,1.9,3.9,3.2,6.5,3.2c3.1-0.1,3.8-3.7,2.4-6c-1.6-2.5-5.1-3.8-7.8-4.6
				c-2.5-0.7-3,4.6-0.8,5.2c1.2,0.3,2.4,0.7,3.5,1.2c0.5,0.2,1,0.5,1.5,0.7c0.3,0.1,0.5,0.3,0.8,0.5c0.5,0.5,0.6,0.3,0.2-0.8
				c0.2-0.5,0.5-1,0.7-1.5c-0.4,0.5-1.8,0.1-2.4-0.1c-0.8-0.3-1.6-0.7-2.3-1.4c-1.1-1-1.3-3.1-2.6-3.7
				C224.5,231.6,224.1,231.7,223.9,231.9L223.9,231.9z"/>
		</g>
	</g>
	<g>
		<g>
			<path class="st4" d="M241.6,242.7c-3.4-0.6-3.6,4.3-2.5,6.4c0.8,1.5,2.1,2.4,3.6,3.2c1.7,1,3.6,2.2,5.5,2.9
				c3.6,1.3,5.4-2.6,4.1-5.6c-0.6-1.5-2-2.3-3.4-3.1c-2.2-1.1-4.4-2.3-6.6-3.4c-0.4-0.2-1.1,0-1.4,0.3c-0.1,0.1-0.3,0.3-0.4,0.4
				c-0.5,0.5-0.7,1.5-0.5,2.1c0.6,2.3,1.9,2.6,3.9,3.6c0.9,0.4,1.9,0.9,2.8,1.3c0.3,0.1,2.6,1.5,2.8,1.5c0.1-0.6,0.2-1.3,0.3-1.9
				c-0.2,0-0.4,0-0.5-0.1c-0.2-0.2-0.7-0.3-1-0.4c-0.9-0.4-1.7-0.9-2.6-1.3c-0.8-0.4-4.5-1.8-3.6-2.8
				C242.5,245.1,242.8,242.9,241.6,242.7L241.6,242.7z"/>
		</g>
	</g>
	<g>
		<g>
			<path class="st4" d="M238.4,231.3c-0.7-0.8-1.2-0.8-2-0.6c-1.4,0.3-1.6,1.8-1.4,3c0.3,2.4,2.7,3.7,4.6,4.9c1.6,1,4.5,3,6.4,1.8
				c2.1-1.4,1.5-4.7,0-6.3c-1.8-1.8-4.8-2.7-7.2-3.4c-2.7-0.7-3.1,5-0.9,5.5c1.2,0.2,2.3,0.6,3.4,1c0.5,0.2,1,0.4,1.5,0.6
				c0.9,0.4,1.1,1.1,1-0.3c0.2-0.6,0.3-1.2,0.5-1.8c0.2-0.3,0.1,0-0.3-0.3c-0.3-0.2-0.8-0.3-1.1-0.5c-0.8-0.4-1.6-0.8-2.4-1.2
				c-0.7-0.4-1.5-0.8-2.2-1.3c0,0-0.9-0.6-0.6-0.3c0.2,0.3-0.1-0.4-0.2-0.6c0,0.8-0.1,1.6-0.1,2.5c-0.1,0-0.2-0.1-0.4-0.1
				C238.6,235,239.2,232.2,238.4,231.3L238.4,231.3z"/>
		</g>
	</g>
	<g>
		<g>
			<path class="st4" d="M258.9,249.5c1.9,4.1,5,7.5,9.4,8.6c1.2,0.3,2-0.8,2.1-1.9c0.5-4.8-2.5-7.9-6.7-9.6
				c-1.6-0.7-3.6-1.4-4.7,0.6c-0.8,1.5-0.6,5.3,1.8,5.1c0.9-0.1,1.3-1,1.5-1.8c0.2-1-0.1-1.7-0.6-2.6c0.2,0.6,0.4,1.2,0.5,1.8
				c-0.1,0.4-0.2,0.7-0.3,1.1c-0.3,0.3-0.5,0.5-0.8,0.7c1-0.6,6,1.8,5.9,3.3c0.7-0.6,1.4-1.3,2.1-1.9c-3.4-0.9-6.6-2.7-8.3-5.9
				c-0.4-0.7-1.2-0.6-1.7-0.1C258.6,247.6,258.6,248.8,258.9,249.5L258.9,249.5z"/>
		</g>
	</g>
	<g>
		<g>
			<path class="st4" d="M82.9,28c6.9-0.8,6.6,8.1,9.2,12.4c2,3.2,9.8,5.5,8.1,10.4c-0.2,0.5,0.3,1.6,0.8,0.9c3.5-5.6-4.8-8.7-7.3-12
				c-3.1-4-3.2-14.7-11-12.7C82.4,27,82.5,28.1,82.9,28L82.9,28z"/>
		</g>
	</g>
	<g>
		<g>
			<path class="st4" d="M93.1,25.2c8.3-7.5,18.4-7.2,25.4,1.9c0.4,0.5,0.7-0.3,0.6-0.7c-5-10.2-19.9-11.9-26.4-2.1
				C92.5,24.6,92.7,25.6,93.1,25.2L93.1,25.2z"/>
		</g>
	</g>
	<g>
		<g>
			<path class="st4" d="M161.9,51.4c2.8-0.5,5.5-1.1,8.3-1.1c2.8-0.1,5.6,0.6,8.4,0.6c0.7,0,0.7-1.5,0.1-1.7c-5-2-12.1-1.1-17,0.6
				C161.1,49.9,161.2,51.5,161.9,51.4L161.9,51.4z"/>
		</g>
	</g>
	<g>
		<g>
			<path class="st4" d="M376.9,143.1c7.2,1.7,14.5,2.7,21.8,3.7c8,1.1,16.4,2.8,24.4,2.1c10-0.9,19.3-8.2,18.9-18.9
				c0-0.8-1.1-1.8-1.5-0.6c-4,14.8-14.5,17.4-28.4,16c-11.8-1.2-23.3-3.3-35-4.9C376,140.3,375.9,142.9,376.9,143.1L376.9,143.1z"/>
		</g>
	</g>
	<g>
		<g>
			<path class="st4" d="M175.4,82.8c-2.1-2.6-2.5-5.6-1.2-8.9c0.2-0.5,0.4-1.1,0.6-1.6c1-2.5,2.5-4.7,4.1-6.8c2.2-3,4.7-5.6,6.2-9
				c0.3-0.6-0.3-2.7-1.2-1.7c-4.4,4.9-9.6,11.6-11.1,18.1c-0.6,2.6-1.4,10.3,2.3,11.2c0.1,0,0.3,0,0.3-0.1c0.1-0.1,0.2-0.3,0.2-0.4
				C175.8,83.3,175.8,82.5,175.4,82.8L175.4,82.8z"/>
		</g>
	</g>
	<g>
		<g>
			<path class="st4" d="M237.6,131c-1.5-7.1,2.9-12.7,9.6-14.5c4.1-1.1,7.9-2,9.4-6.3c0.4-1-0.8-2.7-1.4-1.2
				c-1.9,4.7-7.3,4.3-11.2,6.1c-1.9,0.8-3.5,2.1-4.7,3.7c-2.8,3.5-3.7,8.3-2.4,12.5C237,132.1,237.7,131.6,237.6,131L237.6,131z"/>
		</g>
	</g>
	<g>
		<g>
			<path class="st4" d="M277.4,151.5c-3.4-10,3.7-11.7,6.1-18.9c1.3-4,0-9,3.7-11.8c0.4-0.3,0.4-1.9-0.4-1.8c-2.4,0.4-3.2,1.5-4,3.8
				c-1.4,4.3-0.3,8.1-2.9,12.5c-3.3,5.7-6.1,10.2-3.3,16.9C277.1,152.9,277.6,152,277.4,151.5L277.4,151.5z"/>
		</g>
	</g>
	<g>
		<g>
			<path class="st4" d="M325,157.9c1.9-2.1,3.3-4.9,3.1-7.9c-0.1-1.4-0.6-2.7-1.2-4c-0.5-0.9-5.7-8.9-3.1-8.6
				c0.7,0.1,0.6-1.3,0.2-1.6c-0.3-0.3-0.6-0.5-0.9-0.8c-0.5-0.4-0.9,0-1.1,0.5c-1,2.3-0.7,4.6,0.3,6.9c0.5,1.2,1.3,2.2,2.1,3.3
				c2.5,3.7,2.4,7.4,0,11.2C324.1,157.2,324.5,158.5,325,157.9L325,157.9z"/>
		</g>
	</g>
	<g>
		<g>
			<path class="st4" d="M373.8,161c2.3-1,2.5-3.9,1.5-6c-0.9-1.8-2.7-2.8-4.2-4c-2.6-1.9-3.3-3.9-4.2-6.8c-0.2-0.8-1-0.4-1.1,0.2
				c-0.4,2.3,0.6,4.6,2,6.4c0.8,0.9,1.7,1.7,2.7,2.3c0.7,0.5,1.6,0.9,2.3,1.4c1.3,0.9,4.3,3.7,0.8,5.3
				C373.1,160.1,373.3,161.3,373.8,161L373.8,161z"/>
		</g>
	</g>
	<g>
		<g>
			<path class="st4" d="M414.7,164.1c0-2.6-1.3-4.4-3.6-5.7c-2-1.1-4.5-1.3-6.4-2.7c-2.7-2-4-5.4-3-8.7c-0.3,0.2-0.6,0.4-0.8,0.5
				c0.4,0.2,0.8,0.4,1.2,0.6c0.8,0.4,0.7-1.2,0.4-1.6c-0.4-0.4-0.7-0.7-1.1-1.1c-0.4-0.4-0.9,0-1,0.4c-0.8,3.1-0.5,6.3,1.3,9.1
				c0.9,1.3,2,2.4,3.4,3.2c2.9,1.6,8.4,1.6,8.8,5.9C413.9,165,414.7,165,414.7,164.1L414.7,164.1z"/>
		</g>
	</g>
	<g>
		<g>
			<path class="st4" d="M454.3,160.5c-1-3.4-3.9-4.9-7.2-5.6c-2.9-0.6-5.8-0.6-8.4-2c-1.3-0.7-2.3-1.5-3.3-2.5
				c-0.6-0.7-1.2-1.3-1.7-2c-0.4-1.1-1.2-1.5-2.4-1.3c-0.1-0.6-0.1-1.2-0.2-1.8c0,0.1-0.1,0.1-0.1,0.2c-0.4,0.6,0,2.5,0.9,1.7
				c0.1,0,0.1-0.1,0.2-0.1c0.5-0.4,0.4-1.3,0.1-1.8c-0.3-0.5-0.5-0.6-1.1-0.7c-0.5,0-0.7,0.6-0.8,0.9c-0.5,3.1,3.7,6.7,5.9,8.4
				c5,3.8,14.4,1,17.4,7.1C454,161.8,454.5,161,454.3,160.5L454.3,160.5z"/>
		</g>
	</g>
	<g>
		<g>
			<path class="st4" d="M176.9,107.4c9,2,15.9,6.9,22.4,13.2c0.5,0.4,0.7-0.7,0.5-1c-5.2-7.6-13.9-11.9-22.8-13.3
				C176.5,106.2,176.5,107.3,176.9,107.4L176.9,107.4z"/>
		</g>
	</g>
	<g>
		<g>
			<path class="st4" d="M179.3,102.7c12.1,3.6,21.2,8.8,29.2,18.8c0.5,0.6,0.8-0.5,0.6-0.9c-6.3-9.8-18-17.8-29.7-18.9
				C178.9,101.6,178.9,102.6,179.3,102.7L179.3,102.7z"/>
		</g>
	</g>
	<g>
		<g>
			<path class="st4" d="M182.3,97.2c16.1,4.7,28.5,13.9,38.7,27.2c0.6,0.8,1-0.6,0.7-1.1c-8.4-14-23.3-23.9-39.2-27.2
				C181.9,95.9,181.8,97.1,182.3,97.2L182.3,97.2z"/>
		</g>
	</g>
	<g>
		<g>
			<path class="st4" d="M152,53.3c0.6,13.6-3.8,24.5-11.6,35.3c-0.3,0.4,0.1,1.7,0.6,1.2c9-9.6,12.6-23.6,11.8-36.5
				C152.7,52.5,151.9,52.5,152,53.3L152,53.3z"/>
		</g>
	</g>
	<g>
		<g>
			<path class="st4" d="M153.2,56.5c2.4,13.6,0,26.7-6.8,38.7c-0.4,0.7,0.3,2.5,1,1.4c7.3-12.3,9.6-26.5,6.6-40.4
				C153.8,55.3,153.1,55.8,153.2,56.5L153.2,56.5z"/>
		</g>
	</g>
	<g>
		<g>
			<path class="st4" d="M441.8,184c-0.3,0-0.6,0.1-0.9,0.1c-0.3,0-0.7-0.2-1.1-0.3c-0.7,0-1.3,0-2,0.2c-1.9,0.4-2.7,2.3-2.6,4.1
				c0.1,1,0.2,2.1,0.9,2.9c0.4,0.5,1.2,1.3,1.9,1.1c2-0.4,3.8-1,5.7-1.8c1.8-0.8,2.2-3.5,1.8-5.2c-0.3-1.4-1.6-3.8-3.5-2.9
				c-1.6,0.8-3.2,1.4-4.9,1.9c0.5,2.6,1.1,5.2,1.6,7.8c0.7-0.4,1.4-0.9,2.1-1.4c0.6-0.4,0.9-1,1.5-1.4c1-0.6,1.3-1.8,1.2-3
				C443.5,185.4,443,183.8,441.8,184L441.8,184z"/>
		</g>
	</g>
	<g>
		<g>
			<path class="st5" d="M449.8,185.2c0.5,0.6,1.2,0.9,2,1.1c0.7,0.2,1.6,0.5,2.2,0.4c3.2-0.3,3.3-6,1.2-7.6
				c-1.5-1.1-4.2-1.3-5.5,0.3C448.2,181.1,448.3,183.6,449.8,185.2L449.8,185.2z"/>
		</g>
	</g>
	<g>
		<g>
			<path class="st4" d="M461.6,183.5c-0.5-0.5,0.5,0.5,0.7,0.6c0.3,0.2,0.5,0.2,0.8,0.3c0.8,0.2,1.4,0.2,2.3,0
				c0.7-0.2,1.4-1.3,1.6-2c0.3-0.9,0.4-1.8,0.3-2.7c-0.1-0.8-0.3-1.7-0.8-2.4c-0.4-0.6-1.2-1.3-2-1.2c-0.4,0.1-0.9,0.1-1.3,0.4
				c-0.3,0.2-0.7,0.5-1,0.7c-0.7,0.6-1,1.3-1.4,2.1C460.2,180.7,460.6,182.4,461.6,183.5L461.6,183.5z"/>
		</g>
	</g>
	<g>
		<g>
			<path class="st6" d="M148.1,39.5c0,0-15.2-26.5-56.4-27c-41.2-0.5-23.5,20.1-23.5,20.1s-3.4,14.2-2,18.6
				c1.5,4.4,6.4,14.2,18.2,22.1c11.8,7.8,22.1,9.3,29.9,14.2c7.8,4.9,23.5,15.2,25.5,22.6c2,7.4,15.2,33.4,53.5,53
				c38.3,19.6,139.3,34.3,176.6,19.6c37.3-14.7,37.8-12.3,37.8-12.3s36.8-13.7,38.3-14.7c1.5-1-58.4-88.8-157.5-111.8
				C189.3,20.9,148.1,39.5,148.1,39.5z"/>
		</g>
	</g>
	<g>
		<g>
			<path class="st1" d="M179.7,88.5c0,0-2.2,18.8-9.1,21.7c-6.9,2.9-31.9-3.9-33.4,25.5c-1.5,29.4,44.6,82.4,60.8,94.7
				c16.2,12.3,55.4,34.8,70.6,39.2C284,274,307,276,307,271.1c0-4.9-28.9-29.4-41.2-35.3c-12.3-5.9-11.3-27.5-19.6-35.8
				c-8.3-8.3-25.8-46.8-30.4-57.4c-4.1-9.5-16.7-11.8-16.7-11.8s25.1,2.5,20.9-9.6C213.7,103,179.7,88.5,179.7,88.5z"/>
		</g>
	</g>
	<g>
		<g>
			<path class="st7" d="M91.7,28.3c0,0,7.4-15.2,20.1-9.8c12.8,5.4,10.3,18.2,4.9,22.1c-5.4,3.9-11.3,7.4-20.1,2.9
				C87.7,39.1,91.7,28.3,91.7,28.3z"/>
		</g>
	</g>
	<g>
		<g>
			<path class="st3" d="M103.9,41c-3.2-2.7,9.8-15.7,14.2-12.3c4.4,3.4-2,9.3-4.9,11.3C110.3,42,107.4,44,103.9,41z"/>
		</g>
	</g>
	<g>
		<g>
			<path class="st4" d="M78.8,29.7c0-0.5,0.1-1,0.3-1.5c-0.1,0.1-0.2,0.2-0.4,0.2c0.1,0,0.2,0,0.2,0c0.9,0,0.9-1.6,0.5-2.1
				c-0.6-0.8-1.4,0.1-1.3,0.9c0,0.4-0.1,0.9-0.2,1.3c0,0.5,0.1,0.8,0.2,1.3C78.3,30.4,78.8,30.3,78.8,29.7L78.8,29.7z"/>
		</g>
	</g>
	<g>
		<g>
			<path class="st4" d="M73.5,28.7c0-0.8,0.7-1.2,0.8-1.9c0.1-0.3-0.1-0.7-0.4-0.9c-0.7-0.3-1.1,0.6-1.3,1.1c-0.3,0.7-0.2,1.4,0,2.1
				C72.9,29.8,73.6,29.2,73.5,28.7L73.5,28.7z"/>
		</g>
	</g>
	<g>
		<g>
			<path class="st4" d="M113.5,31.5c-0.5,0.2-1,0.3-1.5,0.6c-0.6,0.3-1,0.8-1.4,1.3c-0.9,1.1-1.3,2.3-1.6,3.7
				c-0.2,0.8,0.2,2.6,1.4,2.6c3-0.1,5.2-2.6,5.6-5.4c0.1-1-0.2-2.5-1.4-2.6c-1.5-0.2-2.4,1.2-2.3,2.6c0,0.6,0.3,1.3,0.9,1.5
				c0.5,0.2,1,0,1.5,0c-0.5-0.9-0.9-1.7-1.4-2.6c-0.2,1.4-1.7,2.3-3,2.4c0.5,0.9,0.9,1.7,1.4,2.6c0.4-1.5,1.5-3.3,2.5-4.3
				C114.8,33.2,114.7,31.1,113.5,31.5L113.5,31.5z"/>
		</g>
	</g>
	<g>
		<g>
			<path class="st8" d="M66.3,51c1.9,0.5,4-0.2,5.6,0.3c1.8,0.5,1.9,1.9,3.3,2.8c2.4,1.6,4,1.3,6.6,1.7c4.2,0.7,7.2,3.6,10.9,5.3
				c3.2,1.5,6.6,2.5,9.8,4.1c3.3,1.7,6.2,4,9.4,5.7c4.8,2.5,10.1,3.5,14.4-0.1c0.6-0.5,0.2-2.7-0.6-2.1c-9.3,6-18.6-4.8-27.1-8.3
				c-4.4-1.8-8-4.4-12.1-6.5c-4.6-2.3-9.2,0.1-12.9-4.8c-0.2-0.2-0.4-0.3-0.7-0.3c-2.1,0.8-4.3,0.9-6.4,0.3
				C65.6,48.9,65.5,50.8,66.3,51L66.3,51z"/>
		</g>
	</g>
	<g>
		<g>
			<g>
				<path class="st5" d="M114.2,49.4c-0.6-1-1.8-1.3-3-1.1c-1.5,0.2-2.6,1.6-3.1,3c-1.3,3.5,0.8,8.9,3.9,10.9c3.1,2,6-1.2,6.5-4.2
					C119.2,54.2,117,51.5,114.2,49.4z"/>
			</g>
		</g>
		<g>
			<g>
				<path class="st5" d="M123,55.4c2.9,2.1,6.2,0.2,7.5-2.7c1.5-3.4,0.5-7.7-1.5-10.7c-1.7-2.5-5-3.7-6.5-0.5c-1.9,1.1-2.7,4-2.8,6
					C119.6,50.3,120.6,53.6,123,55.4z"/>
			</g>
		</g>
		<g>
			<g>
				<path class="st4" d="M127.5,37.4c1.4,0.9,3.3,0.7,4.6-0.4c1.7-1.5,1.8-4.2,0.8-6.1c-0.9-1.7-2.9-2.9-4.8-1.9
					c-0.3,0.1-0.5,0.3-0.6,0.5c-0.4,0-0.8,0.2-1,0.8c-0.3,1.2-0.4,2.5-0.4,3.7C126.1,35.5,126.3,36.7,127.5,37.4z M130.4,34.2
					C130.4,34.3,130.4,34.4,130.4,34.2L130.4,34.2z M130.4,34.2C130.4,34.2,130.4,34.2,130.4,34.2C130.4,34.2,130.4,34.2,130.4,34.2
					z M130.4,33.1C130.5,33.1,130.5,33.2,130.4,33.1L130.4,33.1z"/>
			</g>
		</g>
		<g>
			<g>
				<path class="st9" d="M140.1,37.5c-1.7-0.8-2.8-0.3-3.4,0.8c-3,2.7-4.4,7.9-2.3,11.4c0.9,1.4,2.3,2.7,4,2.9
					c2.3,0.3,3.4-1.2,3.8-3.2C142.9,46.3,144,39.3,140.1,37.5z"/>
			</g>
		</g>
		<g>
			<g>
				<path class="st4" d="M133.6,55.2C133.6,55.2,133.5,55.3,133.6,55.2c-1.5,0.4-2.7,1.1-4,2c-1.1,0.8-0.9,3.1-0.2,4.1
					c2.2,3.3,7,3.7,9-0.1c1-1.9,1-4.7-0.6-6.3C136.4,53.7,134.5,53.5,133.6,55.2z"/>
			</g>
		</g>
		<g>
			<g>
				<path class="st4" d="M124.2,58c-0.6-0.4-1.1-0.4-1.7,0c-1.3,0.9-1.3,3.4-0.7,4.7c0.5,1.2,1.3,2,2.6,2.2c0.7,0.1,1.3-0.8,1.4-1.3
					c0.1-0.4,0.2-0.8,0.2-1.2C126.1,60.8,125.6,59,124.2,58z M124.3,59.8C124.4,59.8,124.4,59.8,124.3,59.8
					C124.3,59.8,124.3,59.8,124.3,59.8C124.3,59.8,124.3,59.8,124.3,59.8z"/>
			</g>
		</g>
		<g>
			<g>
				<path class="st5" d="M149,52.4c0-1.1-0.6-2.8-1.9-2.8c-0.3,0-0.6,0.1-0.9,0.3c-0.9-0.5-1.5,1.5-1.2,2.4c0.2,0.4-1.6,1.9-1.9,2.2
					c-0.7,0.9-1.3,1.8-1.5,2.9c-0.4,1.9,0.2,4.4,1.9,5.5C147.8,65.8,149.1,54.7,149,52.4z"/>
			</g>
		</g>
	</g>
	<g>
		<g>
			<g>
				<path class="st5" d="M211.3,144.4c1.5-1.1,1.3-5-0.6-5.6c-0.2-0.1-0.4-0.1-0.6-0.2c-4.2-2.3-8.7-2.7-13.6-2.5
					c-4.6,0.2-5.6,3.3-5.3,7.6c0.2,3.5,2,7.9,6.2,7.7C202.3,151.2,207.6,147.2,211.3,144.4z"/>
			</g>
		</g>
		<g>
			<g>
				<path class="st5" d="M213.9,160.3c1.8-1.6,3.7-3.4,4.1-5.7c1.1-0.1,0.9-2.3,0.3-2.8c-0.2-0.2-0.5-0.4-0.7-0.5
					c-0.9-1.9-2.9-2.3-5.2-1.9c-1.7-0.2-3.6,0-5.5,0.5c-3,0.6-7.9,1.5-10.1,4c-3.9,4.6,1.7,13.8,7.4,12.7
					C207.8,165.9,211.3,162.7,213.9,160.3z"/>
			</g>
		</g>
		<g>
			<g>
				<path class="st5" d="M225.1,170.2c0.3-0.1,0.6-0.5,0.5-1.1c-0.2-2.6-1.8-5-4.4-5.9c-3.8-1.4-7.3,1.6-10.2,3.7
					c-2.8,2.1-6.8,4.1-7,8c-0.2,3.4,2.4,5.7,5.6,6.4C215.6,182.6,224.5,176.7,225.1,170.2z"/>
			</g>
		</g>
		<g>
			<g>
				<path class="st4" d="M234.7,185.5c-0.3-1.1-0.8-2.1-1.4-2.8c-0.6-1.1-1.3-2.1-2.4-2.8c-3-2-5-0.7-7.5,1.3c-2.3,1.9-6.4,4-7,7.2
					c-0.5,2.6,0.8,4.9,3.4,5.3c3.5,0.5,8.3-0.7,11.6-2C234,190.7,235.4,188.3,234.7,185.5z"/>
			</g>
		</g>
		<g>
			<g>
				<path class="st9" d="M247.4,205c-1.3-3.9-5.7-7.3-9-9.5c-2.5-1.7-6.3-4-8.6-0.7c-0.2,0.3-0.4,0.6-0.5,0.9
					c-0.9,0.6-1.5,1.6-1.9,3.1c-0.8,3.8,2.1,7,4.9,9C236.4,210.7,250.6,215,247.4,205z"/>
			</g>
		</g>
	</g>
	<g>
		<g>
			<g>
				<path class="st4" d="M149.6,140.9c3.6-1.7,7.1-4.2,8.5-8.1c0.2-0.4,0.2-0.9,0.2-1.4c0.3-0.4,0.3-1,0-1.4
					c-2.1-2.9-7.2-1.7-10-0.4c-3,1.4-6.2,4.4-5.8,8C142.8,141.6,146.5,142.4,149.6,140.9z M146,136.4c0,0.2,0.1,0.4,0.1,0.6
					C145.6,137,145.7,136.8,146,136.4z"/>
			</g>
		</g>
		<g>
			<g>
				<path class="st5" d="M145.6,128c3.2-0.5,5.8-2.1,7.8-4.7c0.7-0.9,0.6-3.5-0.7-3.8c-3.1-0.7-6.6,0.9-7.9,3.8
					C143.4,124.4,143.8,128.3,145.6,128z"/>
			</g>
		</g>
		<g>
			<g>
				<path class="st9" d="M170.6,129.9c1.9-0.1,2-3.4,1.1-4.5c-1.6-1.9-5.9-5.2-8.6-4c-0.5-0.1-0.9-0.1-1.4,0
					c-2.1,0.3-1.8,3.5-0.7,4.7C163.5,128.6,167,130,170.6,129.9z"/>
			</g>
		</g>
		<g>
			<g>
				<path class="st4" d="M171.3,137.7c0.4-2.7-1.3-4.9-3.8-5.2c-1.5-0.9-3.5-0.9-4.5,0.6c-1.9,2.8,0.2,5.7,2.6,7.1
					C168,141.8,170.8,140.7,171.3,137.7z"/>
			</g>
		</g>
		<g>
			<g>
				<path class="st9" d="M156.5,139.3c-0.5,0.3-0.8,0.8-1,1.3c-0.7,0.7-1.4,1.6-2,2.3c-1,1.1-1.2,3.4,0.1,4.4
					c1.5,1.2,3.4,1.8,5.3,1.8c1,0,1.5-1.2,1.6-2c0.4-2.6-0.2-5.3-1.8-7.4C158.1,138.9,157.3,138.7,156.5,139.3z"/>
			</g>
		</g>
		<g>
			<g>
				<path class="st5" d="M156.4,160.6c1.9-2.2,4.4-5.4,2.1-8.3c-1-1.3-2.9-2-4.2-2.8c-1.7-1-3.4-2-5.1-3c-0.4-0.2-0.7-0.2-1.1,0
					c-0.5-0.1-1-0.2-1.5-0.1c-1.9,0.2-1.9,2.8-1.4,4.1c1.1,3.3,2.6,6.6,4.7,9.4C151.8,162.5,154.1,163.3,156.4,160.6z"/>
			</g>
		</g>
		<g>
			<g>
				<path class="st5" d="M171.1,160.5c4-1.2,7.8-7,7.4-11.2c-0.5-5.6-5.7-6.7-10.3-6.1c-0.4,0.1-0.7,0.2-1,0.5
					c-2.5,1.3-3.6,5.2-3.5,7.9C163.9,155.8,165.7,162.1,171.1,160.5z M170.6,154.8c0.1-0.1,0.1-0.2,0.2-0.3c0.1,0,0.1,0.1,0.2,0.1
					c0,0,0,0,0,0C170.8,154.7,170.7,154.8,170.6,154.8z"/>
			</g>
		</g>
		<g>
			<g>
				<path class="st4" d="M180.4,141.1c2.4-0.3,3.1-3,2.7-5.1c-0.5-2.1-2.1-3.4-4.3-3.1c-0.1,0-0.3,0.1-0.4,0.1
					c-0.7-0.4-1.5-0.5-2.4-0.5c-0.8,0-1.2,0.8-1.5,1.4c-0.9,1.9-0.3,4.4,1.1,5.9C176.8,141,178.8,141.3,180.4,141.1z"/>
			</g>
		</g>
		<g>
			<g>
				<path class="st4" d="M166.3,166.5c0.1-2-0.9-4.1-2.8-4.8c-2.5-0.9-5,0.8-6.6,2.9c-1.7,1.4-2.7,3.5-2.6,5.6
					c0.1,1.7,1.1,3.9,3.1,4c2,0.2,4.4-2,6-3C165,170.1,166.2,168.7,166.3,166.5z"/>
			</g>
		</g>
		<g>
			<g>
				<path class="st4" d="M173.7,170.7c1.2-0.2,2.4-0.6,3.4-1.4c1.5-1.1,1.8-2.6,1.3-4.3c-0.3-1.2-1.2-2.6-2.6-2.6
					c-0.2,0-0.3,0-0.4,0.1c-2-1.1-4.4,0.6-5.3,2.4c-0.8,1.5-0.9,3.7,0.4,5C171.2,170.7,172.6,170.8,173.7,170.7z"/>
			</g>
		</g>
		<g>
			<g>
				<path class="st5" d="M179.1,183.8c0.7-1.2,0.6-2.9-0.1-4c-2.2-3.4-5.1-7.3-9.7-6.7c-0.1,0-0.2,0-0.3,0.1
					c-0.2-0.1-0.4-0.1-0.6-0.1c-6.2,1.5-9.5,9.9-4.9,14.9C168.7,193.4,175.9,189,179.1,183.8z M167.3,184.5
					C167.3,184.5,167.3,184.5,167.3,184.5C167.3,184.5,167.2,184.5,167.3,184.5C167.2,184.5,167.3,184.5,167.3,184.5z"/>
			</g>
		</g>
		<g>
			<g>
				<path class="st4" d="M181.9,172.2c-1.2-0.3-1.3,1.7-1,2.4c1.5,4.4,7,8.3,11.5,5.8c1.7-0.9,1.4-3.5,0.3-4.7
					c-2.2-2.4-7.5-6-10.6-3.7C181.9,172.1,181.9,172.2,181.9,172.2z"/>
			</g>
		</g>
		<g>
			<g>
				<path class="st4" d="M184.8,184.8c-0.2-0.1-0.3-0.1-0.5-0.1c-0.3-0.9-1.3-1-1.5,0.2c-0.6,2.9-3.1,8.3,0,10.5
					c2.6,1.8,7.6,0.1,10.2-1c1.6-0.7,1.5-3.7,0.3-4.7C190.8,187.6,187.9,186,184.8,184.8z M186.2,190.8c0.1,0.1,0.3,0.1,0.4,0.2
					c-0.1,0-0.3,0-0.4,0C186.2,191,186.2,190.9,186.2,190.8z"/>
			</g>
		</g>
		<g>
			<g>
				<path class="st9" d="M177.4,190.2c-1.4,0-2.6,0.4-3.7,1.2c-0.1,0.1-0.2,0.2-0.3,0.4c-0.4,0.2-0.7,0.5-1,0.9
					c-1.1,1.8-0.3,4.3,1.3,5.6c1.3,1,3.3,2.1,4.6,0.5c1.3-1.6,0.8-4.3,0.8-6.3C179,191.6,178.5,190.3,177.4,190.2z"/>
			</g>
		</g>
		<g>
			<g>
				<path class="st4" d="M197.2,188.7c0.7,0.6,1.5,1.2,2.5,1.1c2-0.1,3-2.4,3.1-4.1c0.1-2-0.9-4.1-2.9-4.7c-1.7-0.5-3.7,0.2-4.5,1.8
					c-1.5-0.6-1.6,2.4-1,3.1C195.3,187,196.2,187.9,197.2,188.7z M200,186C200,186,200,186,200,186C200,186,200,186,200,186z
					 M199.8,185.1C199.8,185,199.8,185.1,199.8,185.1C199.8,185,199.8,185,199.8,185.1z"/>
			</g>
		</g>
		<g>
			<g>
				<path class="st5" d="M195,204.3c-0.5-1.8-0.9-4.5-2.4-5.7c-1.5-1.2-3.9-0.7-5.5-0.5c-2.5,0.4-4.8,1.2-6.9,2.6
					c-0.9,0.6-1.2,3.6,0.4,3.4c0,0,0.1,0,0.1,0c0.1,0.2,0.2,0.5,0.3,0.6c2.7,4,6,8.2,9.9,11c3.5,2.6,5.8-0.2,5.6-3.9
					C196.2,209.3,195.7,206.8,195,204.3z"/>
			</g>
		</g>
		<g>
			<g>
				<path class="st4" d="M202.7,206.3c1.1-0.1,1.7-1.2,1.9-2.2c0.6-2,0.9-4.7,0.5-6.7c-0.3-1.9-1.8-4.2-4-3.8
					c-0.3,0.1-0.5,0.1-0.8,0.3c-0.9-0.2-1.8,0.2-2.6,1c-1.3,1.3-1.7,3.5-1.3,5.3c0.4,1.8,1.5,3.3,3,4.5c0.3,0.5,0.8,1,1.3,1
					C201.4,206,202,206.4,202.7,206.3z"/>
			</g>
		</g>
		<g>
			<g>
				<path class="st9" d="M210.2,218.1c1.3-0.9,1.8-3.3,0.7-4.6c-1.1-1.3-4-3.1-5.7-2.4c-0.5-0.1-1.1-0.1-1.6-0.2
					c-0.4-0.1-0.9-0.1-1.3,0.3c-1.9,2.2-1.5,5.5,0.5,7.5C205,220.8,208.1,219.6,210.2,218.1z"/>
			</g>
		</g>
		<g>
			<g>
				<path class="st4" d="M205.4,224.2c-0.7-0.1-1.2,0.1-1.5,0.5c-1-1-1.8,0.4-1.8,1.4c-0.1,2.8,1.7,5.1,4,6.4
					c2.1,1.2,5.8,2.9,8.3,2.2c2.7-0.7,3.3-4.3,1.6-6.4C213.8,225.8,208.6,224.8,205.4,224.2z"/>
			</g>
		</g>
		<g>
			<g>
				<path class="st4" d="M225,222.6c-0.3-1.6-1-3.2-2.2-4.4c-0.9-1-2.5-2.1-3.9-1.6c-1.1,0.4-1.6,1.4-1.7,2.5
					c-0.7,2.4,0.6,5.2,2.4,6.7c0.9,0.8,2.4,1.5,3.6,1.3C225.3,226.9,225.3,224.2,225,222.6z"/>
			</g>
		</g>
		<g>
			<g>
				<path class="st9" d="M226,231.6c-0.5-0.1-0.9,0-1.3,0.2c0,0,0,0-0.1,0c-0.3-0.1-0.7,0-0.8,0.2c-1.8,2-0.3,5.3,1.1,7
					c1.6,1.9,3.9,3.2,6.5,3.2c3.1-0.1,3.8-3.7,2.4-6C232.3,233.7,228.7,232.3,226,231.6z"/>
			</g>
		</g>
		<g>
			<g>
				<path class="st4" d="M248.8,246.4c-2.2-1.1-4.4-2.3-6.6-3.4c0,0,0,0,0,0c-0.1-0.2-0.3-0.3-0.6-0.4c-3.4-0.6-3.6,4.3-2.5,6.4
					c0.8,1.5,2.1,2.4,3.6,3.2c1.7,1,3.6,2.2,5.5,2.9c3.6,1.3,5.4-2.6,4.1-5.6C251.6,248,250.2,247.2,248.8,246.4z"/>
			</g>
		</g>
		<g>
			<g>
				<path class="st4" d="M246,240.4c2.1-1.4,1.5-4.7,0-6.3c-1.8-1.8-4.8-2.7-7.2-3.4c-0.3-0.1-0.7-0.1-0.9,0
					c-0.5-0.3-0.9-0.3-1.5-0.1c-1.4,0.3-1.6,1.8-1.4,3c0.3,2.4,2.7,3.7,4.6,4.9C241.2,239.6,244.1,241.6,246,240.4z"/>
			</g>
		</g>
		<g>
			<g>
				<path class="st9" d="M263.7,246.6c-1.6-0.7-3.5-1.3-4.6,0.4c-0.3,0.3-0.4,0.8-0.4,1.3c-0.2,1.6,0.2,3.7,1.7,3.9
					c1.9,2.8,4.5,5,7.9,5.9c1.2,0.3,2-0.8,2.1-1.9C270.9,251.4,267.9,248.3,263.7,246.6z"/>
			</g>
		</g>
	</g>
	<g>
		<g>
			<path class="st8" d="M81.9,29.6c6.9-0.8,6.6,8.1,9.2,12.4c2,3.2,9.8,5.5,8.1,10.4c-0.2,0.5,0.3,1.6,0.8,0.9
				c3.5-5.6-4.8-8.7-7.3-12c-3.1-4-3.2-14.7-11-12.7C81.4,28.6,81.5,29.7,81.9,29.6L81.9,29.6z"/>
		</g>
	</g>
	<g>
		<g>
			<path class="st0" d="M176.9,107.4c9,2,15.9,6.9,22.4,13.2c0.5,0.4,0.7-0.7,0.5-1c-5.2-7.6-13.9-11.9-22.8-13.3
				C176.5,106.2,176.5,107.3,176.9,107.4L176.9,107.4z"/>
		</g>
	</g>
	<g>
		<g>
			<path class="st0" d="M179.3,102.7c12.1,3.6,21.2,8.8,29.2,18.8c0.5,0.6,0.8-0.5,0.6-0.9c-6.3-9.8-18-17.8-29.7-18.9
				C178.9,101.6,178.9,102.6,179.3,102.7L179.3,102.7z"/>
		</g>
	</g>
	<g>
		<g>
			<path class="st0" d="M182.3,97.2c16.1,4.7,28.5,13.9,38.7,27.2c0.6,0.8,1-0.6,0.7-1.1c-8.4-14-23.3-23.9-39.2-27.2
				C181.9,95.9,181.8,97.1,182.3,97.2L182.3,97.2z"/>
		</g>
	</g>
	<g>
		<g>
			<g>
				<path class="st9" d="M451.8,190.1c-0.7-0.6-1.4-0.7-2-0.4c-0.5-0.1-1,0-1.6,0.5c-2.3,1.8-3.6,4.3-3.9,7.2
					c-0.2,2,0.3,5.2,2.8,5.3c1.2,0.1,2.3,0.3,3.5,0.6c2,0.5,3.3-1.4,3.5-3.2C454.5,197,454.4,192.4,451.8,190.1z M448.3,197.1
					C448.3,197.1,448.3,197.1,448.3,197.1C448.3,197.1,448.3,197.1,448.3,197.1C448.3,197.1,448.3,197.1,448.3,197.1z"/>
			</g>
		</g>
		<g>
			<g>
				<path class="st4" d="M466.7,207.4c-0.4-1.8-0.9-3.7-2.5-4.8c-2.5-1.7-7.2-0.2-9.4,1.5c-2,1.6-1.6,6.7,1.2,7.2
					c0.1,0.2,0.2,0.3,0.3,0.5c2.2,2.8,4.8,5,8,6.7c1.1,0.6,2.3-0.4,2.8-1.2c0.8-1.3,0.9-2.9,0.7-4.4
					C467.5,211,467.1,209.2,466.7,207.4z"/>
			</g>
		</g>
		<g>
			<g>
				<path class="st5" d="M491,215.5c-4.7-3-9.6-6-14.6-8.4c-1.3-0.6-2.3,0.4-2.9,1.5c-0.3,0.2-0.5,0.5-0.7,0.9
					c-1.7,4-0.2,10.7,3.4,13.2c4.2,2.8,10.9,2.8,15,0C493.1,221.5,493,216.8,491,215.5z"/>
			</g>
		</g>
		<g>
			<g>
				<path class="st9" d="M463.4,198.5c3.2,1.2,6.7,1.7,10.1,1.9c1.6,0.1,2.5-2,2.7-3.3c0.3-1.8-0.2-3.5-1.4-4.9
					c-2.4-2.6-6.6-5.1-10.3-4.6c-0.8,0.1-1.4,0.6-1.9,1.2c-0.6,0-1.2,0.2-1.6,1C459.3,192.7,460.1,197.2,463.4,198.5z"/>
			</g>
		</g>
		<g>
			<g>
				<path class="st5" d="M492.7,200.5c-1.4-0.8-2.9-1.6-4.5-2.1c-1.5-0.4-3.1-0.4-4.6-0.4c-2.8,0-2.9,5.4-1,6.7
					c2.5,1.7,5,3.5,7.9,4.7C494.5,211.1,495.5,202.2,492.7,200.5z"/>
			</g>
		</g>
		<g>
			<g>
				<path class="st9" d="M462.6,183.5C462.6,183.5,462.6,183.4,462.6,183.5C462.5,183.3,462.5,183.3,462.6,183.5z"/>
			</g>
		</g>
	</g>
	<g>
		<g>
			<path class="st4" d="M104.4,41c-1.4-4.2,3-8.2,6.2-9.9c2.7-1.4,8-2.3,7.9,2.4c0,0.6,0.6,1,0.9,0.3c0.6-1.6,0.1-3.4-1.2-4.6
				c-2.1-1.9-5.2-1.3-7.5-0.1c-4.4,2.1-9,7.3-6.9,12.5C104.1,42.3,104.5,41.5,104.4,41L104.4,41z"/>
		</g>
	</g>
	<g>
		<g>
			<path class="st10" d="M444.4,126.4c0.1,0,0.7,0,1.7,0C445.1,126.3,444.5,126.4,444.4,126.4z"/>
		</g>
	</g>
	<g>
		<g>
			<path class="st10" d="M444,125.9c0.1,0.1,0.2,0.3,0.3,0.3C444.2,126.2,444.1,126.1,444,125.9z"/>
		</g>
	</g>
	<g>
		<g>
			<path class="st10" d="M444.4,126.4c0,0,0,0-0.1-0.1C444.3,126.3,444.4,126.4,444.4,126.4L444.4,126.4z"/>
		</g>
	</g>
	<g>
		<g>
			<path class="st10" d="M420.7,171.9c-0.2,0-0.5,0-0.7-0.1C420.2,171.8,420.4,171.9,420.7,171.9z"/>
		</g>
	</g>
	<g>
		<g>
			<path class="st10" d="M185.3,55.2c-1.8-0.9-3.9-1.6-5.3-3.1c-0.5-0.5-0.8-1-1.1-1.6c-5.5,0-10.8,0.3-16.2,1.4
				c-0.3,0.1,2.3,13.1,2.7,14.3c1.5,4.3,4.9,8.4,8.9,11.1c-0.4-0.3-0.9-0.6-1.3-0.9C172.6,67.8,180.5,61.2,185.3,55.2z"/>
		</g>
	</g>
	<g>
		<g>
			<path class="st10" d="M279.8,38.7c23.2,2.1,45.3,14.1,60.4,31.9c0.2,0.2,0.3,0.4,0.5,0.6c-0.3-1.2-0.4-2.5-0.3-3.8
				c-0.2,0.1-0.1-0.2,0.1-0.6c0.4-2.1,1.6-3.9,2.2-5.9c0.8-2.6,0.9-5.1,0.6-7.6c0,0,0,0,0,0c-5-2.3-10.2-4.5-15.6-6.7
				c-0.2-0.1-0.4-0.2-0.6-0.2c-1.6-0.6-3.1-1.2-4.7-1.8c-0.3-0.1-0.5-0.2-0.8-0.3c-3.5-1.3-7.1-2.6-10.7-3.9c-0.5-0.2-1-0.3-1.4-0.5
				c-1.4-0.5-2.7-0.9-4.1-1.4c-0.5-0.2-1-0.3-1.6-0.5c-1.8-0.6-3.7-1.2-5.5-1.7c-2.3-0.7-4.6-1.4-6.9-2c-0.3-0.1-0.6-0.2-0.9-0.3
				c-2.3-0.7-4.6-1.3-6.8-1.9h0C282.7,34.3,281.4,36.8,279.8,38.7z"/>
		</g>
	</g>
	<g>
		<g>
			<path class="st10" d="M281.3,136.2c1.8-3.1,2.8-5.9,3-9.4c0.1-2,0.5-3.6,0.8-5.5c0-0.1-1.6-0.5-1.7-0.5
				c-15.6-4.5-31.4-15.1-43.9-25.1c-4.8-3.8-9.5-8-14-12.4c0,0.2-0.1,0.4-0.1,0.5c-3.5,3.6-9.2,2.3-12.7,6c-2.2,2.3-3.5,5.7-4.3,9
				c-0.2-0.2-0.5-0.5-0.7-0.7c0.7-3,2-6,3.5-8.2c3-4.8,9.2-4.5,13.8-7.1c-8.6-8.3-16.8-17.1-24.5-25.8c-2.7,4.1-4.9,1.8-10.8-0.4
				c-1-0.4-2.1-0.7-3.2-1c0.1,0.3,0.1,0.7,0,0.9c-1.6,3.1-4.4,4.9-6.6,7.5c-3,3.5-5.6,8.5-5.6,13.4c0,1.6,9.9,6.9,11.4,7.6
				c13,6,22.8,13.9,32.4,24.3c5.5,6,11.4,12.2,18.3,17.5c0.7-2.4,1.9-4.6,3.5-6.6c1.5-1.9,3.4-3.6,5.7-4.6c4-1.8,9.4-1.3,11.3-6.2
				c0.4-1,1.2,0.1,0.9,0.8c-1.6,4.5-5.8,5.1-10,6.3c-3.3,1-6.3,3.2-8.4,6c-0.7,0.9-2.7,3.4-2.4,4.6c0.3,1.3,2.4,2.3,3.4,2.9
				c6.3,3.7,12.8,7.3,19.6,10.1c3.4,1.4,6.9,2.6,10.5,3.5c3.1,0.8,7.2,1.9,10.4,1.4c-0.1,0-0.6,0.1-0.6,0.1
				C279.1,142,279.1,140.1,281.3,136.2z"/>
		</g>
	</g>
	<g>
		<g>
			<path class="st10" d="M218.8,24.5c1.9,2,3.9,4.2,6.4,5.4c4.5,2.2,10.3,1.6,15.2,2.3c9.8,1.4,18.9,6.4,28.8,7.6
				c6.4,0.8,10.5-3.1,13.1-8.3c0,0,0,0,0,0c-7-1.9-13.7-3.6-19.9-5c0,0,0,0-0.1,0c-6.3-1.4-12.1-2.5-17.7-3.5c-0.1,0-0.1,0-0.2,0
				c-1.3-0.2-2.6-0.4-3.8-0.6c-0.1,0-0.2,0-0.3-0.1c-4-0.6-7.8-1.1-11.4-1.4c-0.1,0-0.2,0-0.3,0c-1.1-0.1-2.1-0.2-3.2-0.3
				c-0.2,0-0.4,0-0.6,0c-1-0.1-2-0.2-2.9-0.2c-0.2,0-0.3,0-0.5,0c-2.3-0.1-4.5-0.3-6.6-0.3c0,0,0,0,0,0
				C216,21.5,217.4,23,218.8,24.5z"/>
		</g>
	</g>
	<g>
		<g>
			<path class="st10" d="M168.9,49.5c2.8-0.4,6.2-1,9.2-0.6c-0.6-1.6-1-3.3-1.9-4.7c-3.4-5.5-9.3-9.6-15-13.1
				c0.5-0.3,0.9-0.5,1.4-0.8c4.2,2.5,8.1,5.6,11.4,9c1.5,1.5,2.9,3.1,3.9,5c2.7,5.2,5.2,7.7,10.7,9.6c2.1,0.7,4.9,2.5,7.1,2.5
				c3,0.1,3.7-2,5.1-4.3c2-3.2,3.4-6.6,5.7-9.7c4-5.4,8.8-9.7,15-12.4c0.1,0,0.1,0,0.2,0c-0.3-0.2-0.6-0.4-0.9-0.7
				c-3.1-2.8-5.8-6-8.4-9.3c0,0,0.1,0,0.1,0c-1.4,0-2.8,0-4.1,0c-0.2,0-0.4,0-0.6,0c-1.3,0-2.5,0-3.7,0.1c-0.2,0-0.3,0-0.5,0
				c-2.5,0.1-4.8,0.3-7.1,0.5c-0.2,0-0.3,0-0.5,0c-1.1,0.1-2.2,0.2-3.2,0.4c-0.1,0-0.3,0-0.4,0.1c-2.2,0.3-4.2,0.6-6.2,1
				c-0.1,0-0.2,0-0.4,0.1c-5.6,1.1-11.2,2.8-16.5,5c0,0-0.1,0-0.1,0c-0.8,0.3-1.5,0.7-2.3,1c0,0-0.1,0-0.1,0.1
				c-7.6,3.5-13.6,7.6-18.9,11.4c0,0,0,0,0.1,0c0,0,0,0,0,0c0.1,0,0.2,0,0.3,0c0,0,0,0,0.1,0c5.8-0.3,10.5,3.8,12.8,8.8
				c0,0.1,0.1,0.1,0.1,0.2c0.3,0.6,0.5,1.3,0.8,2C164.4,50.1,166.7,49.7,168.9,49.5z"/>
		</g>
	</g>
	<g>
		<g>
			<path class="st10" d="M453,164.7c-0.4-2.2-1.1-4.9-2.8-6.4c-2-1.7-4.8-1.5-7.2-1.9c-3.6-0.6-6.3-2.1-8.8-4.7
				c-1.1-1.2-3-2.9-3.4-4.7c-1.9,0.7-4,1.2-6.1,1.4c-7.3,0.6-15-0.7-22.3-1.7c-1,11.9,12.3,8,17.5,15c2.3,3.1,1.8,6.8,1,10.4
				c0.5,0.1,1.1,0.1,1.6,0.2c0.4,0,0.8,0.1,1.1,0.1c0.3,0,0.7,0,1,0.1c0.5,0,1,0,1.4,0.1c0.4,0,0.8,0,1.2,0c0.3,0,0.6,0,0.9,0
				c0.6,0,1.1,0,1.6-0.1c0.2,0,0.4,0,0.6-0.1c0.4,0,0.9-0.1,1.3-0.1c0.2,0,0.3,0,0.5-0.1c0.5-0.1,1-0.2,1.5-0.3
				c0.2,0,0.3-0.1,0.5-0.1c0.5-0.1,1-0.3,1.4-0.4c0.1,0,0.1-0.1,0.2-0.1c0.4-0.2,0.8-0.3,1.2-0.5c0.1,0,0.2-0.1,0.3-0.1
				c0.4-0.2,0.8-0.5,1.1-0.7c0.1-0.1,0.1-0.1,0.2-0.2c0.3-0.3,0.7-0.6,0.9-0.9c0,0,0,0,0.1,0c0,0,0,0,0,0c0,0,0.1,0,0.2,0
				c0,0,0.1,0,0.1,0c0.1,0,0.2,0,0.3,0c0,0,0.1,0,0.1,0c0.1,0,0.3,0,0.4-0.1c0,0,0.1,0,0.1,0c0.4-0.1,0.9-0.1,1.4-0.2c0,0,0,0,0,0
				c0.3,0,0.5-0.1,0.8-0.1c0,0,0.1,0,0.1,0c0.2,0,0.5-0.1,0.8-0.1c0.1,0,0.1,0,0.2,0c0.3-0.1,0.6-0.1,0.8-0.2c0,0,0.1,0,0.1,0
				c1-0.2,2.1-0.5,3.2-0.8c0.1,0,0.1,0,0.2-0.1c0.3-0.1,0.6-0.2,0.9-0.3c0.1,0,0.2-0.1,0.2-0.1c0.3-0.1,0.6-0.2,0.9-0.3
				c0.1,0,0.1-0.1,0.2-0.1c0.4-0.1,0.7-0.3,1.1-0.4c0,0,0,0,0,0c0.5-0.2,1-0.4,1.5-0.7c-0.1,0.1-0.3,0.1-0.4,0.2
				C453,165,453,164.8,453,164.7z"/>
		</g>
	</g>
	<g>
		<g>
			<path class="st10" d="M464.8,137.4c0-0.3-0.1-0.6-0.2-0.9c-0.2-0.9-0.6-1.8-1.1-2.8l0,0c-0.3-0.5-0.6-0.9-0.9-1.3
				c-0.1-0.1-0.2-0.2-0.3-0.4c-0.3-0.3-0.5-0.6-0.8-0.8c-0.1-0.1-0.2-0.2-0.4-0.3c-0.3-0.3-0.6-0.5-0.9-0.7
				c-0.1-0.1-0.2-0.1-0.3-0.2c-0.4-0.3-0.9-0.6-1.4-0.8c0,0-0.1,0-0.1,0c-0.4-0.2-0.9-0.4-1.3-0.6c-0.1-0.1-0.2-0.1-0.4-0.2
				c-0.4-0.2-0.8-0.3-1.1-0.4c-0.1,0-0.3-0.1-0.4-0.1c-0.4-0.1-0.9-0.3-1.3-0.4c-0.1,0-0.1,0-0.2,0c-0.5-0.1-1-0.2-1.5-0.3
				c-0.1,0-0.2,0-0.3,0c-0.4-0.1-0.8-0.1-1.1-0.2c-0.2,0-0.3,0-0.5-0.1c-0.3,0-0.6-0.1-0.9-0.1c-0.2,0-0.3,0-0.5,0
				c-0.3,0-0.5,0-0.7-0.1c-0.5,0-0.9-0.1-1.3-0.1c0,0,0,0-0.1,0c-0.3,0-0.5,0-0.8,0h0c-1.1,1.1-2.1,2.3-2.9,3.5c0,0,0,0.1,0,0.1
				c-0.1,7.7-4.8,13.5-11.2,16.4c0,0,0,0.1,0,0.1c0,0.1-0.1,0.2-0.1,0.3c0,0.1-0.1,0.2-0.1,0.3c1,1.1,2.8,3,3,3.2
				c1.2,1.2,2.1,2.1,3.6,2.9c2.5,1.3,5.1,1.4,7.8,1.9c2.5,0.4,4.3,1.2,5.7,3.4c1.2,1.9,1.7,4.1,1.9,6.3c0,0,0,0,0,0
				c0.4-0.2,0.8-0.4,1.1-0.6c0.1-0.1,0.2-0.1,0.3-0.2c0.4-0.2,0.7-0.5,1.1-0.7c0,0,0,0,0,0c0.3-0.3,0.6-0.5,0.9-0.8
				c0.1-0.1,0.1-0.1,0.2-0.2c0.3-0.3,0.5-0.6,0.8-0.9c0,0,0,0,0,0c0.2-0.3,0.4-0.6,0.6-1c0-0.1,0.1-0.2,0.1-0.3
				c0.2-0.3,0.3-0.7,0.4-1.1c0,0,0,0,0,0c0.1-0.4,0.2-0.7,0.2-1.1c0-0.1,0-0.2,0-0.3c0-0.4,0-0.8-0.1-1.2c0,0,0,0,0,0
				c-0.9-6,2.3-9.9,4.1-13.7c0.1-0.3,0.3-0.5,0.4-0.8c0.1-0.4,0.3-0.7,0.4-1.1c0.1-0.3,0.2-0.5,0.2-0.8c0-0.2,0.1-0.4,0.1-0.6
				c0.1-0.4,0.1-0.9,0.1-1.3C464.8,137.8,464.8,137.6,464.8,137.4z"/>
		</g>
	</g>
	<g>
		<g>
			<path class="st10" d="M441.3,133c-0.2,0.3-0.4,0.7-0.6,1c-0.2,0.4-0.5-0.1-0.4-0.4c0.2-1.2,0.6-2.4,1.1-3.6
				c-16.8-8.9-29.2-23.1-42.2-36.6c-7.5-7.8-15.5-15.2-24.9-20.6c-7.5-4.3-22.6-8.1-32.2-6.1c-0.7,4.7,2.1,8.3,4.6,11.8
				c0.1,0.2,0.1,0.5,0,0.8c12.6,19.3,18.4,42.6,32.4,61.2c0.1,0.1,0.1,0.3,0.2,0.5c11,1.7,21.9,3.5,32.9,4.7
				C425.1,147.1,436.9,145.8,441.3,133z"/>
		</g>
	</g>
	<g>
		<g>
			<path class="st10" d="M345,54.6c0.2,2.5-0.2,4.9-1,7.3c-0.2,0.5-0.4,1.1-0.7,1.6c7.7-2.3,19.1,2,26,5.2
				c8.8,4.1,16.5,10.1,23.5,16.7c16.2,15.1,29.3,32.9,49.2,43.4c0.6-1,1.2-1.9,2-2.8c0,0,0,0,0,0c-0.1-0.1-0.2-0.3-0.4-0.5
				c0,0,0,0-0.1-0.1c-0.2-0.2-0.3-0.4-0.5-0.6c0-0.1-0.1-0.1-0.1-0.2c-0.2-0.2-0.4-0.4-0.6-0.7c0-0.1-0.1-0.1-0.1-0.1
				c-0.2-0.3-0.5-0.6-0.8-0.9c-0.1-0.1-0.2-0.2-0.3-0.3c-0.3-0.3-0.6-0.6-0.9-1c-0.1-0.1-0.1-0.1-0.2-0.2c-0.3-0.3-0.6-0.7-1-1.1
				c-0.1-0.1-0.2-0.3-0.4-0.4c-0.4-0.4-0.8-0.8-1.2-1.3c-0.1-0.1-0.2-0.2-0.3-0.3c-0.4-0.4-0.7-0.8-1.1-1.2
				c-0.1-0.2-0.3-0.3-0.4-0.5c-0.5-0.5-1-1-1.5-1.5c-0.1-0.1-0.3-0.3-0.4-0.4c-0.4-0.4-0.9-0.9-1.3-1.3c-0.2-0.2-0.3-0.3-0.5-0.5
				c-0.6-0.5-1.1-1.1-1.7-1.7c-0.2-0.2-0.4-0.4-0.6-0.6c-0.5-0.5-1-1-1.6-1.5c-0.2-0.2-0.3-0.3-0.5-0.5c-0.7-0.6-1.3-1.2-2-1.9
				c-0.2-0.2-0.5-0.4-0.7-0.6c-0.7-0.6-1.3-1.2-2-1.8c-0.2-0.1-0.3-0.3-0.5-0.4c-0.7-0.6-1.4-1.3-2.2-1.9c-0.3-0.2-0.5-0.4-0.8-0.7
				c-0.8-0.7-1.6-1.4-2.5-2.1c-0.2-0.2-0.4-0.3-0.5-0.5c-0.7-0.6-1.5-1.2-2.3-1.9c-0.3-0.2-0.5-0.4-0.8-0.6
				c-0.9-0.7-1.8-1.5-2.8-2.2c-0.2-0.2-0.5-0.4-0.7-0.6c-0.8-0.6-1.7-1.3-2.5-2c-0.2-0.2-0.5-0.4-0.7-0.6c-1-0.8-2.1-1.6-3.1-2.3
				c-0.3-0.2-0.6-0.4-0.9-0.6c-0.9-0.7-1.9-1.4-2.9-2.1c-0.2-0.1-0.4-0.3-0.6-0.4c-1.1-0.8-2.3-1.6-3.5-2.4c-0.3-0.2-0.6-0.4-1-0.7
				c-1.2-0.8-2.4-1.6-3.6-2.4c-0.1-0.1-0.2-0.1-0.2-0.2c-1.2-0.8-2.5-1.7-3.8-2.5c-0.3-0.2-0.7-0.4-1-0.6c-1.3-0.8-2.6-1.7-4-2.5
				c-0.2-0.1-0.4-0.2-0.6-0.4c-1.2-0.8-2.5-1.5-3.7-2.3c-0.3-0.2-0.6-0.4-1-0.6c-1.4-0.8-2.8-1.7-4.3-2.5c-0.3-0.2-0.6-0.3-0.9-0.5
				c-1.3-0.8-2.6-1.5-4-2.2c-0.3-0.2-0.6-0.3-0.9-0.5c-1.5-0.8-3.1-1.7-4.6-2.5c-0.3-0.2-0.7-0.4-1-0.5c-1.5-0.8-2.9-1.5-4.4-2.3
				c-0.2-0.1-0.4-0.2-0.6-0.3c-1.6-0.8-3.3-1.7-5-2.5c-0.4-0.2-0.8-0.4-1.2-0.6c-2.1-1-4.3-2.1-6.5-3.1c0.4,0.2,0.9,0.4,1.3,0.6
				C344.9,54.2,344.9,54.4,345,54.6z"/>
		</g>
	</g>
	<g>
		<g>
			<g>
				<path class="st10" d="M416.7,160.6c-2.6-1.7-6.2-2.2-9.1-3.5c-4.4-1.9-7-6.1-6.2-10.7c-0.4-0.1-0.8-0.1-1.2-0.2
					c-7.2-1-14.5-2.1-21.6-3.6c-7.8,2.4-15.6,1.1-23.5-0.2c-8.3-1.4-16.6-3-24.8-4.9c-1.5-0.4-3.1-0.7-4.6-1c0,0.3-0.1,0.7-0.5,0.6
					c-0.9,2.4-0.6,4.5,1.1,6.3c0.5,0.8,1,1.6,1.5,2.4c0.5,0.8,1.1,1.9,1.3,2.8c0.3,1.2,0.2,2.2-0.2,3.3c-0.3,0.7-1.1,2.3-2,2.5
					c0.7,0.2,1.4,0.4,2.1,0.6c6.6,1.9,13.2,3.6,19.9,4.9c4.4,0.8,8.8,1.6,13.2,1.9l11.4,0.9c-0.3-0.1,2.1,0.2,1.9,0.1
					c0.4-0.7,1.7-3.7,1.9-4.4c1.4-3.7-0.8-4.4-3.8-5.4c-3.7-1.3-6.1-4.2-6-8.3c0-0.6,0.6-0.9,0.8-0.2c0.6,3.1,1.9,5.6,5,6.8
					c1.5,0.6,3.3,0.7,4.5,1.8c1,0.8,1.2,1.4,1.2,2.6c0,1.4-1.4,5.6-2.4,7.3l10.1,2.2c5.7,1.8,11.7,2.3,17.5,3.7
					c0.2,0,0.3,0.1,0.5,0.1c2.1,0.5,4.3,1,6.4,1.4c0.7,0.1,9,1.6,9,1.4C420.6,167.6,420.9,163.3,416.7,160.6z"/>
			</g>
		</g>
		<g>
			<g>
				<path class="st10" d="M326.8,154.4c-0.3-0.1-0.5-0.1-0.8-0.2C326.3,154.4,326.6,154.5,326.8,154.4z"/>
			</g>
		</g>
		<g>
			<g>
				<path class="st10" d="M327.9,150.3c0-1.5-0.7-3-1.5-4.3c-0.8-1.3-1.7-2.5-2.4-3.9c-0.8-1.9-1-4-0.5-6
					c-6.1-1.4-12.3-2.8-17.9-5.5c-6-2.9-11.4-7.3-17.9-8.5c-0.2,0-0.5-0.1-0.7,0c-0.1,0.1-0.2,0.2-0.3,0.4c-2,3.7-1.1,8.5-3.1,12.2
					c-0.9,1.6-2.3,2.9-2.9,4.6c-0.7,1.7-0.5,3.8,0.4,5.4c0.4,0.7,3,0.9,3.8,1.2c2.4,0.9,4.7,1.8,7.1,2.6c4.8,1.6,9.6,3,14.6,4.2
					c4.7,1.1,9.4,2.1,14.2,1.7c1.4-0.1,2.9-0.4,4.3-0.3c0.3,0,0.6,0.1,0.9,0.1c-0.1-0.1-0.2-0.1-0.3-0.2
					C327.2,153.5,328,151.8,327.9,150.3z"/>
			</g>
		</g>
	</g>
	<g>
		<g>
			<path class="st10" d="M269.5,42.6c-7.4-0.6-16.4-5-21.6-6.4c-8.2-2.2-18.4-0.7-25.5-5.7c0.2,0.6,0.1,1.4-0.4,1.6
				c-10.4,4.6-15.9,13.4-20.7,23.2c-0.1,0.2-0.2,0.4-0.3,0.6c12.8,11.7,23.9,25.3,37.2,36.5c12.2,10.3,27.9,21.1,43.3,25.9
				c4.3,1.4,8.3,2.5,12.1,4.1c-6.3-11-7.5-24.2-8.9-36.5C282.9,70.1,280.1,54.9,269.5,42.6z"/>
		</g>
	</g>
	<g>
		<g>
			<path class="st10" d="M279.3,40c-0.2,0-0.3-0.1-0.4-0.3c-0.7,0.7-1.4,1.2-2.1,1.6c-1.5,0.8-3.2,1.2-5.2,1.3
				c7.9,8.3,11.2,19.8,13,30.9c2.7,16.7,3.1,32.9,10.5,48.5c0.1,0.2,0.1,0.6,0,0.9c2,0.8,3.9,1.8,5.8,3c7.5,4.4,15.8,6.3,24.2,8.4
				c8.5,2.1,17.1,3.9,25.8,5.4c8.8,1.6,17.9,3.6,26.8,1.1c-14.4-19.6-19.8-44-34-63.7C328.3,56.1,304.8,43.5,279.3,40z"/>
		</g>
	</g>
	<g>
		<g>
			<path class="st11" d="M247.8,116.3c4.1-1.2,8.4-1.8,10-6.3c0.2-0.7-0.5-1.8-0.9-0.8c-1.9,4.9-7.3,4.4-11.3,6.2
				c-2.3,1-4.2,2.7-5.7,4.6c-1.5,1.9-2.8,4.2-3.5,6.6c0.1,0.1,0.3,0.2,0.4,0.3c0.1,0,0.1,0.1,0.2,0.1
				C238.5,122,243,117.7,247.8,116.3z"/>
		</g>
	</g>
	<g>
		<g>
			<path class="st11" d="M378.9,155.7c0-1.2-0.2-1.8-1.2-2.6c-1.3-1-3.1-1.2-4.5-1.8c-3.1-1.2-4.3-3.7-5-6.8
				c-0.1-0.7-0.8-0.4-0.8,0.2c-0.1,4.1,2.3,7,6,8.3c3,1,5.2,1.7,3.8,5.4c-0.2,0.6-1.5,3.3-1.9,4c0.2,0.1,1.4,0.5,1.7,0.6
				c0,0,0.9-2.5,0.9-2.5C378.7,158,378.9,157.2,378.9,155.7z"/>
		</g>
	</g>
	<g>
		<g>
			<path class="st11" d="M451.9,158.4c-1.4-2.1-3.2-2.9-5.7-3.4c-2.7-0.5-5.3-0.5-7.8-1.9c-1.5-0.8-2.5-1.7-3.6-2.9
				c-0.2-0.3-2-2.1-3-3.2c0.1-0.1,0.1-0.1,0.1-0.3c0-0.1,0.1-0.2,0.1-0.3c0,0,0-0.1,0-0.1c6.4-2.9,11-8.8,11.2-16.4c0,0,0-0.1,0-0.1
				c0.8-1.2,1.7-2.4,2.9-3.5l0,0c-1,0-1.6,0-1.7,0c0,0,0,0,0,0l0,0c0,0,0,0-0.1-0.1c0,0,0,0,0,0c-0.1-0.1-0.1-0.2-0.3-0.3
				c0,0,0,0,0,0c-0.7,0.9-1.4,1.8-2,2.8c-19.9-10.5-33.1-28.3-49.2-43.4c-7-6.6-14.8-12.6-23.5-16.7c-6.9-3.2-18.3-7.5-26-5.2
				c0.3-0.5,0.5-1.1,0.7-1.6c0.8-2.4,1.2-4.7,1-7.3c0-0.2-0.1-0.4-0.1-0.6c-0.4-0.2-0.8-0.4-1.3-0.6c-0.1-0.1-0.2-0.1-0.4-0.2
				c0.4,2.5,0.2,5-0.6,7.6c-0.6,2-1.8,3.8-2.2,5.9c-0.2,0.4-0.3,0.6-0.1,0.6c-0.1,1.4,0,2.6,0.3,3.8c-0.2-0.2-0.3-0.4-0.5-0.6
				c-15-17.7-37.2-29.7-60.4-31.9c1.6-1.9,2.9-4.4,3.8-6.8c-0.5-0.1-1-0.3-1.4-0.4c-2.6,5.1-6.7,9-13.1,8.3
				c-9.9-1.2-18.9-6.1-28.8-7.6c-4.9-0.7-10.7-0.1-15.2-2.3c-2.5-1.2-4.5-3.4-6.4-5.4c-1.4-1.5-2.8-3-4.1-4.5c-0.7,0-1.4,0-2,0
				c0,0-0.1,0-0.1,0c2.6,3.3,5.3,6.5,8.4,9.3c0.3,0.2,0.6,0.5,0.9,0.7c-0.1,0-0.1,0-0.2,0c-6.2,2.7-11.1,7-15,12.4
				c-2.2,3.1-3.6,6.5-5.7,9.7c-1.4,2.3-2.1,4.4-5.1,4.3c-2.2-0.1-5-1.8-7.1-2.5c-5.5-2-8-4.4-10.7-9.6c-1-1.9-2.4-3.5-3.9-5
				c-3.3-3.4-7.3-6.4-11.4-9c-0.5,0.2-0.9,0.5-1.4,0.8c5.6,3.5,11.6,7.6,15,13.1c0.9,1.4,1.3,3.1,1.9,4.7c-3-0.4-6.4,0.2-9.2,0.6
				c-2.2,0.3-4.5,0.7-6.7,1.1l0,0c0.1,0.4,0.3,0.9,0.4,1.3c2.1-0.4,4.2-0.8,6.3-1.1c3.4-0.4,6.6-0.3,9.9-0.3
				c0.3,0.6,0.7,1.1,1.1,1.6c1.4,1.5,3.4,2.4,5.5,3.1c-4.4,5-12.8,13.3-12.6,21.1c0.4,0.3,0.8,0.6,1.3,0.9c0,0,0,0,0,0
				c0-4.8,2.5-9.8,5.6-13.4c2.2-2.6,5-4.4,6.6-7.5c0.1-0.2,0.1-0.6,0-0.9c1.1,0.4,2.2,0.7,3.2,1c5.9,2.1,8.2,4.4,10.8,0.4
				c7.8,8.6,15.9,17.5,24.5,25.8c-4.6,2.6-10.8,2.3-13.8,7.1c-1.5,2.3-2.8,5.3-3.5,8.2c0.2,0.2,0.5,0.5,0.7,0.7
				c0.7-3.3,2.1-6.7,4.3-9c3.5-3.7,9.2-2.4,12.7-6c0.1-0.1,0.1-0.3,0.1-0.5c4.6,4.4,9.2,8.5,14,12.4c12.6,10.1,28.4,20.7,43.9,25.1
				c0.6,0.2,1.2,0.4,1.9,0.5c-0.3,0.4-0.5,1-0.7,1.7c-0.4,1.3-0.2,2.4-0.3,3.8c-0.3,3.6-1.2,6.4-3,9.4c-2.2,3.8-2.3,5.8-0.9,8.5
				c0.3,0,0.5,0,0.7-0.1l0,0c-0.8-1.8-1.2-3.6,0-6.3c0.6-1.4,2.2-2.7,2.9-4.2c1.2-2.4,1.4-10.7,3.2-12.4c2.7,0.7,5.3,1.5,7.8,2.8
				c3.7,1.8,6.9,4.4,10.7,6.1c5.6,2.5,11.8,4,17.9,5.4c-1.1,3.4,0.3,6.1,2.3,9.1c1,1.5,2.4,4,2.1,5.9c-0.1,1-1.3,2.2-2.2,3.1
				c0.4,0.1,0.8,0.2,1.4,0.4c0.8-0.8,1.4-1.7,1.7-2.7c0.4-1.1,0.5-2.1,0.2-3.3c-0.2-1-0.8-2-1.3-2.8c-0.5-0.8-1-1.6-1.5-2.4
				c-1.7-1.8-2-3.9-1.1-6.3c0.3,0.1,0.5-0.3,0.5-0.6c1.6,0.3,3.1,0.7,4.6,1c8.2,1.9,16.5,3.5,24.8,4.9c7.9,1.3,15.7,2.5,23.5,0.2
				c7.1,1.5,14.4,2.6,21.6,3.6c0.4,0.1,0.8,0.1,1.2,0.2c-0.7,4.6,1.8,8.7,6.2,10.7c2.9,1.3,6.5,1.7,9.1,3.5c4.2,2.7,3.9,7,3.3,11.2
				c0,0,0,0,0,0c0.2,0,0.5,0.1,0.7,0.1c0,0,0,0,0,0c0.7-3.5,1.3-7.2-1-10.4c-5.2-6.9-18.5-3.1-17.5-15c7.3,1.1,15,2.4,22.3,1.7
				c2.1-0.2,4.2-0.7,6.1-1.4c0.4,1.8,2.3,3.5,3.4,4.7c2.5,2.7,5.2,4.2,8.8,4.7c2.4,0.4,5.3,0.2,7.2,1.9c1.8,1.6,2.4,4.2,2.8,6.4
				c0,0.2,0,0.3,0.1,0.5c0.1-0.1,0.3-0.1,0.4-0.2c0.1-0.1,0.3-0.1,0.4-0.2C453.7,162.5,453.2,160.4,451.9,158.4z M281.4,118.3
				c-15.3-4.8-31-15.6-43.3-25.9c-13.3-11.2-24.4-24.8-37.2-36.5c0.1-0.2,0.2-0.4,0.3-0.6c4.9-9.8,10.4-18.5,20.7-23.2
				c0.5-0.2,0.6-1.1,0.4-1.6c7.2,5,17.3,3.5,25.5,5.7c5.2,1.4,14.2,5.8,21.6,6.4c10.6,12.3,13.4,27.5,15.2,43.2
				c1.4,12.4,2.6,25.5,8.9,36.5C289.7,120.8,285.7,119.6,281.4,118.3z M350.9,139.8c-8.7-1.5-17.3-3.3-25.8-5.4
				c-8.4-2-16.7-3.9-24.2-8.4c-2-1.2-3.9-2.1-5.8-3c0.1-0.3,0.1-0.7,0-0.9c-7.4-15.6-7.7-31.8-10.5-48.5c-1.8-11.1-5.1-22.6-13-30.9
				c1.9-0.1,3.7-0.4,5.2-1.3c0.7-0.4,1.4-1,2.1-1.6c0.1,0.2,0.2,0.3,0.4,0.3c25.5,3.5,49.1,16,64.3,37.1
				c14.2,19.7,19.6,44.2,34,63.7C368.8,143.4,359.7,141.3,350.9,139.8z M412.2,145.7c-11-1.2-21.9-3-32.9-4.7c0-0.2-0.1-0.4-0.2-0.5
				c-14.1-18.6-19.8-41.8-32.4-61.2c0.1-0.3,0.1-0.6,0-0.8c-2.4-3.5-5.2-7-4.6-11.8c9.5-2.1,24.7,1.7,32.2,6.1
				c9.4,5.4,17.4,12.8,24.9,20.6c13,13.5,25.4,27.7,42.2,36.6c-0.5,1.2-0.9,2.4-1.1,3.6c0,0.2,0.2,0.7,0.4,0.4
				c0.2-0.3,0.4-0.7,0.6-1C436.9,145.8,425.1,147.1,412.2,145.7z"/>
		</g>
	</g>
	<g>
		<g>
			<path class="st7" d="M469.4,168.6c-3.4,2.8,6.9,12.8,16.7,20.6c9.8,7.8,15.7-1,12.8-7.8C495.9,174.4,475.3,163.7,469.4,168.6z"/>
		</g>
	</g>
	<g>
		<g>
			<path class="st8" d="M75.4,30.3c-1.7,5.9-3.3,12.7-2.9,18.9c0,0.7,0.8,1,1,0.2c0.5-3.1,0.5-6.3,0.9-9.4c0.4-3.1,1.1-6.2,1.7-9.3
				C76.1,30.2,75.6,29.6,75.4,30.3L75.4,30.3z"/>
		</g>
	</g>
	<g>
		<g>
			<path class="st8" d="M68.8,31.3c-8.9,16.8,0.5,32.6,14.8,42c20.3,13.4,49.1,19.6,59.3,44.5c0.4,1,1.3-0.2,1-0.9
				c-5.9-14.4-21.5-26.6-35.4-32.8c-21.7-9.7-50.7-23.2-39.2-52.3C69.4,31.5,69,30.8,68.8,31.3L68.8,31.3z"/>
		</g>
	</g>
	<g>
		<g>
			<path class="st8" d="M148.9,42c5.9,12.6,1.6,24.5-4.8,35.8c-0.2,0.4,0.1,1.3,0.5,0.7c7.5-10.9,11.2-24.7,4.8-37
				C149.1,41,148.7,41.6,148.9,42L148.9,42z"/>
		</g>
	</g>
	<g>
		<g>
			<path class="st8" d="M149.4,41.9c6.8,16.1,4.4,31.3-4.9,45.7c-0.2,0.3,0.1,1.2,0.4,0.8c11-12.7,12.3-32.2,5-46.9
				C149.6,40.9,149.2,41.5,149.4,41.9L149.4,41.9z"/>
		</g>
	</g>
	<g>
		<g>
			<path class="st8" d="M306.9,270.8c-0.7-5.5-6.3-9.9-10.2-13.6c-5.5-5.2-11.6-9.9-18-13.8c-8.7-5.3-17.2-9-21.2-19.1
				c-2.6-6.5-3.4-13.5-6.8-19.7c-4.1-7.5-9.8-14.1-14.3-21.4c-5.2-8.6-9.4-17.5-12.8-26.9c-4.4-12-10.4-26.2-25.1-27
				c-0.8,0-0.7,1.7,0,1.8c19.5,2.6,22.6,26.3,29.6,40.9c3.2,6.6,6.9,13,11,19.1c5.1,7.7,10.9,14.3,13.5,23.4
				c3.2,10.9,5.7,19.3,15.9,25.6c6.1,3.8,12.5,7.1,18.2,11.4c5.5,4.2,17.6,12.6,18.5,19.9C305.6,273,307,272,306.9,270.8
				L306.9,270.8z"/>
		</g>
	</g>
	<g>
		<g>
			<path class="st8" d="M178.9,88.5c0.1,8.3-2.7,17.9-10.7,21.8c-6,3-13.1,0.9-19.3,3.5c-7.5,3.2-10.9,10.6-12,18.3
				c-3.4,25.6,16.8,49.5,31.3,68.3c18.2,23.5,40,40,66.2,54c13.5,7.2,27.1,14.7,42.1,18.3c7.4,1.7,25,6.6,30.2-0.8
				c0.6-0.8-0.3-2.9-1.2-1.7c-3.4,4.8-15.5,2.4-20.5,1.8c-7.4-1-14.6-3-21.6-5.7c-12.6-4.8-24.8-11.8-36.6-18.4
				c-11.9-6.7-23.4-14-33.8-22.9c-11-9.3-19.5-20.6-28.3-31.9c-8.6-11.1-16.5-22.4-22.1-35.3c-5-11.3-8.8-29.8,1.9-39.4
				c8.4-7.5,20.9-1.9,28.8-10.3c5-5.3,6.7-12.7,6.4-19.7C179.7,87.7,178.9,87.7,178.9,88.5L178.9,88.5z"/>
		</g>
		<g>
			<path class="st8" d="M295.8,276.4c-6.1,0-13.1-1.7-17.9-2.8l-1.4-0.3c-14.4-3.4-27.6-10.5-40.4-17.4l-1.8-1
				c-28.5-15.3-49.5-32.5-66.3-54.1c-0.9-1.2-1.8-2.3-2.7-3.5c-14.2-18.2-31.9-40.9-28.7-65.1c0.9-6.5,3.7-15,12.2-18.6
				c3-1.3,6.3-1.5,9.5-1.6c3.5-0.2,6.8-0.4,9.8-1.9c9.9-5,10.5-17.7,10.5-21.5l0,0c0-0.6,0.4-1,0.8-1c0.4,0,0.8,0.3,0.8,0.9
				c0.3,8.1-2,15.3-6.5,20c-4.2,4.4-9.6,5-14.9,5.6c-4.9,0.5-9.9,1.1-13.9,4.7c-10,9-7.2,26.6-1.8,39c6,13.7,14.6,25.5,22.1,35.2
				l1,1.3c8.6,11.1,16.7,21.6,27.3,30.6c9.2,7.8,19.9,15.1,33.7,22.8l1.3,0.7c11.3,6.4,23.1,13,35.2,17.6c7.3,2.8,14.6,4.7,21.5,5.7
				c0.5,0.1,1,0.2,1.6,0.2c5.4,0.8,15.6,2.3,18.5-1.8c0.3-0.5,0.7-0.6,0.9-0.5c0.4,0,0.7,0.3,0.9,0.8c0.2,0.5,0.3,1.4,0,1.9
				C304.8,275.3,300.6,276.4,295.8,276.4z M179.3,88.5c0.1,3.9-0.6,17-10.9,22.2c-3.2,1.6-6.7,1.8-10.1,2c-3.1,0.2-6.3,0.3-9.2,1.6
				c-8.2,3.5-10.9,11.7-11.7,18c-3.2,23.8,14.4,46.4,28.5,64.5c0.9,1.2,1.8,2.4,2.7,3.5c16.7,21.6,37.7,38.7,66,53.9l1.8,1
				c12.7,6.8,25.9,13.9,40.2,17.3l1.5,0.3c7.6,1.9,23.6,5.7,28.3-1c0.2-0.2,0.2-0.7,0-1.1c-0.1-0.2-0.2-0.3-0.3-0.3
				c0,0-0.1,0-0.2,0.2c-3.2,4.6-13.2,3.1-19.2,2.2c-0.6-0.1-1.2-0.2-1.6-0.2c-7-1-14.3-2.9-21.7-5.7c-12.2-4.7-24-11.3-35.3-17.7
				l-1.3-0.7c-13.9-7.8-24.6-15.1-33.8-22.9c-10.6-9-18.8-19.5-27.4-30.7l-1-1.3c-7.6-9.7-16.1-21.6-22.2-35.4
				c-5.5-12.6-8.3-30.6,2-39.9c4.1-3.7,9.3-4.3,14.3-4.9c5.4-0.6,10.5-1.2,14.4-5.4C177.4,103.3,179.6,96.4,179.3,88.5
				C179.3,88.5,179.3,88.4,179.3,88.5C179.3,88.4,179.3,88.5,179.3,88.5L179.3,88.5z"/>
		</g>
	</g>
	<g>
		<g>
			<path class="st8" d="M407.3,170.1c9.7,11.3,20.6,22.1,30.9,32.7c9.1,9.3,19.1,20.1,31.2,26c8.9,4.3,49.9,3.6,39.1-14.7
				c-0.6-0.9-0.7-0.8-0.4-0.2c5.1,13.1-22.8,14.3-29.2,14c-11.1-0.5-19.2-6.8-26.9-14.2c-14.9-14.5-28.9-29.8-43.6-44.5
				c-0.5-0.4-0.8,0.7-0.5,1L407.3,170.1z"/>
		</g>
	</g>
	<g>
		<g>
			<path class="st8" d="M231.4,176.4c27.5,10.3,58.7,12.4,87.9,12.8c30.6,0.4,60.2-5.9,87-17.9c0.8-0.3,0.5-2.3-0.4-1.9
				c-28.5,9.4-50.9,16.7-86.7,17.5c-30.2,0.7-58.6-4.3-87.7-11.8C231,174.9,230.9,176.2,231.4,176.4L231.4,176.4z"/>
		</g>
	</g>
	<g>
		<g>
			<path class="st4" d="M461.5,159.1c-1.3-0.9-1.1-0.8-1.9-1.3c-18.6,18.1-53.6,9.5-76.2,5.6c-25.6-4.4-51.1-9.3-76.7-13.7
				c-24.4-4.2-47.6-7-67.7-22.7c-17.1-13.4-30.6-31-49.2-42.5c-12-7.4-25.7-10.9-26.1-26.4c-0.2-9.6-4.7-18.1-14.2-18.6
				c-1-0.1-2.2-0.2-1.3,0l0.8,2.5c14-1.3,9.9,20.5,16.4,29.2c5.4,7.4,14.1,11.3,21.7,15.9c20,12,34.1,31.2,52.6,45.1
				c18.4,13.9,39.9,17.3,62.1,20.9c26.5,4.3,52.8,9.5,79.2,14.1c23.1,4,63.9,13.6,82-7.3L461.5,159.1z"/>
		</g>
	</g>
	<g>
		<g>
			<path class="st8" d="M156.6,63.4c1.8,12.3-2.9,23-7.1,34.2c-0.2,0.5,0.4,1.3,0.7,0.6c5.1-11,9-22.8,7-35
				C157.1,62.5,156.5,62.9,156.6,63.4L156.6,63.4z"/>
		</g>
	</g>
	<g>
		<g>
			<path class="st8" d="M91.2,40.1c-1.2-9,2.1-18.8,11.5-21.8c9.7-3.2,19.5,4.3,17.9,14.8c-0.1,0.3,0.4,0.8,0.5,0.3
				c2.6-9.8-6.1-18.7-16-17.1c-11.4,1.8-16.6,13.6-14.4,24.1C90.8,40.9,91.3,40.6,91.2,40.1L91.2,40.1z"/>
		</g>
	</g>
	<g>
		<g>
			<path class="st8" d="M110.7,45.5c3.1-1.1,6.4-3.3,8.2-6.1c0.2-0.3,0-1.1-0.4-0.8c-1.2,1-2.3,2.1-3.6,3.1
				c-1.4,1.1-2.9,1.9-4.4,2.8C110.1,44.7,110.2,45.7,110.7,45.5L110.7,45.5z"/>
		</g>
	</g>
	<g>
		<g>
			<path class="st8" d="M75.8,58.7c1.5,0.9,2.9,1.7,4.5,2.5c0.7,0.4,0.9-1.3,0.3-1.6c-1.5-0.7-2.9-1.4-4.5-2
				C75.5,57.4,75.4,58.5,75.8,58.7L75.8,58.7z"/>
		</g>
	</g>
	<g>
		<g>
			<path class="st7" d="M249.6,158.7c-2.7,6.8,25.6,15.4,57.9,18.6c29.4,2.9,34.4-10.7,8.8-12.8C280,161.7,255.5,144,249.6,158.7z"
				/>
		</g>
	</g>
</g>
</svg>
