<?xml version="1.0" encoding="utf-8"?>
<!-- Generator: Adobe Illustrator 23.0.1, SVG Export Plug-In . SVG Version: 6.00 Build 0)  -->
<svg version="1.1" id="Layer_1" xmlns="http://www.w3.org/2000/svg" xmlns:xlink="http://www.w3.org/1999/xlink" x="0px" y="0px"
	 viewBox="0 0 141.7 141.7" style="enable-background:new 0 0 141.7 141.7;" xml:space="preserve">
<style type="text/css">
	.st0{fill:#FFFFFF;}
	.st1{fill:#344FA1;}
</style>
<g>
	<path class="st0" d="M121.4,117L121.4,117c-4.5,0-8.2,3.4-8.4,7.9l0,0c-0.3,5.7-6.1,9.4-11.4,7.3l0,0c-4.1-1.7-8.9,0.2-10.7,4.3
		l0,0c-2.4,5.2-9.1,6.6-13.3,2.7l0,0c-3.3-3.1-8.3-3-11.5,0.1l0,0c-4.1,4-10.9,2.8-13.4-2.3l0,0c-1.9-4-6.7-5.8-10.8-4l0,0
		c-5.2,2.3-11.1-1.3-11.6-7l0,0c-0.4-4.5-4.2-7.8-8.6-7.7l0,0c-5.7,0.2-9.9-5.3-8.3-10.8l0,0c1.3-4.3-1.1-8.8-5.3-10.3l0,0
		c-5.4-1.9-7.4-8.5-3.9-13l0,0c2.7-3.5,2.2-8.6-1.2-11.5l0,0C-1.4,69-0.9,62.1,4,59.1l0,0c3.8-2.3,5.1-7.2,3-11.2l0,0
		c-2.7-5,0.3-11.3,5.9-12.2l0,0c4.4-0.8,7.4-4.9,6.8-9.3l0,0C19,20.7,24,16,29.6,17.1l0,0c4.4,0.9,8.7-1.9,9.7-6.2l0,0
		c1.4-5.6,7.8-8.1,12.6-5.1l0,0c3.8,2.4,8.8,1.4,11.3-2.3l0,0c3.3-4.7,10.2-4.8,13.6-0.2l0,0c2.7,3.6,7.7,4.5,11.4,2l0,0
		C93,2.2,99.5,4.6,101,10.1l0,0c1.2,4.3,5.5,6.9,9.9,6l0,0c5.6-1.2,10.7,3.3,10.1,9l0,0c-0.5,4.5,2.7,8.5,7.1,9.1l0,0
		c5.6,0.9,8.8,7,6.2,12.1l0,0c-2,4-0.6,8.9,3.3,11.1l0,0c5,2.8,5.7,9.7,1.4,13.5l0,0c-3.3,3-3.7,8.1-0.9,11.5l0,0
		c3.6,4.4,1.8,11.1-3.6,13.1l0,0c-4.2,1.6-6.4,6.2-5,10.4l0,0C131.2,111.5,127.1,117.1,121.4,117z"/>
	<g>
		<g>
			<g>
				<path class="st1" d="M109.2,60.8c0-9.1-7.3-16.4-16.4-16.4H50.3c-9.1,0-16.4,7.4-16.4,16.4v20c0,9.1,7.3,16.4,16.4,16.4h42.5
					c9.1,0,16.4-7.4,16.4-16.4V60.8z M82.4,71.9l-17,9.3c-0.7,0.4-1.4-0.1-1.4-1V61.1c0-0.9,0.7-1.4,1.4-1l17.1,9.8
					C83.3,70.4,83.1,71.4,82.4,71.9z"/>
			</g>
		</g>
	</g>
</g>
</svg>
